STARTFONT 2.3
FONT -FontForge-Bungee Shade-Book-R-Normal--16-160-72-72-P-137-ISO10646-1
SIZE 16 72 72  4
FONTBOUNDINGBOX 41 42 -10 -15
COMMENT "Generated by fontforge, http://fontforge.sourceforge.net"
COMMENT "Copyright 2008 The Bungee Project Authors (david@djr.com)"
STARTPROPERTIES 40
FOUNDRY "FontForge"
FAMILY_NAME "Bungee Shade"
WEIGHT_NAME "Book"
SLANT "R"
SETWIDTH_NAME "Normal"
ADD_STYLE_NAME ""
PIXEL_SIZE 16
POINT_SIZE 160
RESOLUTION_X 72
RESOLUTION_Y 72
SPACING "P"
AVERAGE_WIDTH 137
CHARSET_REGISTRY "ISO10646"
CHARSET_ENCODING "1"
FONTNAME_REGISTRY ""
CHARSET_COLLECTIONS "ISO8859-2 ISO8859-9 ISO8859-4 ISO10646-1"
BITS_PER_PIXEL 4
FONT_NAME "BungeeShade-Regular"
FACE_NAME "Bungee Shade"
COPYRIGHT "Copyright 2008 The Bungee Project Authors (david@djr.com)"
FONT_VERSION "1.000;PS 1.0;hotconv 1.0.72;makeotf.lib2.5.5900"
FONT_ASCENT 14
FONT_DESCENT 2
UNDERLINE_POSITION 0
UNDERLINE_THICKNESS 0
X_HEIGHT 11
CAP_HEIGHT 11
RAW_ASCENT 860
RAW_DESCENT 140
NORM_SPACE 5
RELATIVE_WEIGHT 40
RELATIVE_SETWIDTH 50
SUPERSCRIPT_X 0
SUPERSCRIPT_Y 5
SUPERSCRIPT_SIZE 9
SUBSCRIPT_X 0
SUBSCRIPT_Y 1
SUBSCRIPT_SIZE 9
AVG_LOWERCASE_WIDTH 131
AVG_UPPERCASE_WIDTH 133
ENDPROPERTIES
CHARS 1065
STARTCHAR space
ENCODING 32
SWIDTH 325 0
DWIDTH 5 0
BBX 1 1 0 0
BITMAP
00
ENDCHAR
STARTCHAR exclam
ENCODING 33
SWIDTH 524 0
DWIDTH 8 0
BBX 8 14 0 -2
BITMAP
00343332
03E30002
0EF40202
1FF40202
0FF50202
0EF50202
0EF60102
0DFB6662
0DFB9951
08F30002
0AF30202
0FF40002
0FFEDD90
0DFFF800
ENDCHAR
STARTCHAR quotedbl
ENCODING 34
SWIDTH 746 0
DWIDTH 12 0
BBX 12 8 0 4
BITMAP
017333463333
2D9000890002
9FA020890202
9FA020990202
9FA0209A0202
8FB000AB0002
8FFEEEFFEEA1
6FFF97FFF900
ENDCHAR
STARTCHAR numbersign
ENCODING 35
SWIDTH 850 0
DWIDTH 14 0
BBX 14 14 0 -2
BITMAP
00007333163320
000AC003B60020
007A6024932031
07E00210002002
3FF11533335203
4FFF220FC025A1
3FC90219602320
07600200011020
7F603533353120
CF810211020120
CFF710AF220A00
9EF600CF102000
0BFFDAFFEC3000
0BFF72EFD20000
ENDCHAR
STARTCHAR dollar
ENCODING 36
SWIDTH 750 0
DWIDTH 12 0
BBX 12 17 0 -3
BITMAP
000003333000
000086002100
000751020331
006100020002
08B012232102
4FA020477751
7FA02049BB10
8FB030000021
8FF302222003
7FFE96310303
1EFFFFFD0203
03A000000302
2DA022232102
8FC331020530
8FFFF7002400
7FFFFFEE6000
000BFFE40000
ENDCHAR
STARTCHAR percent
ENCODING 37
SWIDTH 1131 0
DWIDTH 18 0
BBX 18 14 0 -2
BITMAP
002223330333400000
038032206C00300000
3E831811C902300000
AF833E02C620300000
BF832D02C221300000
BF930011B024122231
AFE43237A026423313
7FFFFEFF620B125432
19EFE9AF320F129722
000000DE024F128722
000001FA027F220032
000005F800BF923334
000009FFE9FFFFEE70
00000AFF706DFFC400
ENDCHAR
STARTCHAR ampersand
ENCODING 38
SWIDTH 866 0
DWIDTH 14 0
BBX 14 14 0 -2
BITMAP
00003233333000
00070000002000
00A80122202000
06F80301111000
0AFA020EF70000
0BFC1203622222
09C02330560002
07703022A70312
5F7020FFF70214
BF702044511231
CFB02222222030
AFF81000000320
5FFFFEDDDDC200
06DFFFFFE91000
ENDCHAR
STARTCHAR quotesingle
ENCODING 39
SWIDTH 456 0
DWIDTH 7 0
BBX 7 8 0 4
BITMAP
00733340
1CC00020
7FC02020
7FC02020
6FD02020
6FE00020
5FFEEC20
4FFFB100
ENDCHAR
STARTCHAR parenleft
ENCODING 40
SWIDTH 529 0
DWIDTH 8 0
BBX 9 17 0 -3
BITMAP
0000222300
0014000020
02B0231020
1DA0203610
6F90209200
9F90203000
9F90203000
9F90203000
9F90203000
9F90203000
9F90203000
9F90202300
9FB0300020
9FF2031020
7FFD510110
2EFFFFE400
03ADED3000
ENDCHAR
STARTCHAR parenright
ENCODING 41
SWIDTH 529 0
DWIDTH 8 0
BBX 9 17 0 -3
BITMAP
0032221000
0680001300
6F80230300
AFA0012210
AFFF302110
7EFF402110
00EF402110
00EF402110
00EF402110
00EF402110
00EF402110
00EF302110
0290021200
3E80320400
AF90024100
AFFFFA0000
7EDB600000
ENDCHAR
STARTCHAR asterisk
ENCODING 42
SWIDTH 818 0
DWIDTH 13 0
BBX 13 12 0 0
BITMAP
00000543330000
00008F41030100
00255B63142300
04E21013001030
0DD00225231030
3FFEC51332CB10
4DFFA031216100
002C010B110300
01CFA14F803100
05FFFCDFF60000
004DC27E600000
00000001000000
ENDCHAR
STARTCHAR plus
ENCODING 43
SWIDTH 834 0
DWIDTH 13 0
BBX 13 12 0 -1
BITMAP
00000132210000
00002C20020000
0001EF23020000
00139913032220
02C00003000020
1EE01225222020
4FF10003000020
4FFFFF230BFA00
2DEEFF220A9000
0001FF30030000
0001FFEDA10000
0000EFF9000000
ENDCHAR
STARTCHAR comma
ENCODING 44
SWIDTH 484 0
DWIDTH 8 0
BBX 8 9 0 -4
BITMAP
00222221
05A00002
5FB02302
8FB00202
8FFBA302
6FE02221
2DF76730
4FFFD200
18861000
ENDCHAR
STARTCHAR hyphen
ENCODING 45
SWIDTH 520 0
DWIDTH 8 0
BBX 9 6 0 2
BITMAP
0032222300
0870000110
8F70221110
BF80000210
BFFEEED500
9FFFFE4000
ENDCHAR
STARTCHAR period
ENCODING 46
SWIDTH 484 0
DWIDTH 8 0
BBX 8 7 0 -2
BITMAP
00222221
05A00002
5FB02002
8FB01002
8FB00002
8FFEDD70
6FFFE600
ENDCHAR
STARTCHAR slash
ENCODING 47
SWIDTH 487 0
DWIDTH 8 0
BBX 8 17 0 -3
BITMAP
00004332
001C2003
00DF0203
02FD0203
04FB0203
06F80202
08F60221
0BF41120
0DF22020
0FF02020
2FD02020
4FA02020
6F802020
9F601210
BF500300
DFFFD300
BEEC2000
ENDCHAR
STARTCHAR zero
ENCODING 48
SWIDTH 827 0
DWIDTH 13 0
BBX 13 14 0 -2
BITMAP
00013333223200
00340122220120
04D02100003020
2FC0205C902020
5FC0209FE02020
7FC0208FE02020
7FC0207FE02020
7FC0207FE02020
7FC0205FB02020
7FD02100003020
6FF30122220030
3FFE6200014400
0BFFFFFEEE5000
006CEFED920000
ENDCHAR
STARTCHAR one
ENCODING 49
SWIDTH 701 0
DWIDTH 11 0
BBX 11 14 0 -2
BITMAP
006333333000
09E000002000
4FE012302000
4FFDC0202000
3FFFF0202000
015FF0202000
004FF0202000
004FF0202000
004980202230
069000200020
5F9022322120
9FA000000020
9FFDDDDDDC30
7FFFFFFFD200
ENDCHAR
STARTCHAR two
ENCODING 50
SWIDTH 739 0
DWIDTH 12 0
BBX 12 14 0 -2
BITMAP
003433333320
04E100000011
1EF112222102
2FF300000202
2FFFFFF70202
1DEEC7201211
002201221330
04903138B300
3F8020894221
9F7020000002
BF7032222202
BF8000000002
BFFDDDDDDD70
9FFFFFFFF700
ENDCHAR
STARTCHAR three
ENCODING 51
SWIDTH 737 0
DWIDTH 12 0
BBX 12 14 0 -2
BITMAP
006333333300
0A9000000120
7F9022221030
9FB000003030
9FFFFFB02030
6EEE43202310
009E01233121
04FE22210302
04FFFFFC0302
02C444430302
2C9022222103
9FA000000140
9FFDDDDDE800
7FFFFFEC5000
ENDCHAR
STARTCHAR four
ENCODING 52
SWIDTH 809 0
DWIDTH 13 0
BBX 13 14 0 -2
BITMAP
00633330533320
0AD0003A700020
5FD0207F703020
6FD0208F703020
6FD0208F703020
6FD0206D603020
6FD02000003020
6FF10333333020
4FFA2000003020
1EFFFEEE603020
03CEFFFF702020
000000CF800020
000000CFFDD600
0000009FFE5000
ENDCHAR
STARTCHAR five
ENCODING 53
SWIDTH 747 0
DWIDTH 12 0
BBX 12 14 0 -2
BITMAP
006333333341
09D000000011
5FD022222111
5FD020000021
5FD0207EEE40
5FD020122330
5FD023333103
5FE211110302
5FFFFFFD0302
2BD444430302
1BB022222103
7FB000000151
8FFEDDDDE910
6FFFFFFC6000
ENDCHAR
STARTCHAR six
ENCODING 54
SWIDTH 793 0
DWIDTH 13 0
BBX 13 14 0 -2
BITMAP
00013333333100
00440222211200
05D02000001200
2FC0207EEE6000
5FC02033232200
7FC02223320310
7FC03000003030
7FC0208F703030
7FC0208F803030
7FD02102012020
6FF30222220200
4FFD6100025200
0BFFFFFEFC2000
007CEFEC710000
ENDCHAR
STARTCHAR seven
ENCODING 55
SWIDTH 727 0
DWIDTH 12 0
BBX 12 14 0 -2
BITMAP
016333333331
1C7000000002
AF7022222202
CF8000000202
CFFFFFF60202
9EEEEEB30202
000131013121
002A01320010
01EA02027400
07F902095000
09F902020000
09FA00030000
09FFDDA10000
07FFF9000000
ENDCHAR
STARTCHAR eight
ENCODING 56
SWIDTH 811 0
DWIDTH 13 0
BBX 13 14 0 -2
BITMAP
00013333333100
00270233320300
03E61200011200
0BF6206F702200
0DFA125D612300
0CF81443450300
08C03000003030
2E9030BFC02020
8F9030BFC02020
9FA03000003020
9FD10222230020
7FFC5100014400
2EFFFFEEEF5000
018CEFED930000
ENDCHAR
STARTCHAR nine
ENCODING 57
SWIDTH 793 0
DWIDTH 13 0
BBX 13 14 0 -2
BITMAP
00023333333000
00420323320400
06B03000021200
4F9030AF402020
8F9030BF502020
9FA03001013020
9FD00222222020
8FFA3001102020
3FFFFFFF502020
04AD2222021210
01CC0222220300
06FD0000013100
06FFEDDDEB1000
05FFFFFD700000
ENDCHAR
STARTCHAR colon
ENCODING 58
SWIDTH 484 0
DWIDTH 8 0
BBX 8 13 0 -2
BITMAP
00222221
05A00002
5FB01002
8FB02002
8FB00002
8FFBBB70
7FE99831
08B00002
5FB02002
8FB01002
8FB00002
8FFEDD70
6FFFE600
ENDCHAR
STARTCHAR semicolon
ENCODING 59
SWIDTH 484 0
DWIDTH 8 0
BBX 8 15 0 -4
BITMAP
00222221
04A00002
4FB01002
7FB02002
8FB00002
8FFBBB70
7FE99831
18B00002
5FB02302
8FB00202
8FFBA302
6FE02221
2DF76730
4FFFD200
18861000
ENDCHAR
STARTCHAR less
ENCODING 60
SWIDTH 814 0
DWIDTH 13 0
BBX 12 12 0 -1
BITMAP
000000000223
000001332002
000231002212
004502220014
06F220048CB1
0EF2205CD700
2FF322001332
1FFA00222102
0EFFE9410112
05EFFFFFB722
0015AEFFFFF5
00000037CD30
ENDCHAR
STARTCHAR equal
ENCODING 61
SWIDTH 834 0
DWIDTH 13 0
BBX 13 10 0 0
BITMAP
00233333333320
03D01222222020
2FE00000000020
4FFBAAAAAAAA50
4FFFFFFFFFF700
04A43333331310
08E01222222020
4FF00000000030
4FFEDDDDDDDC30
3FFFFFFFFFB100
ENDCHAR
STARTCHAR greater
ENCODING 62
SWIDTH 814 0
DWIDTH 13 0
BBX 12 12 1 -1
BITMAP
049774000000
5F4003776100
EF4122201650
EF9200023140
EFFFD9510312
38DFFFC60302
006851023110
1A5022210000
BF4000048300
EF526AEB3000
EFFEA6100000
983000000000
ENDCHAR
STARTCHAR question
ENCODING 63
SWIDTH 756 0
DWIDTH 12 0
BBX 12 14 0 -2
BITMAP
006333333340
0B8000000014
8F8033333204
AFA000000303
AFFFFFFD0303
7EEE64100302
007E01322200
05FF10000100
04FF768AD600
01FD00024000
02ED02011000
06FD00021000
06FFEDD60000
04FFFE400000
ENDCHAR
STARTCHAR at
ENCODING 64
SWIDTH 967 0
DWIDTH 15 0
BBX 15 17 0 -3
BITMAP
0000023333331000
0002300000002300
004429EFFFFD6130
06E28FEFFFFFE320
1FC331221111D420
5FC356133330D430
6FC39530E820D430
6FC39521F820D430
6FC39521F820D430
6FC395208520A320
6FC3991322322240
6FC38F8433345810
6FF33EFFFFFFB100
4FF9325899982000
0DFFC85332213000
03EFFFFFFFFB1000
0017BDEEEE800000
ENDCHAR
STARTCHAR A
ENCODING 65
SWIDTH 830 0
DWIDTH 13 0
BBX 13 14 0 -2
BITMAP
00003333333000
00046000001100
002E1032310300
00AA020A120300
01F5023F611020
07F1107FB01030
0CC02000002020
3FB03333334020
6FB02000002020
8FB020BEE12020
8FB010CFF11020
8FB0005FF10020
8FFED73FFEDC20
6FFF701EFFC100
ENDCHAR
STARTCHAR B
ENCODING 66
SWIDTH 825 0
DWIDTH 13 0
BBX 13 14 0 -2
BITMAP
00633333333100
08E00000000300
4FE02222220200
4FE0205B430200
4FE0207F611200
4FE02000021500
4FE03222342030
4FE0206ED22120
4FE0207FF21220
4FE02000002120
4FE02222232020
4FE00000000320
4FFEDDDDDDD200
3FFFFFFFE91000
ENDCHAR
STARTCHAR C
ENCODING 67
SWIDTH 728 0
DWIDTH 12 0
BBX 12 14 0 -2
BITMAP
000133333332
003500000002
04D003322202
1EC030000001
5FC0207FFF50
7FC0208ED500
7FC020200000
7FC020200000
7FC020222221
7FD020000002
6FF303322202
3FFD40000002
0AFFFFEDDD60
018DFFFFF600
ENDCHAR
STARTCHAR D
ENCODING 68
SWIDTH 846 0
DWIDTH 14 0
BBX 13 14 0 -2
BITMAP
00633333333300
08E00000000030
4FE02222221030
4FE02013203020
4FE0206FF31220
4FE0205FF41220
4FE0202FF41220
4FE0202FF31220
4FE02029811220
4FE02000003030
4FE02222221020
4FE00000001410
4FFEDDDDDE9000
3FFFFFFEC60000
ENDCHAR
STARTCHAR E
ENCODING 69
SWIDTH 754 0
DWIDTH 12 0
BBX 12 14 0 -2
BITMAP
006333333333
08E000000003
4FE022222203
4FE020000002
4FE0207FFFB0
4FE020233330
4FE032222030
4FE0206CCA20
4FE020498322
4FE020000003
4FE022222203
4FE000000002
4FFEDDDDDDA1
3FFFFFFFFA10
ENDCHAR
STARTCHAR F
ENCODING 70
SWIDTH 718 0
DWIDTH 11 0
BBX 12 14 0 -2
BITMAP
006333333332
08E000000002
4FE022222202
4FE0204AAA81
4FE0206FFC10
4FE020000210
4FE032221110
4FE020000210
4FE0206EE600
4FE0206E4000
4FE010200000
4FE000200000
4FFEDB100000
3FFFB1000000
ENDCHAR
STARTCHAR G
ENCODING 71
SWIDTH 808 0
DWIDTH 13 0
BBX 13 14 0 -2
BITMAP
00013333333200
00340000000200
04D00332220200
1EC02000001000
5FC0207FFD2000
7FC02056842210
7FC02025A00030
7FC0206FA02030
7FC0206D902030
7FD03000002030
6FF30222222030
3FFD4000000020
0AFFFFEDDDD800
018DFFFFFF8000
ENDCHAR
STARTCHAR H
ENCODING 72
SWIDTH 859 0
DWIDTH 14 0
BBX 14 14 0 -2
BITMAP
00633330253340
08E00023E40021
4FE0202EF40221
4FE0202FF40221
4FE02028920221
4FE02000000221
4FE03222223221
4FE02000000221
4FE0206FF40221
4FE0206FF40221
4FE0202FF40121
4FE0003FF40020
4FFEDC2FFEDD40
3FFFB10DFFD300
ENDCHAR
STARTCHAR I
ENCODING 73
SWIDTH 705 0
DWIDTH 11 0
BBX 11 14 0 -2
BITMAP
007333333330
1CA000000020
8FB022322030
8FFDB0206C40
7FFFD0205300
016FD0202000
006FD0202000
006FD0202000
005970202220
04A000200020
4FA022322020
8FB000000020
8FFEDDDDDB10
6FFFFFFFC100
ENDCHAR
STARTCHAR J
ENCODING 74
SWIDTH 788 0
DWIDTH 13 0
BBX 12 14 0 -2
BITMAP
000000045334
0000006F2102
000001FF2112
000001FF2112
000001FF2112
003334FF2112
088001FF2112
8F8020FF2112
BF8020CD1212
BF9030000302
AFD002233103
8FFC41000340
1EFFFFEEF800
029DFFEB4000
ENDCHAR
STARTCHAR K
ENCODING 75
SWIDTH 846 0
DWIDTH 14 0
BBX 13 14 0 -2
BITMAP
00633330333340
08E00024800030
4FE0205E312210
4FE0206C030300
4FE02066030300
4FE02000300120
4FE03333432020
4FE02001102020
4FE0206FF21120
4FE0206FF31120
4FE0203FF31120
4FE0003FF30030
4FFEDC3FFEDD40
3FFFB10DFFD300
ENDCHAR
STARTCHAR L
ENCODING 76
SWIDTH 795 0
DWIDTH 13 0
BBX 13 14 0 -2
BITMAP
00633330000000
08E01020000000
4FE02020000000
4FE02020000000
4FE02020000000
4FE02020233310
4FE02024B00030
4FE0205FC02030
4FE0206EA02030
4FE02000002030
4FE02222222030
4FE00000000030
4FFEDDDDDDD800
3FFFFFFFFF7000
ENDCHAR
STARTCHAR M
ENCODING 77
SWIDTH 949 0
DWIDTH 15 0
BBX 15 14 0 -2
BITMAP
0063333000433320
08E0000109100030
4FE0130188032030
4FE02030A1312030
4FE0200302102030
4FE0201121102030
4FE0207100802030
4FE0208A37B02030
4FE0208FFFB02030
4FE020798FB02030
4FE010208FB01030
4FE000208FB00030
4FFEDA108FFED910
3FFFA1006FFF8000
ENDCHAR
STARTCHAR N
ENCODING 78
SWIDTH 853 0
DWIDTH 14 0
BBX 13 14 0 -2
BITMAP
00633310253340
08E00012D40020
4FE03306F41220
4FE02120941220
4FE02022011220
4FE02002101220
4FE02030211220
4FE02088031220
4FE0208F504220
4FE0208FE21220
4FE0208FF41120
4FE0004FF40020
4FFEDB2FFEDC30
3FFFB10DFFD200
ENDCHAR
STARTCHAR O
ENCODING 79
SWIDTH 837 0
DWIDTH 13 0
BBX 13 14 0 -2
BITMAP
00013333323200
00240222220130
04D02100003030
2FC0205CB02020
5FC0209FF12020
7FC0206FF12020
7FC0204FF12020
7FC0204FF12020
7FC0204FD02020
7FD02100003030
6FF30222230030
3FFE6200014500
0BFFFFFEEF7000
006BEFFDA30000
ENDCHAR
STARTCHAR P
ENCODING 80
SWIDTH 782 0
DWIDTH 13 0
BBX 13 14 0 -2
BITMAP
00633333333100
08E00000000400
4FE02222220030
4FE02037303030
4FE0207FB02030
4FE0207F902030
4FE02000003020
4FE03222230310
4FE02000014100
4FE0206FFD2000
4FE0206C810000
4FE00030000000
4FFEDC30000000
3FFFB100000000
ENDCHAR
STARTCHAR Q
ENCODING 81
SWIDTH 837 0
DWIDTH 13 0
BBX 13 15 0 -3
BITMAP
00013333333200
00340222220130
05D02100003030
2FC0206DC02020
5FC0209FF12020
7FC0206FF12020
7FC0204FF12020
7FC0204FF12020
7FC0204FD02020
7FD02100003020
6FF50233230020
2FFF9402026200
06FFFE00063000
0039FFEEC20000
0003FFFB100000
ENDCHAR
STARTCHAR R
ENCODING 82
SWIDTH 843 0
DWIDTH 13 0
BBX 14 14 0 -2
BITMAP
00633333333200
08E00000000300
4FE02222220120
4FE0207F521020
4FE0207F602200
4FE02001021320
4FE03222242030
4FE02000001202
4FE0206EE40202
4FE0207FF60202
4FE0103DF60102
4FE0002CF70002
4FFEDB1CFFDD50
3FFFB10AFFE500
ENDCHAR
STARTCHAR S
ENCODING 83
SWIDTH 750 0
DWIDTH 12 0
BBX 12 14 0 -2
BITMAP
000232333331
006200000002
07B012222102
3FA020477751
7FA02059BC10
8FB030000031
8FF202222003
7FFE95310303
1EFFFFFD0203
03A000000302
2DA022222103
8FA000000140
8FFEDDDDE900
7FFFFFEC5000
ENDCHAR
STARTCHAR T
ENCODING 84
SWIDTH 756 0
DWIDTH 12 0
BBX 13 14 0 -2
BITMAP
02533333333400
2D400000000210
DF412223221210
EF600002000200
EFFFF3021FD200
BEEFF3021C2000
000FF302120000
000FF302120000
000FF302120000
000FF302120000
000FF302120000
000FF400120000
000FFEDD700000
000DFFE5000000
ENDCHAR
STARTCHAR U
ENCODING 85
SWIDTH 846 0
DWIDTH 14 0
BBX 13 14 0 -2
BITMAP
00633330353330
0AD01025F31020
5FD0203FF32120
5FD0203FF32120
5FD0203FF32120
5FD0203FF32120
5FD0203FF32120
5FD0203FF32120
5FD0202DC12020
5FF01200003020
4FF40122230030
2FFE7200014400
09FFFFFEEF7000
005BEFFDA30000
ENDCHAR
STARTCHAR V
ENCODING 86
SWIDTH 830 0
DWIDTH 13 0
BBX 13 14 0 -2
BITMAP
00733330533330
1BB01027F01020
7FB0205FF02020
8FB0206FF02020
8FB0206FF02020
8FB0206FE02020
8FD0304FA03020
7FF3020E603020
4FF90306120200
0EFE1210030200
08FF6022211100
02FFC000002000
00BFFEDDDA1000
004FFFFFA00000
ENDCHAR
STARTCHAR W
ENCODING 87
SWIDTH 931 0
DWIDTH 15 0
BBX 15 14 0 -2
BITMAP
0063332000633320
0AC000200AA01030
6FC020207FA03030
6FC020209FA03030
6FC020236CA03030
6FC0208201903030
6FC0203121303030
6FC0200202003030
6FE0201131103020
6FF32131E1312200
4FF80315F4130200
0EFD0009F9000200
09FFED9DFFED5000
03EFF808FFE40000
ENDCHAR
STARTCHAR X
ENCODING 88
SWIDTH 837 0
DWIDTH 13 0
BBX 13 14 0 -2
BITMAP
00633320343330
09C00023E10020
5FC0203EF12020
6FE0202F903030
6FF60304111120
3FFE2120030300
0AFF8033411200
01DD1210030300
01C31209402030
09D0307FD02020
4FC0209FF12020
6FC0005FF20030
6FFEDA3FFEDC40
5FFF901EFFC200
ENDCHAR
STARTCHAR Y
ENCODING 89
SWIDTH 805 0
DWIDTH 13 0
BBX 13 14 0 -2
BITMAP
01633320633330
2C80103AD01020
9F80308FD02020
AF80308FD02020
AF90306F703020
AFD11206021120
9FF90210120300
4FFF5024202000
09FFE202011000
01CFF902020000
003FF901020000
0009FA00020000
0009FFDD910000
0007FFF9000000
ENDCHAR
STARTCHAR Z
ENCODING 90
SWIDTH 760 0
DWIDTH 12 0
BBX 12 14 0 -2
BITMAP
005333333333
07D000000002
4FD022222202
5FE100000302
5FFFFF603031
3DEEF9021210
000290111200
001A11212000
00A203032222
099030000003
6F9022222203
AF9000000002
AFFDDDDDDDB1
8FFFFFFFFC10
ENDCHAR
STARTCHAR bracketleft
ENCODING 91
SWIDTH 529 0
DWIDTH 8 0
BBX 9 17 0 -3
BITMAP
0032222300
0690000020
6F90321020
9F90204610
9F90209200
9F90203000
9F90203000
9F90203000
9F90203000
9F90203000
9F90203000
9F90203300
9F90200020
9F90331020
9FA0000110
9FFFFFE400
7EEEED3000
ENDCHAR
STARTCHAR backslash
ENCODING 92
SWIDTH 487 0
DWIDTH 8 0
BBX 8 17 0 -3
BITMAP
00433200
1B500200
CF702110
DF902020
BFB02020
9FD02020
7FF02020
5FF22030
2FF50220
0FF70211
0DF90203
0BFB0203
09FD0203
07FF1103
04FF4003
02FFFFD2
00CEEB10
ENDCHAR
STARTCHAR bracketright
ENCODING 93
SWIDTH 529 0
DWIDTH 8 0
BBX 9 17 0 -3
BITMAP
0032222300
0680000110
6F80222110
AFA0002110
AFFF402110
7EFF402110
00EF402110
00EF402110
00EF402110
00EF402110
00EF402110
00EF402110
0290002110
3E80331110
AF90000210
AFFFFFE500
7EEEED3000
ENDCHAR
STARTCHAR asciicircum
ENCODING 94
SWIDTH 814 0
DWIDTH 13 0
BBX 13 11 0 1
BITMAP
00002322230000
00047033202000
004F3300203000
00CD0306032000
02F9033D030200
06F5217F130300
0AF130BF511300
0EC010EF901210
4F9003CFD10030
8FFFE38FFFF800
8EEC203DEE6000
ENDCHAR
STARTCHAR underscore
ENCODING 95
SWIDTH 834 0
DWIDTH 13 0
BBX 13 6 0 -4
BITMAP
00133333333320
02D00000000020
2EE01222222020
4FF00000000020
4FFEEEEEEEEB10
3FFFFFFFFFA100
ENDCHAR
STARTCHAR grave
ENCODING 96
SWIDTH 600 0
DWIDTH 10 0
BBX 10 6 0 10
BITMAP
0032222000
0870001222
9F70222202
BFEA865313
AFFFFFFF80
14579BC500
ENDCHAR
STARTCHAR a
ENCODING 97
SWIDTH 830 0
DWIDTH 13 0
BBX 13 14 0 -2
BITMAP
00003333333000
00046000001100
002E1032310300
00AA020A120300
01F5023F611020
07F1107FB01030
0CC02000002020
3FB03333334020
6FB02000002020
8FB020BEE12020
8FB010CFF11020
8FB0005FF10020
8FFED73FFEDC20
6FFF701EFFC100
ENDCHAR
STARTCHAR b
ENCODING 98
SWIDTH 825 0
DWIDTH 13 0
BBX 13 14 0 -2
BITMAP
00633333333100
08E00000000300
4FE02222220200
4FE0205B430200
4FE0207F611200
4FE02000021500
4FE03222342030
4FE0206ED22120
4FE0207FF21220
4FE02000002120
4FE02222232020
4FE00000000320
4FFEDDDDDDD200
3FFFFFFFE91000
ENDCHAR
STARTCHAR c
ENCODING 99
SWIDTH 728 0
DWIDTH 12 0
BBX 12 14 0 -2
BITMAP
000133333332
003500000002
04D003322202
1EC030000001
5FC0207FFF50
7FC0208ED500
7FC020200000
7FC020200000
7FC020222221
7FD020000002
6FF303322202
3FFD40000002
0AFFFFEDDD60
018DFFFFF600
ENDCHAR
STARTCHAR d
ENCODING 100
SWIDTH 846 0
DWIDTH 14 0
BBX 13 14 0 -2
BITMAP
00633333333300
08E00000000030
4FE02222221030
4FE02013203020
4FE0206FF31220
4FE0205FF41220
4FE0202FF41220
4FE0202FF31220
4FE02029811220
4FE02000003030
4FE02222221020
4FE00000001410
4FFEDDDDDE9000
3FFFFFFEC60000
ENDCHAR
STARTCHAR e
ENCODING 101
SWIDTH 754 0
DWIDTH 12 0
BBX 12 14 0 -2
BITMAP
006333333333
08E000000003
4FE022222203
4FE020000002
4FE0207FFFB0
4FE020233330
4FE032222030
4FE0206CCA20
4FE020498322
4FE020000003
4FE022222203
4FE000000002
4FFEDDDDDDA1
3FFFFFFFFA10
ENDCHAR
STARTCHAR f
ENCODING 102
SWIDTH 718 0
DWIDTH 11 0
BBX 12 14 0 -2
BITMAP
006333333332
08E000000002
4FE022222202
4FE0204AAA81
4FE0206FFC10
4FE020000210
4FE032221110
4FE020000210
4FE0206EE600
4FE0206E4000
4FE010200000
4FE000200000
4FFEDB100000
3FFFB1000000
ENDCHAR
STARTCHAR g
ENCODING 103
SWIDTH 808 0
DWIDTH 13 0
BBX 13 14 0 -2
BITMAP
00013333333200
00340000000200
04D00332220200
1EC02000001000
5FC0207FFD2000
7FC02056842210
7FC02025A00030
7FC0206FA02030
7FC0206D902030
7FD03000002030
6FF30222222030
3FFD4000000020
0AFFFFEDDDD800
018DFFFFFF8000
ENDCHAR
STARTCHAR h
ENCODING 104
SWIDTH 859 0
DWIDTH 14 0
BBX 14 14 0 -2
BITMAP
00633330253340
08E00023E40021
4FE0202EF40221
4FE0202FF40221
4FE02028920221
4FE02000000221
4FE03222223221
4FE02000000221
4FE0206FF40221
4FE0206FF40221
4FE0202FF40121
4FE0003FF40020
4FFEDC2FFEDD40
3FFFB10DFFD300
ENDCHAR
STARTCHAR i
ENCODING 105
SWIDTH 705 0
DWIDTH 11 0
BBX 11 14 0 -2
BITMAP
007333333330
1CA000000020
8FB022322030
8FFDB0206C40
7FFFD0205300
016FD0202000
006FD0202000
006FD0202000
005970202220
04A000200020
4FA022322020
8FB000000020
8FFEDDDDDB10
6FFFFFFFC100
ENDCHAR
STARTCHAR j
ENCODING 106
SWIDTH 788 0
DWIDTH 13 0
BBX 12 14 0 -2
BITMAP
000000045334
0000006F2102
000001FF2112
000001FF2112
000001FF2112
003334FF2112
088001FF2112
8F8020FF2112
BF8020CD1212
BF9030000302
AFD002233103
8FFC41000340
1EFFFFEEF800
029DFFEB4000
ENDCHAR
STARTCHAR k
ENCODING 107
SWIDTH 846 0
DWIDTH 14 0
BBX 13 14 0 -2
BITMAP
00633330333340
08E00024800030
4FE0205E312210
4FE0206C030300
4FE02066030300
4FE02000300120
4FE03333432020
4FE02001102020
4FE0206FF21120
4FE0206FF31120
4FE0203FF31120
4FE0003FF30030
4FFEDC3FFEDD40
3FFFB10DFFD300
ENDCHAR
STARTCHAR l
ENCODING 108
SWIDTH 795 0
DWIDTH 13 0
BBX 13 14 0 -2
BITMAP
00633330000000
08E01020000000
4FE02020000000
4FE02020000000
4FE02020000000
4FE02020233310
4FE02024B00030
4FE0205FC02030
4FE0206EA02030
4FE02000002030
4FE02222222030
4FE00000000030
4FFEDDDDDDD800
3FFFFFFFFF7000
ENDCHAR
STARTCHAR m
ENCODING 109
SWIDTH 949 0
DWIDTH 15 0
BBX 15 14 0 -2
BITMAP
0063333000433320
08E0000109100030
4FE0130188032030
4FE02030A1312030
4FE0200302102030
4FE0201121102030
4FE0207100802030
4FE0208A37B02030
4FE0208FFFB02030
4FE020798FB02030
4FE010208FB01030
4FE000208FB00030
4FFEDA108FFED910
3FFFA1006FFF8000
ENDCHAR
STARTCHAR n
ENCODING 110
SWIDTH 853 0
DWIDTH 14 0
BBX 13 14 0 -2
BITMAP
00633310253340
08E00012D40020
4FE03306F41220
4FE02120941220
4FE02022011220
4FE02002101220
4FE02030211220
4FE02088031220
4FE0208F504220
4FE0208FE21220
4FE0208FF41120
4FE0004FF40020
4FFEDB2FFEDC30
3FFFB10DFFD200
ENDCHAR
STARTCHAR o
ENCODING 111
SWIDTH 837 0
DWIDTH 13 0
BBX 13 14 0 -2
BITMAP
00013333323200
00240222220130
04D02100003030
2FC0205CB02020
5FC0209FF12020
7FC0206FF12020
7FC0204FF12020
7FC0204FF12020
7FC0204FD02020
7FD02100003030
6FF30222230030
3FFE6200014500
0BFFFFFEEF7000
006BEFFDA30000
ENDCHAR
STARTCHAR p
ENCODING 112
SWIDTH 782 0
DWIDTH 13 0
BBX 13 14 0 -2
BITMAP
00633333333100
08E00000000400
4FE02222220030
4FE02037303030
4FE0207FB02030
4FE0207F902030
4FE02000003020
4FE03222230310
4FE02000014100
4FE0206FFD2000
4FE0206C810000
4FE00030000000
4FFEDC30000000
3FFFB100000000
ENDCHAR
STARTCHAR q
ENCODING 113
SWIDTH 837 0
DWIDTH 13 0
BBX 13 15 0 -3
BITMAP
00013333333200
00340222220130
05D02100003030
2FC0206DC02020
5FC0209FF12020
7FC0206FF12020
7FC0204FF12020
7FC0204FF12020
7FC0204FD02020
7FD02100003020
6FF50233230020
2FFF9402026200
06FFFE00063000
0039FFEEC20000
0003FFFB100000
ENDCHAR
STARTCHAR r
ENCODING 114
SWIDTH 843 0
DWIDTH 13 0
BBX 14 14 0 -2
BITMAP
00633333333200
08E00000000300
4FE02222220120
4FE0207F521020
4FE0207F602200
4FE02001021320
4FE03222242030
4FE02000001202
4FE0206EE40202
4FE0207FF60202
4FE0103DF60102
4FE0002CF70002
4FFEDB1CFFDD50
3FFFB10AFFE500
ENDCHAR
STARTCHAR s
ENCODING 115
SWIDTH 750 0
DWIDTH 12 0
BBX 12 14 0 -2
BITMAP
000232333331
006200000002
07B012222102
3FA020477751
7FA02059BC10
8FB030000031
8FF202222003
7FFE95310303
1EFFFFFD0203
03A000000302
2DA022222103
8FA000000140
8FFEDDDDE900
7FFFFFEC5000
ENDCHAR
STARTCHAR t
ENCODING 116
SWIDTH 756 0
DWIDTH 12 0
BBX 13 14 0 -2
BITMAP
02533333333400
2D400000000210
DF412223221210
EF600002000200
EFFFF3021FD200
BEEFF3021C2000
000FF302120000
000FF302120000
000FF302120000
000FF302120000
000FF302120000
000FF400120000
000FFEDD700000
000DFFE5000000
ENDCHAR
STARTCHAR u
ENCODING 117
SWIDTH 846 0
DWIDTH 14 0
BBX 13 14 0 -2
BITMAP
00633330353330
0AD01025F31020
5FD0203FF32120
5FD0203FF32120
5FD0203FF32120
5FD0203FF32120
5FD0203FF32120
5FD0203FF32120
5FD0202DC12020
5FF01200003020
4FF40122230030
2FFE7200014400
09FFFFFEEF7000
005BEFFDA30000
ENDCHAR
STARTCHAR v
ENCODING 118
SWIDTH 830 0
DWIDTH 13 0
BBX 13 14 0 -2
BITMAP
00733330533330
1BB01027F01020
7FB0205FF02020
8FB0206FF02020
8FB0206FF02020
8FB0206FE02020
8FD0304FA03020
7FF3020E603020
4FF90306120200
0EFE1210030200
08FF6022211100
02FFC000002000
00BFFEDDDA1000
004FFFFFA00000
ENDCHAR
STARTCHAR w
ENCODING 119
SWIDTH 931 0
DWIDTH 15 0
BBX 15 14 0 -2
BITMAP
0063332000633320
0AC000200AA01030
6FC020207FA03030
6FC020209FA03030
6FC020236CA03030
6FC0208201903030
6FC0203121303030
6FC0200202003030
6FE0201131103020
6FF32131E1312200
4FF80315F4130200
0EFD0009F9000200
09FFED9DFFED5000
03EFF808FFE40000
ENDCHAR
STARTCHAR x
ENCODING 120
SWIDTH 837 0
DWIDTH 13 0
BBX 13 14 0 -2
BITMAP
00633320343330
09C00023E10020
5FC0203EF12020
6FE0202F903030
6FF60304111120
3FFE2120030300
0AFF8033411200
01DD1210030300
01C31209402030
09D0307FD02020
4FC0209FF12020
6FC0005FF20030
6FFEDA3FFEDC40
5FFF901EFFC200
ENDCHAR
STARTCHAR y
ENCODING 121
SWIDTH 805 0
DWIDTH 13 0
BBX 13 14 0 -2
BITMAP
01633320633330
2C80103AD01020
9F80308FD02020
AF80308FD02020
AF90306F703020
AFD11206021120
9FF90210120300
4FFF5024202000
09FFE202011000
01CFF902020000
003FF901020000
0009FA00020000
0009FFDD910000
0007FFF9000000
ENDCHAR
STARTCHAR z
ENCODING 122
SWIDTH 760 0
DWIDTH 12 0
BBX 12 14 0 -2
BITMAP
005333333333
07D000000002
4FD022222202
5FE100000302
5FFFFF603031
3DEEF9021210
000290111200
001A11212000
00A203032222
099030000003
6F9022222203
AF9000000002
AFFDDDDDDDB1
8FFFFFFFFC10
ENDCHAR
STARTCHAR braceleft
ENCODING 123
SWIDTH 555 0
DWIDTH 9 0
BBX 10 17 -1 -3
BITMAP
0000012221
0000420002
0007703202
007F412053
00DF311260
00FF311200
01F8031200
03F3114500
0EF5030200
1FFF211200
0BFF311200
01FF312031
01FF503002
00FFB02202
00DFF93002
007FFFFFA0
0006BDE800
ENDCHAR
STARTCHAR bar
ENCODING 124
SWIDTH 447 0
DWIDTH 7 0
BBX 7 17 0 -3
BITMAP
00233310
04C00020
3FD02020
5FD02020
5FD02020
5FD02020
5FD02020
5FD02020
5FD02020
5FD02020
5FD02020
5FD02020
5FD02020
5FD01020
5FE00030
5FFFFA10
3EEE8000
ENDCHAR
STARTCHAR braceright
ENCODING 125
SWIDTH 555 0
DWIDTH 9 0
BBX 9 17 0 -3
BITMAP
0032221000
0680002200
6F80230300
AFA0020200
AFFE120200
7EFF220200
02FF222130
01FF823020
01FF923020
00AF212130
00EF220200
01FF120200
03A0030200
3E80320400
AF90134000
AFFFF80000
7EDB400000
ENDCHAR
STARTCHAR asciitilde
ENCODING 126
SWIDTH 834 0
DWIDTH 13 0
BBX 13 7 0 2
BITMAP
00013333212320
00520000021020
06E01222222020
3FE00000011020
4FF9CFEC978700
4FFFFFFFFF9000
16302468730000
ENDCHAR
STARTCHAR uni00A0
ENCODING 160
SWIDTH 325 0
DWIDTH 5 0
BBX 1 1 0 0
BITMAP
00
ENDCHAR
STARTCHAR exclamdown
ENCODING 161
SWIDTH 523 0
DWIDTH 8 0
BBX 8 14 0 -2
BITMAP
00353332
04E30002
0FF30202
0FF40002
0FFFEEB0
08E70002
09F60202
0DF50202
0DF40202
0EF40202
0EF30102
0FF30002
1FFEDD91
0EFFF900
ENDCHAR
STARTCHAR cent
ENCODING 162
SWIDTH 728 0
DWIDTH 12 0
BBX 12 16 0 -3
BITMAP
000002333100
00003C000200
000262020250
004403332202
06D020000003
2FC0206EEEB1
5FC0209FF800
7FC020200000
7FC020200000
7FC020222221
7FE020000002
5FF503332202
1EFE84020121
05FFFE000830
0039FFEEA200
0003FFF90000
ENDCHAR
STARTCHAR sterling
ENCODING 163
SWIDTH 795 0
DWIDTH 13 0
BBX 14 14 -1 -2
BITMAP
00001333333300
00017000000200
002D3022220200
00CF0210111100
02FE0205FF8000
04F70202670000
08F20300132221
1FF402002A0003
1FFE0206FC0103
0BFE0201320203
04FE0222222203
04FE0000000003
04FFEDDDDDDD80
03FFFFFFFFF700
ENDCHAR
STARTCHAR currency
ENCODING 164
SWIDTH 921 0
DWIDTH 15 0
BBX 15 14 0 -2
BITMAP
0005720000047200
0085032232330520
09B0122232121020
7FF9032000220000
3EFF4306A5022000
04FF430CFB023000
00EF430CFB023000
00EF430AF9033000
00EE232000322200
00D3122222221320
06C0116444601130
5FFA2CFFFFFB2200
4FFE78887EFE4000
05B2000004C30000
ENDCHAR
STARTCHAR yen
ENCODING 165
SWIDTH 803 0
DWIDTH 13 0
BBX 13 14 0 -2
BITMAP
01633320533320
2C800037D00020
AF80306FD02020
AF90208FD02020
AFB0206F802030
9FF50108120300
4FFE1100011200
09FC5012103200
04F50224220300
0CF71102011400
0DFFFA010BD300
0AEFFB00081000
0008FFED910000
0006FFF8000000
ENDCHAR
STARTCHAR brokenbar
ENCODING 166
SWIDTH 447 0
DWIDTH 7 0
BBX 7 17 0 -3
BITMAP
00233310
04C00020
3FD02020
5FD02020
5FD02020
5FD02020
5FD00020
5FFBB920
4FF99410
06D00020
3FD02020
5FD02020
5FD02020
5FD02020
5FE00030
5FFFFA10
3EEE8000
ENDCHAR
STARTCHAR section
ENCODING 167
SWIDTH 750 0
DWIDTH 12 0
BBX 12 14 0 -2
BITMAP
000233333331
004403333202
06D030000002
3FB0208DDE50
6FA042223330
8FA020000304
8FC030BD1023
8FF302343223
5FFD40000023
0BFEEDDB0203
04D022222103
4FD000000240
6FFEDDDDE700
4FFFFFEB4000
ENDCHAR
STARTCHAR dieresis
ENCODING 168
SWIDTH 600 0
DWIDTH 10 0
BBX 11 6 -1 10
BITMAP
001322132220
01C100840020
0DF120942020
2FF300A50020
2FFFFFFFFB10
1DEE8CEE9000
ENDCHAR
STARTCHAR copyright
ENCODING 169
SWIDTH 967 0
DWIDTH 15 0
BBX 15 17 0 -3
BITMAP
0000023333331000
0002300000002300
004429EFFFFC5030
06E27ED8666AE320
1FC325122215F420
5FC37A110005F430
6FC39A20AFEFF430
6FC39A20BC3FF430
6FC39A20301FF430
6FC39A11333BF430
6FC39C022225F430
6FC38F810005F420
6FF44FFFFFEFC320
4FF93379AA453420
1EFFC85333467300
04EFFFFFFFFC2000
0017BDEDCA500000
ENDCHAR
STARTCHAR ordfeminine
ENCODING 170
SWIDTH 620 0
DWIDTH 10 0
BBX 10 14 0 -2
BITMAP
0005333320
01A7122130
08F1221211
0DB0287202
4F72054022
9F63222223
CF62066023
CF610FD013
CFB77FF774
CFD9699982
3E61222213
AF70000002
CFFDDDDDB1
AFFFFFFB10
ENDCHAR
STARTCHAR guillemotleft
ENCODING 171
SWIDTH 912 0
DWIDTH 15 0
BBX 14 11 0 -1
BITMAP
00000132100133
00033100233102
00711320801322
0AA03016903024
6FA022DF8024B1
9FB03003903003
9FE20220C10212
7FFE9400DE8402
2DFFFFEBFFFFE6
015AEFA26AEF70
00000300000200
ENDCHAR
STARTCHAR logicalnot
ENCODING 172
SWIDTH 834 0
DWIDTH 13 0
BBX 13 9 0 -1
BITMAP
00233333333320
04D02333333020
3FF00000002020
4FFEEEEEE42020
3FFFFFFFF52020
0000000DF51020
0000000DF50030
0000000DFFDB20
0000000CFFB100
ENDCHAR
STARTCHAR uni00AD
ENCODING 173
SWIDTH 520 0
DWIDTH 8 0
BBX 9 6 0 2
BITMAP
0032222300
0870000110
8F70221110
BF80000210
BFFEEED500
9FFFFE4000
ENDCHAR
STARTCHAR registered
ENCODING 174
SWIDTH 660 0
DWIDTH 11 0
BBX 11 11 0 1
BITMAP
000555556200
0194BEEE7500
1CB75334E410
6FB75573E410
7FB75544A410
7FB754F27410
7FD5DFFFA500
7FFA65557600
3FFFFFFF7000
06EFFFD40000
000121000000
ENDCHAR
STARTCHAR macron
ENCODING 175
SWIDTH 600 0
DWIDTH 10 0
BBX 10 5 0 10
BITMAP
0032222221
0970222202
9F80000003
BFFFFFFF90
9EEEEEE600
ENDCHAR
STARTCHAR degree
ENCODING 176
SWIDTH 583 0
DWIDTH 9 0
BBX 9 9 0 3
BITMAP
0013333320
0380322230
3E83031320
9F831F8320
AF831E7320
AFB0322230
9FFB655730
4FFFFFD200
038A971000
ENDCHAR
STARTCHAR plusminus
ENCODING 177
SWIDTH 834 0
DWIDTH 13 0
BBX 13 14 0 -2
BITMAP
00000342220000
00003E20020000
0001EF23020000
00139913033320
01C00003000020
1DE01225222020
4FF32203012240
4FFFFF230BFC10
3FFFFF220BC100
02569910043320
04D01222222020
3FF00000000030
4FFEDDDDDDDC30
3FFFFFFFFFB100
ENDCHAR
STARTCHAR twosuperior
ENCODING 178
SWIDTH 585 0
DWIDTH 9 0
BBX 9 10 0 2
BITMAP
0073333320
09E0222130
4FF6661220
5FFE950220
18A1222030
0882116600
7F72088230
BF72222220
BFFEEEEE80
AFFFFFE500
ENDCHAR
STARTCHAR threesuperior
ENCODING 179
SWIDTH 584 0
DWIDTH 9 0
BBX 10 10 0 2
BITMAP
0173333300
1CA1222020
9FFED72020
9FF9002220
38E9123130
09FFEE4211
0AA1110221
1CA1222240
9FFEEEE900
8FFFFD6000
ENDCHAR
STARTCHAR acute
ENCODING 180
SWIDTH 600 0
DWIDTH 10 0
BBX 10 6 0 10
BITMAP
0000022221
0052200002
1B70222202
AF92357971
BFFFFFF900
8CA8652000
ENDCHAR
STARTCHAR mu
ENCODING 181
SWIDTH 813 0
DWIDTH 13 0
BBX 13 14 0 -4
BITMAP
00232220222210
04B00025B00020
4FC0207FC02020
6FC0208FC02020
6FC0208FC02020
6FC0208FC02020
6FC0307FA02020
6FC04101012020
6FC02122220220
6FC02010126300
6FC0008FFE3000
6FFBBBED920000
5FFFC200000000
03331000000000
ENDCHAR
STARTCHAR paragraph
ENCODING 182
SWIDTH 782 0
DWIDTH 13 0
BBX 12 14 0 -2
BITMAP
000223333333
007100000003
0A8012222223
7F6120000023
BF6200000023
CF6200000023
CF8120000023
CFC022322233
AFFB40300023
4FFFD032A023
03BFD022A023
006FD003A003
006FFEDEFDC2
004FFD9FFC10
ENDCHAR
STARTCHAR periodcentered
ENCODING 183
SWIDTH 464 0
DWIDTH 7 0
BBX 8 7 0 2
BITMAP
00322230
07800012
7F802012
AF801012
AF900011
AFFDDD50
8FFFE400
ENDCHAR
STARTCHAR cedilla
ENCODING 184
SWIDTH 600 0
DWIDTH 10 0
BBX 7 7 1 -4
BITMAP
00033210
005A0230
03F52130
09E01030
1EA00210
5FFED400
8FFD3000
ENDCHAR
STARTCHAR onesuperior
ENCODING 185
SWIDTH 557 0
DWIDTH 9 0
BBX 9 10 0 2
BITMAP
0073333200
0AC0230200
5FE5120200
6FFF520200
39FF520200
00EF520200
00C9320320
1A91232120
9FFEEEED50
8FFFFFC300
ENDCHAR
STARTCHAR ordmasculine
ENCODING 186
SWIDTH 625 0
DWIDTH 10 0
BBX 10 14 0 -2
BITMAP
0013222231
0280222202
2E72100023
AF720BD023
BF720CE023
CF720CE023
CF821BD023
CFC0222202
BFFB654650
4FD9999732
0B71222213
9F80000002
CFFDDDDDB2
AFFFFFFC10
ENDCHAR
STARTCHAR guillemotright
ENCODING 187
SWIDTH 912 0
DWIDTH 15 0
BBX 15 11 0 -1
BITMAP
0004200014100000
0190244370244000
2DC0200380200200
6FE51320C4132010
6FFFC120DF902020
4FE20020B1002120
04C0231580221600
3EC015AF9026A500
6FFCFEDFECFE4000
6FFFA3AFFEA20000
3951006840000000
ENDCHAR
STARTCHAR onequarter
ENCODING 188
SWIDTH 1303 0
DWIDTH 21 0
BBX 21 14 0 -2
BITMAP
0073333200633300000000
0AC023020A600300000000
5FE512028F420300000000
6FFF5202CF120633133320
29EF5202ED022A007A0030
00EF5205FB025A21BB1130
00C93205C8027A21BB1130
099123217520AA11451130
7FA000008330DA02223130
9FFFFFFFF030FE30001130
7EEEEEAFC023FFFEEA1130
0000004FA004CFFFFB0030
0000007FFDB20008FFD910
0000007FFB100007FF9000
ENDCHAR
STARTCHAR onehalf
ENCODING 189
SWIDTH 1260 0
DWIDTH 20 0
BBX 20 14 0 -2
BITMAP
00733332006333000000
1BC023020A6003000000
6FE512028F4203000000
6FFF5202CF1206333330
15EF5202ED022B122203
00EF5205FB025C333023
00C93205C8027FFD8022
0991232175206C402312
7FA00000833077133650
9FFFFFFFF030F5219632
7EEEEEAFC023F4200003
0000004FA006F4222212
0000007FFDCEFEDDDDB1
0000007FFC2DFFFFFC10
ENDCHAR
STARTCHAR threequarters
ENCODING 190
SWIDTH 1313 0
DWIDTH 21 0
BBX 21 14 0 -2
BITMAP
0173333300533400000000
1C91222026900200000000
9FA000207F621200000000
9FFB5322BF320533223320
38E812317F120B015C0120
09F900022D022C029D0220
0AFFEE421A025C029D0220
0AA2442238027C02470220
7FA00002B520AD02222220
9FFFFFDDF220DF50000220
7EEEEB2EE021FFFEEC0220
0000002FD002AEFFFD0020
0000005FFEC30006FFEB20
0000005FFD200004FFB100
ENDCHAR
STARTCHAR questiondown
ENCODING 191
SWIDTH 756 0
DWIDTH 12 0
BBX 12 14 0 -2
BITMAP
000002533320
00003E400020
0000EF402020
0000FF500030
000097531010
000200000010
027022232020
2E8020479920
8F8020698322
AFA020000003
AFE113222203
9FFB20000002
4FFFFEDDDDB1
05CEFFFFFB10
ENDCHAR
STARTCHAR Agrave
ENCODING 192
SWIDTH 830 0
DWIDTH 13 0
BBX 13 18 0 -2
BITMAP
00003222100000
001A5000122100
00BF5032210200
00EFDA86422200
00DFE888887000
004A8000002100
002D2032310200
00AC020A120200
01F6023F611110
07F1107FB01020
0CC02000002020
3FB03333334020
6FB02000002020
8FB020BEE12020
8FB010CFF11020
8FB0005FF10020
8FFED73FFEDC30
6FFF701EFFC200
ENDCHAR
STARTCHAR Aacute
ENCODING 193
SWIDTH 830 0
DWIDTH 13 0
BBX 13 18 0 -2
BITMAP
00001357777100
00048422310200
006F5121000200
00EF6246792000
00EFD333333000
00DF6000001100
005E1032310300
00AA020A120300
01F5023F611020
07F1107FB01030
0CC02000002020
3FB03333334020
6FB02000002020
8FB020BEE12020
8FB010CFF11020
8FB0005FF10020
8FFED73FFEDC20
6FFF701EFFC100
ENDCHAR
STARTCHAR Acircumflex
ENCODING 194
SWIDTH 830 0
DWIDTH 13 0
BBX 13 18 0 -2
BITMAP
00000022210000
00001132322100
00095000010200
00AF98CFD95200
00EFD444445000
00DF7000001100
004D1032310200
00AB020A120200
01F5023F611120
07F1107FB01020
0CC02000002020
3FB03333334020
6FB02000002020
8FB020BEE12020
8FB010CFF11020
8FB0005FF10020
8FFED73FFEDC20
6FFF701EFFC200
ENDCHAR
STARTCHAR Atilde
ENCODING 195
SWIDTH 830 0
DWIDTH 13 0
BBX 13 18 0 -2
BITMAP
00001222234100
00035000000200
004E5133310200
00DF6453114100
00EFF988884000
00DF8000002000
004D3032310200
00AC020A120200
01F6023F611110
07F1107FB01020
0CC02000002020
3FB03333334020
6FB02000002020
8FB020BEE12020
8FB010CFF11020
8FB0005FF10020
8FFED73FFEDC30
6FFF701EFFC200
ENDCHAR
STARTCHAR Adieresis
ENCODING 196
SWIDTH 830 0
DWIDTH 13 0
BBX 13 18 0 -2
BITMAP
00013221322100
002C000A100200
01DE020C120200
04FF100D200300
04FFFAAAAAA000
04FF9000002000
005E3032310200
00AC020A120200
01F7023F611110
07F2107FB01020
0CC02000002020
3FB03333334020
6FB02000002020
8FB020BEE12020
8FB010CFF11020
8FB0005FF10030
8FFED73FFEDC30
6FFF701EFFC200
ENDCHAR
STARTCHAR Aring
ENCODING 197
SWIDTH 830 0
DWIDTH 13 0
BBX 13 18 0 -2
BITMAP
00000333331000
00016133213100
002C4300030200
00CF322F820200
00FF532D730200
00FF8033222000
00CF3032310200
00CC020A120300
02F7023F611110
08F2107FB01020
0DC02000002020
4FB03333334020
7FB02000002020
8FB020BEE12020
8FB010CFF11020
8FB0005FF10030
8FFED73FFEDC30
6FFF701EFFC200
ENDCHAR
STARTCHAR AE
ENCODING 198
SWIDTH 1105 0
DWIDTH 18 0
BBX 18 14 0 -2
BITMAP
000053333333333332
000A50000000000002
009E11222232222202
00EA020AA0206CCC81
05F4022FD020377800
0AE0107FD020000200
1FC020000016663200
5FB0333333406CC500
7FB020000020496221
8FB020BEC020000002
8FB010CFD022222202
8FB0008FE000000002
8FFED75FFEDDDDDD60
6FFF603FFFFFFFF500
ENDCHAR
STARTCHAR Ccedilla
ENCODING 199
SWIDTH 728 0
DWIDTH 12 0
BBX 12 16 0 -4
BITMAP
000133333332
003403322202
04D020000003
1EC0206EEE91
5FC0209FF700
7FC020200000
7FC020200000
7FC020200000
7FC020222221
7FD020000002
6FF403323202
3FFE62020002
0AFFFD010C50
007DF9002400
0006FFFD2000
0008EEB10000
ENDCHAR
STARTCHAR Egrave
ENCODING 200
SWIDTH 754 0
DWIDTH 12 0
BBX 12 18 0 -2
BITMAP
000677775300
00AB02212450
07FB00012020
08FFB9753110
07F333333333
03E000000003
2FE022222203
4FE020000002
4FE0207FFFB0
4FE020233330
4FE032222030
4FE0206CCA20
4FE020498322
4FE020000003
4FE022222203
4FE000000002
4FFEDDDDDDA1
3FFFFFFFFA10
ENDCHAR
STARTCHAR Eacute
ENCODING 201
SWIDTH 754 0
DWIDTH 12 0
BBX 12 18 0 -2
BITMAP
000014677770
000573223121
008F31210010
00FF42468810
00F333333333
08E000000003
4FE022222203
4FE020000002
4FE0207FFFB0
4FE020233330
4FE032222030
4FE0206CCA20
4FE020498322
4FE020000003
4FE022222203
4FE000000002
4FFEDDDDDDA1
3FFFFFFFFA10
ENDCHAR
STARTCHAR Ecircumflex
ENCODING 202
SWIDTH 754 0
DWIDTH 12 0
BBX 12 18 0 -2
BITMAP
000001232000
000102322220
004C00110020
03FE7BFFD840
05F333333333
06E000000003
2EE022222203
4FE020000002
4FE0207FFFB0
4FE020233330
4FE032222030
4FE0206CCA20
4FE020498322
4FE020000003
4FE022222203
4FE000000002
4FFEDDDDDDA1
3FFFFFFFFA10
ENDCHAR
STARTCHAR Edieresis
ENCODING 203
SWIDTH 754 0
DWIDTH 12 0
BBX 12 18 0 -2
BITMAP
000222322231
0049001B0002
04FA021C0202
09FB002D0011
09FBAAAAAAA6
08E000000003
1CE022222203
4FE020000002
4FE0207FFFB0
4FE020233330
4FE032222030
4FE0206CCA20
4FE020498322
4FE020000003
4FE022222203
4FE000000002
4FFEDDDDDDA1
3FFFFFFFFA10
ENDCHAR
STARTCHAR Igrave
ENCODING 204
SWIDTH 705 0
DWIDTH 11 0
BBX 11 18 0 -2
BITMAP
002877764200
03D513213620
0DF500021020
0EFDA8642110
0DC333333330
08A000000020
6FB022322030
8FFDB0206C40
7FFFD0205300
016FD0202000
006FD0202000
006FD0202000
005970202220
04A000200020
4FA022322020
8FB000000020
8FFEDDDDDB10
6FFFFFFFC100
ENDCHAR
STARTCHAR Iacute
ENCODING 205
SWIDTH 705 0
DWIDTH 11 0
BBX 11 18 0 -2
BITMAP
000135777710
004842231020
06F512100020
0EF624679200
0EC333333330
0DA000000020
4EB022322030
8FFDB0206C40
7FFFD0205300
016FD0202000
006FD0202000
006FD0202000
005970202220
04A000200020
4FA022322020
8FB000000020
8FFEDDDDDB10
6FFFFFFFC100
ENDCHAR
STARTCHAR Icircumflex
ENCODING 206
SWIDTH 705 0
DWIDTH 11 0
BBX 11 18 0 -2
BITMAP
000001221000
000103232210
009500200020
0AF99DFEA610
0EC333333330
0EA000000020
4EB022322030
8FFDB0206C40
7FFFD0205300
016FD0202000
006FD0202000
006FD0202000
005970202220
04A000200020
4FA022322020
8FB000000020
8FFEDDDDDB10
6FFFFFFFC100
ENDCHAR
STARTCHAR Idieresis
ENCODING 207
SWIDTH 705 0
DWIDTH 11 0
BBX 11 18 0 -2
BITMAP
001322132220
02C000B10020
1DE020C12020
4FE100D20000
4FEAAAAAAA80
4FA000000020
4EB022322020
8FFDB0206C40
7FFFD0205300
016FD0202000
006FD0202000
006FD0202000
005970202220
04A000200020
4FA022322020
8FB000000020
8FFEDDDDDB10
6FFFFFFFC100
ENDCHAR
STARTCHAR Eth
ENCODING 208
SWIDTH 856 0
DWIDTH 14 0
BBX 15 14 -1 -2
BITMAP
0004433333323100
005F200000000400
01FF212222220200
02FF220011021020
02FF2205FF502020
02F702016F602020
07F215311F602020
1FF402002F602020
1FFF2204EF502020
0BFF220133021110
02FF212222220300
02FF200000013100
02FFEDDDDDEB1000
01EFFFFFFD700000
ENDCHAR
STARTCHAR Ntilde
ENCODING 209
SWIDTH 853 0
DWIDTH 14 0
BBX 13 18 0 -2
BITMAP
00001223334200
00037000000200
004E8033320200
00BF9454100000
00B334EFF73340
06E0003EF40020
3FE03306F41220
4FE02120941220
4FE02022011220
4FE02002101220
4FE02030211220
4FE02088031220
4FE0208F504220
4FE0208FE21220
4FE0208FF41120
4FE0004FF40020
4FFEDB2FFEDC30
3FFFB10DFFD200
ENDCHAR
STARTCHAR Ograve
ENCODING 210
SWIDTH 837 0
DWIDTH 13 0
BBX 13 18 0 -2
BITMAP
00017666531000
002C6021135200
00CF6001210200
00DFEA86431100
00AE8310124200
00430222220020
06D02100003030
2FC0205CB02020
6FC0209FF12020
7FC0206FF12020
7FC0204FF12020
7FC0204FF12020
7FC0204FD02020
7FD02100003030
6FF30222230030
3FFE7200014500
0AFFFFFEEF7000
006BEFFDA30000
ENDCHAR
STARTCHAR Oacute
ENCODING 211
SWIDTH 837 0
DWIDTH 13 0
BBX 13 18 0 -2
BITMAP
00000246666100
00038421220200
004E6022000200
00DF7245793000
00DE8310123300
00A40222220020
07D02100003030
3FC0205CB02020
6FC0209FF12020
7FC0206FF12020
7FC0204FF12020
7FC0204FF12020
7FC0204FD02020
7FD02100003030
6FF30222230030
3FFE7200014500
0AFFFFFEEF7000
006BEFFDA30000
ENDCHAR
STARTCHAR Ocircumflex
ENCODING 212
SWIDTH 837 0
DWIDTH 13 0
BBX 13 18 0 -2
BITMAP
00000023310000
00004233322100
002C6000010200
00CF86ADC74200
00DFA532246200
00B50222220120
07E02100003030
3FC0205CB02020
6FC0209FF12020
7FC0206FF12020
7FC0204FF12020
7FC0204FF12020
7FC0204FD02020
7FD02100003030
6FF30222230030
3FFE7200014500
0AFFFFFEEF7000
006BEFFDA30000
ENDCHAR
STARTCHAR Otilde
ENCODING 213
SWIDTH 837 0
DWIDTH 13 0
BBX 13 18 0 -2
BITMAP
00001223234100
00046000000200
006F6133320200
00DF7453103100
00DFB744454200
00A60222220120
07E02100003030
3FC0205CB02020
6FC0209FF12020
7FC0206FF12020
7FC0204FF12020
7FC0204FF12020
7FC0204FD02020
7FD02100003030
6FF30222230030
3FFE6200014500
0AFFFFFEEF7000
006BEFFDA30000
ENDCHAR
STARTCHAR Odieresis
ENCODING 214
SWIDTH 837 0
DWIDTH 13 0
BBX 13 18 0 -2
BITMAP
00013221322100
003D000A200200
02EF020B220200
04FF100C300200
03FFD97678A200
00B90222220220
07E02100003030
3FC0205CB02020
6FC0209FF12020
7FC0206FF12020
7FC0204FF12020
7FC0204FF12020
7FC0204FD02020
7FD02100003030
6FF30222230030
3FFE6200014500
0AFFFFFEEF7000
006BEFFDA30000
ENDCHAR
STARTCHAR multiply
ENCODING 215
SWIDTH 834 0
DWIDTH 13 0
BBX 12 12 1 -1
BITMAP
000010000100
002322004230
036002260012
3E9021202022
EFF903121220
6FFF60520300
06F903121210
018021202021
1D7004EA0013
CFF63EFFA230
9FFC26FFE500
08A1006D3000
ENDCHAR
STARTCHAR Oslash
ENCODING 216
SWIDTH 837 0
DWIDTH 13 0
BBX 13 16 0 -3
BITMAP
00000000232310
00013333210300
00240222250020
04D02100034020
2FC020AB301120
5FC020E5301220
7FC020C2251220
7FC02063661220
7FC02012C61220
7FC03033F51120
7FD03231103030
6FF30532221030
4FFD0100014500
0CF9018EFF7000
06FFFFFDA30000
09DD8000000000
ENDCHAR
STARTCHAR Ugrave
ENCODING 217
SWIDTH 846 0
DWIDTH 14 0
BBX 13 18 0 -2
BITMAP
00028777642000
003E4132136200
00DF4000210200
00EFDA86421100
00C333AFF63330
09D0104CF31020
5FD0203FF32120
5FD0203FF32120
5FD0203FF32120
5FD0203FF32120
5FD0203FF32120
5FD0203FF32120
5FD0202DC12020
5FF01200003020
4FF40122230030
2FFE7200014400
09FFFFFEEF7000
005BEFFDA30000
ENDCHAR
STARTCHAR Uacute
ENCODING 218
SWIDTH 846 0
DWIDTH 14 0
BBX 13 18 0 -2
BITMAP
00000357777300
00029421220200
003D9021000200
009FA135794000
009333AFF63330
09D01035F31020
5FD0203FF32120
5FD0203FF32120
5FD0203FF32120
5FD0203FF32120
5FD0203FF32120
5FD0203FF32120
5FD0202DC12020
5FF01200003020
4FF40122230030
2FFE7200014400
09FFFFFEEF7000
005BEFFDA30000
ENDCHAR
STARTCHAR Ucircumflex
ENCODING 219
SWIDTH 846 0
DWIDTH 14 0
BBX 13 18 0 -2
BITMAP
00000023320000
00004223323100
002B7000010200
00BF96BED94200
00B333AFF63330
09D01038F31020
5FD0203FF32120
5FD0203FF32120
5FD0203FF32120
5FD0203FF32120
5FD0203FF32120
5FD0203FF32120
5FD0203FE12020
5FF01200003020
4FF40122230030
2FFE7200014400
09FFFFFEEF7000
005BEFFDA30000
ENDCHAR
STARTCHAR Udieresis
ENCODING 220
SWIDTH 846 0
DWIDTH 14 0
BBX 13 18 0 -2
BITMAP
00013221322200
002D1009300200
01EF120A320200
02FF200B400000
02FAAADFFCAA90
09D0006EF30020
5FD0203DF32120
5FD0203FF32120
5FD0203FF32120
5FD0203FF32120
5FD0203FF32120
5FD0203FF32120
5FD0203ED12020
5FE01200003020
4FF40122231030
2FFE7200014400
09FFFFFEEF7000
005BEFFDA30000
ENDCHAR
STARTCHAR Yacute
ENCODING 221
SWIDTH 805 0
DWIDTH 13 0
BBX 13 18 0 -2
BITMAP
00001457777100
00048422311200
006F4121000100
00EF6246791000
01A333EFE33330
2C801049D01020
9F80308FD02020
AF80308FD02020
AF90306F703020
AFD11206021120
9FF90210120300
4FFF5024202000
09FFE202011000
01CFF902020000
003FF901020000
0009FA00020000
0009FFDD910000
0007FFF9000000
ENDCHAR
STARTCHAR Thorn
ENCODING 222
SWIDTH 792 0
DWIDTH 13 0
BBX 13 14 0 -2
BITMAP
00633330000000
08E00020000000
4FE02012222100
4FE03222220310
4FE02000012030
4FE0207F902030
4FE0207FB02030
4FE02036302030
4FE02000012220
4FE03333323300
4FE0206DDD4000
4FE0007EA20000
4FFED900000000
3FFFA000000000
ENDCHAR
STARTCHAR germandbls
ENCODING 223
SWIDTH 859 0
DWIDTH 14 0
BBX 14 14 0 -2
BITMAP
00633333333200
08E00000000300
4FE02222220200
4FE02001020300
4FE0206F120300
4FE0206D030220
4FE0206A033102
4FE0206D860302
4FE0206FFB0302
4FE02069000302
4FE01068022103
4FE00079000150
4FFEDDFFDDE900
3FFFBAFFEC5000
ENDCHAR
STARTCHAR agrave
ENCODING 224
SWIDTH 830 0
DWIDTH 13 0
BBX 13 18 0 -2
BITMAP
00003222100000
001A5000122100
00BF5032210200
00EFDA86422200
00DFE888887000
004A8000002100
002D2032310200
00AC020A120200
01F6023F611110
07F1107FB01020
0CC02000002020
3FB03333334020
6FB02000002020
8FB020BEE12020
8FB010CFF11020
8FB0005FF10020
8FFED73FFEDC30
6FFF701EFFC200
ENDCHAR
STARTCHAR aacute
ENCODING 225
SWIDTH 830 0
DWIDTH 13 0
BBX 13 18 0 -2
BITMAP
00001357777100
00048422310200
006F5121000200
00EF6246792000
00EFD333333000
00DF6000001100
005E1032310300
00AA020A120300
01F5023F611020
07F1107FB01030
0CC02000002020
3FB03333334020
6FB02000002020
8FB020BEE12020
8FB010CFF11020
8FB0005FF10020
8FFED73FFEDC20
6FFF701EFFC100
ENDCHAR
STARTCHAR acircumflex
ENCODING 226
SWIDTH 830 0
DWIDTH 13 0
BBX 13 18 0 -2
BITMAP
00000022210000
00001132322100
00095000010200
00AF98CFD95200
00EFD444445000
00DF7000001100
004D1032310200
00AB020A120200
01F5023F611120
07F1107FB01020
0CC02000002020
3FB03333334020
6FB02000002020
8FB020BEE12020
8FB010CFF11020
8FB0005FF10020
8FFED73FFEDC20
6FFF701EFFC200
ENDCHAR
STARTCHAR atilde
ENCODING 227
SWIDTH 830 0
DWIDTH 13 0
BBX 13 18 0 -2
BITMAP
00001222234100
00035000000200
004E5133310200
00DF6453114100
00EFF988884000
00DF8000002000
004D3032310200
00AC020A120200
01F6023F611110
07F1107FB01020
0CC02000002020
3FB03333334020
6FB02000002020
8FB020BEE12020
8FB010CFF11020
8FB0005FF10020
8FFED73FFEDC30
6FFF701EFFC200
ENDCHAR
STARTCHAR adieresis
ENCODING 228
SWIDTH 830 0
DWIDTH 13 0
BBX 13 18 0 -2
BITMAP
00013221322100
002C000A100200
01DE020C120200
04FF100D200300
04FFFAAAAAA000
04FF9000002000
005E3032310200
00AC020A120200
01F7023F611110
07F2107FB01020
0CC02000002020
3FB03333334020
6FB02000002020
8FB020BEE12020
8FB010CFF11020
8FB0005FF10030
8FFED73FFEDC30
6FFF701EFFC200
ENDCHAR
STARTCHAR aring
ENCODING 229
SWIDTH 830 0
DWIDTH 13 0
BBX 13 18 0 -2
BITMAP
00000333331000
00016133213100
002C4300030200
00CF322F820200
00FF532D730200
00FF8033222000
00CF3032310200
00CC020A120300
02F7023F611110
08F2107FB01020
0DC02000002020
4FB03333334020
7FB02000002020
8FB020BEE12020
8FB010CFF11020
8FB0005FF10030
8FFED73FFEDC30
6FFF701EFFC200
ENDCHAR
STARTCHAR ae
ENCODING 230
SWIDTH 1105 0
DWIDTH 18 0
BBX 18 14 0 -2
BITMAP
000053333333333332
000A50000000000002
009E11222232222202
00EA020AA0206CCC81
05F4022FD020377800
0AE0107FD020000200
1FC020000016663200
5FB0333333406CC500
7FB020000020496221
8FB020BEC020000002
8FB010CFD022222202
8FB0008FE000000002
8FFED75FFEDDDDDD60
6FFF603FFFFFFFF500
ENDCHAR
STARTCHAR ccedilla
ENCODING 231
SWIDTH 728 0
DWIDTH 12 0
BBX 12 16 0 -4
BITMAP
000133333332
003403322202
04D020000003
1EC0206EEE91
5FC0209FF700
7FC020200000
7FC020200000
7FC020200000
7FC020222221
7FD020000002
6FF403323202
3FFE62020002
0AFFFD010C50
007DF9002400
0006FFFD2000
0008EEB10000
ENDCHAR
STARTCHAR egrave
ENCODING 232
SWIDTH 754 0
DWIDTH 12 0
BBX 12 18 0 -2
BITMAP
000677775300
00AB02212450
07FB00012020
08FFB9753110
07F333333333
03E000000003
2FE022222203
4FE020000002
4FE0207FFFB0
4FE020233330
4FE032222030
4FE0206CCA20
4FE020498322
4FE020000003
4FE022222203
4FE000000002
4FFEDDDDDDA1
3FFFFFFFFA10
ENDCHAR
STARTCHAR eacute
ENCODING 233
SWIDTH 754 0
DWIDTH 12 0
BBX 12 18 0 -2
BITMAP
000014677770
000573223121
008F31210010
00FF42468810
00F333333333
08E000000003
4FE022222203
4FE020000002
4FE0207FFFB0
4FE020233330
4FE032222030
4FE0206CCA20
4FE020498322
4FE020000003
4FE022222203
4FE000000002
4FFEDDDDDDA1
3FFFFFFFFA10
ENDCHAR
STARTCHAR ecircumflex
ENCODING 234
SWIDTH 754 0
DWIDTH 12 0
BBX 12 18 0 -2
BITMAP
000001232000
000102322220
004C00110020
03FE7BFFD840
05F333333333
06E000000003
2EE022222203
4FE020000002
4FE0207FFFB0
4FE020233330
4FE032222030
4FE0206CCA20
4FE020498322
4FE020000003
4FE022222203
4FE000000002
4FFEDDDDDDA1
3FFFFFFFFA10
ENDCHAR
STARTCHAR edieresis
ENCODING 235
SWIDTH 754 0
DWIDTH 12 0
BBX 12 18 0 -2
BITMAP
000222322231
0049001B0002
04FA021C0202
09FB002D0011
09FBAAAAAAA6
08E000000003
1CE022222203
4FE020000002
4FE0207FFFB0
4FE020233330
4FE032222030
4FE0206CCA20
4FE020498322
4FE020000003
4FE022222203
4FE000000002
4FFEDDDDDDA1
3FFFFFFFFA10
ENDCHAR
STARTCHAR igrave
ENCODING 236
SWIDTH 705 0
DWIDTH 11 0
BBX 11 18 0 -2
BITMAP
002877764200
03D513213620
0DF500021020
0EFDA8642110
0DC333333330
08A000000020
6FB022322030
8FFDB0206C40
7FFFD0205300
016FD0202000
006FD0202000
006FD0202000
005970202220
04A000200020
4FA022322020
8FB000000020
8FFEDDDDDB10
6FFFFFFFC100
ENDCHAR
STARTCHAR iacute
ENCODING 237
SWIDTH 705 0
DWIDTH 11 0
BBX 11 18 0 -2
BITMAP
000135777710
004842231020
06F512100020
0EF624679200
0EC333333330
0DA000000020
4EB022322030
8FFDB0206C40
7FFFD0205300
016FD0202000
006FD0202000
006FD0202000
005970202220
04A000200020
4FA022322020
8FB000000020
8FFEDDDDDB10
6FFFFFFFC100
ENDCHAR
STARTCHAR icircumflex
ENCODING 238
SWIDTH 705 0
DWIDTH 11 0
BBX 11 18 0 -2
BITMAP
000001221000
000103232210
009500200020
0AF99DFEA610
0EC333333330
0EA000000020
4EB022322030
8FFDB0206C40
7FFFD0205300
016FD0202000
006FD0202000
006FD0202000
005970202220
04A000200020
4FA022322020
8FB000000020
8FFEDDDDDB10
6FFFFFFFC100
ENDCHAR
STARTCHAR idieresis
ENCODING 239
SWIDTH 705 0
DWIDTH 11 0
BBX 11 18 0 -2
BITMAP
001322132220
02C000B10020
1DE020C12020
4FE100D20000
4FEAAAAAAA80
4FA000000020
4EB022322020
8FFDB0206C40
7FFFD0205300
016FD0202000
006FD0202000
006FD0202000
005970202220
04A000200020
4FA022322020
8FB000000020
8FFEDDDDDB10
6FFFFFFFC100
ENDCHAR
STARTCHAR eth
ENCODING 240
SWIDTH 856 0
DWIDTH 14 0
BBX 15 14 -1 -2
BITMAP
0004433333323100
005F200000000400
01FF212222220200
02FF220011021020
02FF2205FF502020
02F702016F602020
07F215311F602020
1FF402002F602020
1FFF2204EF502020
0BFF220133021110
02FF212222220300
02FF200000013100
02FFEDDDDDEB1000
01EFFFFFFD700000
ENDCHAR
STARTCHAR ntilde
ENCODING 241
SWIDTH 853 0
DWIDTH 14 0
BBX 13 18 0 -2
BITMAP
00001223334200
00037000000200
004E8033320200
00BF9454100000
00B334EFF73340
06E0003EF40020
3FE03306F41220
4FE02120941220
4FE02022011220
4FE02002101220
4FE02030211220
4FE02088031220
4FE0208F504220
4FE0208FE21220
4FE0208FF41120
4FE0004FF40020
4FFEDB2FFEDC30
3FFFB10DFFD200
ENDCHAR
STARTCHAR ograve
ENCODING 242
SWIDTH 837 0
DWIDTH 13 0
BBX 13 18 0 -2
BITMAP
00017666531000
002C6021135200
00CF6001210200
00DFEA86431100
00AE8310124200
00430222220020
06D02100003030
2FC0205CB02020
6FC0209FF12020
7FC0206FF12020
7FC0204FF12020
7FC0204FF12020
7FC0204FD02020
7FD02100003030
6FF30222230030
3FFE7200014500
0AFFFFFEEF7000
006BEFFDA30000
ENDCHAR
STARTCHAR oacute
ENCODING 243
SWIDTH 837 0
DWIDTH 13 0
BBX 13 18 0 -2
BITMAP
00000246666100
00038421220200
004E6022000200
00DF7245793000
00DE8310123300
00A40222220020
07D02100003030
3FC0205CB02020
6FC0209FF12020
7FC0206FF12020
7FC0204FF12020
7FC0204FF12020
7FC0204FD02020
7FD02100003030
6FF30222230030
3FFE7200014500
0AFFFFFEEF7000
006BEFFDA30000
ENDCHAR
STARTCHAR ocircumflex
ENCODING 244
SWIDTH 837 0
DWIDTH 13 0
BBX 13 18 0 -2
BITMAP
00000023310000
00004233322100
002C6000010200
00CF86ADC74200
00DFA532246200
00B50222220120
07E02100003030
3FC0205CB02020
6FC0209FF12020
7FC0206FF12020
7FC0204FF12020
7FC0204FF12020
7FC0204FD02020
7FD02100003030
6FF30222230030
3FFE7200014500
0AFFFFFEEF7000
006BEFFDA30000
ENDCHAR
STARTCHAR otilde
ENCODING 245
SWIDTH 837 0
DWIDTH 13 0
BBX 13 18 0 -2
BITMAP
00001223234100
00046000000200
006F6133320200
00DF7453103100
00DFB744454200
00A60222220120
07E02100003030
3FC0205CB02020
6FC0209FF12020
7FC0206FF12020
7FC0204FF12020
7FC0204FF12020
7FC0204FD02020
7FD02100003030
6FF30222230030
3FFE6200014500
0AFFFFFEEF7000
006BEFFDA30000
ENDCHAR
STARTCHAR odieresis
ENCODING 246
SWIDTH 837 0
DWIDTH 13 0
BBX 13 18 0 -2
BITMAP
00013221322100
003D000A200200
02EF020B220200
04FF100C300200
03FFD97678A200
00B90222220220
07E02100003030
3FC0205CB02020
6FC0209FF12020
7FC0206FF12020
7FC0204FF12020
7FC0204FF12020
7FC0204FD02020
7FD02100003030
6FF30222230030
3FFE6200014500
0AFFFFFEEF7000
006BEFFDA30000
ENDCHAR
STARTCHAR divide
ENCODING 247
SWIDTH 834 0
DWIDTH 13 0
BBX 13 13 0 -1
BITMAP
00000233320000
00003C00030000
0003ED02030000
0006FE11130000
00159999942220
03D01222222020
2EF00000000030
4FFDCCAAACCB30
3FFFFD0007D200
0234ED02031000
0006FD00030000
0006FFEDB20000
0004FFFB100000
ENDCHAR
STARTCHAR oslash
ENCODING 248
SWIDTH 837 0
DWIDTH 13 0
BBX 13 16 0 -3
BITMAP
00000000232310
00013333210300
00240222250020
04D02100034020
2FC020AB301120
5FC020E5301220
7FC020C2251220
7FC02063661220
7FC02012C61220
7FC03033F51120
7FD03231103030
6FF30532221030
4FFD0100014500
0CF9018EFF7000
06FFFFFDA30000
09DD8000000000
ENDCHAR
STARTCHAR ugrave
ENCODING 249
SWIDTH 846 0
DWIDTH 14 0
BBX 13 18 0 -2
BITMAP
00028777642000
003E4132136200
00DF4000210200
00EFDA86421100
00C333AFF63330
09D0104CF31020
5FD0203FF32120
5FD0203FF32120
5FD0203FF32120
5FD0203FF32120
5FD0203FF32120
5FD0203FF32120
5FD0202DC12020
5FF01200003020
4FF40122230030
2FFE7200014400
09FFFFFEEF7000
005BEFFDA30000
ENDCHAR
STARTCHAR uacute
ENCODING 250
SWIDTH 846 0
DWIDTH 14 0
BBX 13 18 0 -2
BITMAP
00000357777300
00029421220200
003D9021000200
009FA135794000
009333AFF63330
09D01035F31020
5FD0203FF32120
5FD0203FF32120
5FD0203FF32120
5FD0203FF32120
5FD0203FF32120
5FD0203FF32120
5FD0202DC12020
5FF01200003020
4FF40122230030
2FFE7200014400
09FFFFFEEF7000
005BEFFDA30000
ENDCHAR
STARTCHAR ucircumflex
ENCODING 251
SWIDTH 846 0
DWIDTH 14 0
BBX 13 18 0 -2
BITMAP
00000023320000
00004223323100
002B7000010200
00BF96BED94200
00B333AFF63330
09D01038F31020
5FD0203FF32120
5FD0203FF32120
5FD0203FF32120
5FD0203FF32120
5FD0203FF32120
5FD0203FF32120
5FD0203FE12020
5FF01200003020
4FF40122230030
2FFE7200014400
09FFFFFEEF7000
005BEFFDA30000
ENDCHAR
STARTCHAR udieresis
ENCODING 252
SWIDTH 846 0
DWIDTH 14 0
BBX 13 18 0 -2
BITMAP
00013221322200
002D1009300200
01EF120A320200
02FF200B400000
02FAAADFFCAA90
09D0006EF30020
5FD0203DF32120
5FD0203FF32120
5FD0203FF32120
5FD0203FF32120
5FD0203FF32120
5FD0203FF32120
5FD0203ED12020
5FE01200003020
4FF40122231030
2FFE7200014400
09FFFFFEEF7000
005BEFFDA30000
ENDCHAR
STARTCHAR yacute
ENCODING 253
SWIDTH 805 0
DWIDTH 13 0
BBX 13 18 0 -2
BITMAP
00001457777100
00048422311200
006F4121000100
00EF6246791000
01A333EFE33330
2C801049D01020
9F80308FD02020
AF80308FD02020
AF90306F703020
AFD11206021120
9FF90210120300
4FFF5024202000
09FFE202011000
01CFF902020000
003FF901020000
0009FA00020000
0009FFDD910000
0007FFF9000000
ENDCHAR
STARTCHAR thorn
ENCODING 254
SWIDTH 792 0
DWIDTH 13 0
BBX 13 14 0 -2
BITMAP
00633330000000
08E00020000000
4FE02012222100
4FE03222220310
4FE02000012030
4FE0207F902030
4FE0207FB02030
4FE02036302030
4FE02000012220
4FE03333323300
4FE0206DDD4000
4FE0007EA20000
4FFED900000000
3FFFA000000000
ENDCHAR
STARTCHAR ydieresis
ENCODING 255
SWIDTH 805 0
DWIDTH 13 0
BBX 13 18 0 -2
BITMAP
00022232222100
005B000C000200
05FB020D020200
08FC001E001100
07EAAAFFFAAA50
1B9000BED00020
9F80306FD02020
AF80308FD02020
AF90307F803020
AFC01208121010
9FF70210120100
4FFF4024201000
09FFE202011000
01DFF902020000
003FF901020000
0009FA00020000
0009FFDD910000
0007FFF9000000
ENDCHAR
STARTCHAR Amacron
ENCODING 256
SWIDTH 830 0
DWIDTH 13 0
BBX 13 17 0 -2
BITMAP
00003222222000
001A5122210200
00BF6000001200
00EFFAAAAA8000
00DF9000002000
004E3032310200
00AC020A120200
01F7023F611110
07F2107FB01020
0CC02000002020
3FB03333334020
6FB02000002020
8FB020BEE12020
8FB010CFF11020
8FB0005FF10030
8FFED73FFEDC30
6FFF701EFFC200
ENDCHAR
STARTCHAR amacron
ENCODING 257
SWIDTH 830 0
DWIDTH 13 0
BBX 13 17 0 -2
BITMAP
00003222222000
001A5122210200
00BF6000001200
00EFFAAAAA8000
00DF9000002000
004E3032310200
00AC020A120200
01F7023F611110
07F2107FB01020
0CC02000002020
3FB03333334020
6FB02000002020
8FB020BEE12020
8FB010CFF11020
8FB0005FF10030
8FFED73FFEDC30
6FFF701EFFC200
ENDCHAR
STARTCHAR Abreve
ENCODING 258
SWIDTH 830 0
DWIDTH 13 0
BBX 13 18 0 -2
BITMAP
00003330333100
001B3212520200
00CF5122220100
00FFE510120000
00DFF988887000
005E8000003200
002D3032310400
00AC020A120400
01F6023F611130
07F1107FB01040
0CC02000002030
3FB03333334020
6FB02000002020
8FB020BEE12020
8FB010CFF11020
8FB0005FF10020
8FFED73FFEDC20
6FFF701EFFC100
ENDCHAR
STARTCHAR abreve
ENCODING 259
SWIDTH 830 0
DWIDTH 13 0
BBX 13 18 0 -2
BITMAP
00003330333100
001B3212520200
00CF5122220100
00FFE510120000
00DFF988887000
005E8000003200
002D3032310400
00AC020A120400
01F6023F611130
07F1107FB01040
0CC02000002030
3FB03333334020
6FB02000002020
8FB020BEE12020
8FB010CFF11020
8FB0005FF10020
8FFED73FFEDC20
6FFF701EFFC100
ENDCHAR
STARTCHAR Aogonek
ENCODING 260
SWIDTH 830 0
DWIDTH 13 0
BBX 13 17 0 -5
BITMAP
00003333333000
00046000001100
002E1032310300
00AA020A120300
01F5023F611020
07F1107FB01030
0CC02000002020
3FB03333334020
6FB02000002020
8FB020BEE12020
8FB010CFF13020
8FB0005FE03020
8FFED73FC02340
6FFF705FB04020
0000007FE20020
0000007FFFEC30
0000002CFFC200
ENDCHAR
STARTCHAR aogonek
ENCODING 261
SWIDTH 830 0
DWIDTH 13 0
BBX 13 17 0 -5
BITMAP
00003333333000
00046000001100
002E1032310300
00AA020A120300
01F5023F611020
07F1107FB01030
0CC02000002020
3FB03333334020
6FB02000002020
8FB020BEE12020
8FB010CFF13020
8FB0005FE03020
8FFED73FC02340
6FFF705FB04020
0000007FE20020
0000007FFFEC30
0000002CFFC200
ENDCHAR
STARTCHAR Cacute
ENCODING 262
SWIDTH 728 0
DWIDTH 12 0
BBX 12 18 0 -2
BITMAP
000013577773
000294222202
004E70210002
00BF92357930
00BF94333332
00B600000002
008003322202
08C030000001
3FC0207FFF50
6FC0208ED500
7FC020200000
7FC020200000
7FC020222221
7FD020000002
6FF303322202
3FFD40000002
0BFFFFEDDD60
019DFFFFF600
ENDCHAR
STARTCHAR cacute
ENCODING 263
SWIDTH 728 0
DWIDTH 12 0
BBX 12 18 0 -2
BITMAP
000013577773
000294222202
004E70210002
00BF92357930
00BF94333332
00B600000002
008003322202
08C030000001
3FC0207FFF50
6FC0208ED500
7FC020200000
7FC020200000
7FC020222221
7FD020000002
6FF303322202
3FFD40000002
0BFFFFEDDD60
019DFFFFF600
ENDCHAR
STARTCHAR Ccircumflex
ENCODING 264
SWIDTH 728 0
DWIDTH 12 0
BBX 12 18 0 -2
BITMAP
000000232100
000101323220
002D00020020
01EF7AEFD950
03FF94333332
03F600000002
01A003322202
09C030000001
3FC0207FFF50
6FC0208ED500
7FC020200000
7FC020200000
7FC020222221
7FD020000002
6FF303322202
3FFD40000002
0BFFFFEDDD60
019DFFFFF600
ENDCHAR
STARTCHAR ccircumflex
ENCODING 265
SWIDTH 728 0
DWIDTH 12 0
BBX 12 18 0 -2
BITMAP
000000232100
000101323220
002D00020020
01EF7AEFD950
03FF94333332
03F600000002
01A003322202
09C030000001
3FC0207FFF50
6FC0208ED500
7FC020200000
7FC020200000
7FC020222221
7FD020000002
6FF303322202
3FFD40000002
0BFFFFEDDD60
019DFFFFF600
ENDCHAR
STARTCHAR Cdotaccent
ENCODING 266
SWIDTH 728 0
DWIDTH 12 0
BBX 12 18 0 -2
BITMAP
000002222200
00005A000200
0005FB020200
0008FC000000
000894333332
001300000002
02C003322202
0DC030000001
4FC0207FFF50
6FC0208ED500
7FC020200000
7FC020200000
7FC020222221
7FD020000002
6FF303322202
3FFD40000002
0AFFFFEDDD60
019DFFFFF600
ENDCHAR
STARTCHAR cdotaccent
ENCODING 267
SWIDTH 728 0
DWIDTH 12 0
BBX 12 18 0 -2
BITMAP
000002222200
00005A000200
0005FB020200
0008FC000000
000894333332
001300000002
02C003322202
0DC030000001
4FC0207FFF50
6FC0208ED500
7FC020200000
7FC020200000
7FC020222221
7FD020000002
6FF303322202
3FFD40000002
0AFFFFEDDD60
019DFFFFF600
ENDCHAR
STARTCHAR Ccaron
ENCODING 268
SWIDTH 728 0
DWIDTH 12 0
BBX 12 18 0 -2
BITMAP
0007C7000220
008F02433120
03FF01222020
03FFC7304400
02FF94333332
002400000002
01A003322202
0BC030000001
4FC0207FFF50
6FC0208ED500
7FC020200000
7FC020200000
7FC020222221
7FD020000002
6FF303322202
3FFD40000002
0BFFFFEDDD60
019DFFFFF600
ENDCHAR
STARTCHAR ccaron
ENCODING 269
SWIDTH 728 0
DWIDTH 12 0
BBX 12 18 0 -2
BITMAP
0007C7000220
008F02433120
03FF01222020
03FFC7304400
02FF94333332
002400000002
01A003322202
0BC030000001
4FC0207FFF50
6FC0208ED500
7FC020200000
7FC020200000
7FC020222221
7FD020000002
6FF303322202
3FFD40000002
0BFFFFEDDD60
019DFFFFF600
ENDCHAR
STARTCHAR Dcaron
ENCODING 270
SWIDTH 846 0
DWIDTH 14 0
BBX 13 18 0 -2
BITMAP
0003CA20013100
004E7043320200
00CF7022210200
00CFE951251000
00921111122300
06E00000000040
3FE02222221030
4FE02013203030
4FE0206FF31220
4FE0205FF41220
4FE0202FF41220
4FE0202FF31220
4FE02029811220
4FE02000003030
4FE02222221020
4FE00000001300
4FFEDDDDDE9000
3FFFFFFEC60000
ENDCHAR
STARTCHAR dcaron
ENCODING 271
SWIDTH 846 0
DWIDTH 14 0
BBX 13 18 0 -2
BITMAP
0003CA20013100
004E7043320200
00CF7022210200
00CFE951251000
00921111122300
06E00000000040
3FE02222221030
4FE02013203030
4FE0206FF31220
4FE0205FF41220
4FE0202FF41220
4FE0202FF31220
4FE02029811220
4FE02000003030
4FE02222221020
4FE00000001300
4FFEDDDDDE9000
3FFFFFFEC60000
ENDCHAR
STARTCHAR Dcroat
ENCODING 272
SWIDTH 856 0
DWIDTH 14 0
BBX 15 14 -1 -2
BITMAP
0004433333323100
005F200000000400
01FF212222220200
02FF220011021020
02FF2205FF502020
02F702016F602020
07F215311F602020
1FF402002F602020
1FFF2204EF502020
0BFF220133021110
02FF212222220300
02FF200000013100
02FFEDDDDDEB1000
01EFFFFFFD700000
ENDCHAR
STARTCHAR dcroat
ENCODING 273
SWIDTH 856 0
DWIDTH 14 0
BBX 15 14 -1 -2
BITMAP
0004433333323100
005F200000000400
01FF212222220200
02FF220011021020
02FF2205FF502020
02F702016F602020
07F215311F602020
1FF402002F602020
1FFF2204EF502020
0BFF220133021110
02FF212222220300
02FF200000013100
02FFEDDDDDEB1000
01EFFFFFFD700000
ENDCHAR
STARTCHAR Emacron
ENCODING 274
SWIDTH 754 0
DWIDTH 12 0
BBX 12 17 0 -2
BITMAP
000222222220
004C02222020
03FE00000000
05F333333333
05E000000003
2EE022222203
4FE020000002
4FE0207FFFB0
4FE020233330
4FE032222030
4FE0206CCA20
4FE020498322
4FE020000003
4FE022222203
4FE000000002
4FFEDDDDDDA1
3FFFFFFFFA10
ENDCHAR
STARTCHAR emacron
ENCODING 275
SWIDTH 754 0
DWIDTH 12 0
BBX 12 17 0 -2
BITMAP
000222222220
004C02222020
03FE00000000
05F333333333
05E000000003
2EE022222203
4FE020000002
4FE0207FFFB0
4FE020233330
4FE032222030
4FE0206CCA20
4FE020498322
4FE020000003
4FE022222203
4FE000000002
4FFEDDDDDDA1
3FFFFFFFFA10
ENDCHAR
STARTCHAR Ebreve
ENCODING 276
SWIDTH 754 0
DWIDTH 12 0
BBX 12 18 0 -2
BITMAP
000233204330
004D02052220
03FF12222110
04FFB3101100
02E333333333
04D000000003
3FE022222203
4FE020000002
4FE0207FFFB0
4FE020233330
4FE032222030
4FE0206CCA20
4FE020498322
4FE020000003
4FE022222203
4FE000000002
4FFEDDDDDDA1
3FFFFFFFFA10
ENDCHAR
STARTCHAR ebreve
ENCODING 277
SWIDTH 754 0
DWIDTH 12 0
BBX 12 18 0 -2
BITMAP
000233204330
004D02052220
03FF12222110
04FFB3101100
02E333333333
04D000000003
3FE022222203
4FE020000002
4FE0207FFFB0
4FE020233330
4FE032222030
4FE0206CCA20
4FE020498322
4FE020000003
4FE022222203
4FE000000002
4FFEDDDDDDA1
3FFFFFFFFA10
ENDCHAR
STARTCHAR Edotaccent
ENCODING 278
SWIDTH 754 0
DWIDTH 12 0
BBX 12 18 0 -2
BITMAP
000003223000
0002C3002100
000DF3022100
000FF4000000
006333333333
08E000000003
4FE022222203
4FE020000002
4FE0207FFFB0
4FE020233330
4FE032222030
4FE0206CCA20
4FE020498322
4FE020000003
4FE022222203
4FE000000002
4FFEDDDDDDA1
3FFFFFFFFA10
ENDCHAR
STARTCHAR edotaccent
ENCODING 279
SWIDTH 754 0
DWIDTH 12 0
BBX 12 18 0 -2
BITMAP
000003223000
0002C3002100
000DF3022100
000FF4000000
006333333333
08E000000003
4FE022222203
4FE020000002
4FE0207FFFB0
4FE020233330
4FE032222030
4FE0206CCA20
4FE020498322
4FE020000003
4FE022222203
4FE000000002
4FFEDDDDDDA1
3FFFFFFFFA10
ENDCHAR
STARTCHAR Eogonek
ENCODING 280
SWIDTH 754 0
DWIDTH 12 0
BBX 12 17 0 -5
BITMAP
006333333333
08E000000003
4FE022222203
4FE020000002
4FE0207FFFB0
4FE020233330
4FE032222030
4FE0206CCA20
4FE020498322
4FE020000003
4FE022222403
4FE000000201
4FFEDDD91143
3FFFFFF91303
000009FC1002
000009FFFEB1
000004DFFB10
ENDCHAR
STARTCHAR eogonek
ENCODING 281
SWIDTH 754 0
DWIDTH 12 0
BBX 12 17 0 -5
BITMAP
006333333333
08E000000003
4FE022222203
4FE020000002
4FE0207FFFB0
4FE020233330
4FE032222030
4FE0206CCA20
4FE020498322
4FE020000003
4FE022222403
4FE000000201
4FFEDDD91143
3FFFFFF91303
000009FC1002
000009FFFEB1
000004DFFB10
ENDCHAR
STARTCHAR Ecaron
ENCODING 282
SWIDTH 754 0
DWIDTH 12 0
BBX 12 18 0 -2
BITMAP
0007C7000220
009F02433120
03FF01222020
03FFC7314400
02D333333333
05D000000003
3FE022222203
4FE020000002
4FE0207FFFB0
4FE020233330
4FE032222030
4FE0206CCA20
4FE020498322
4FE020000003
4FE022222203
4FE000000002
4FFEDDDDDDA1
3FFFFFFFFA10
ENDCHAR
STARTCHAR ecaron
ENCODING 283
SWIDTH 754 0
DWIDTH 12 0
BBX 12 18 0 -2
BITMAP
0007C7000220
009F02433120
03FF01222020
03FFC7314400
02D333333333
05D000000003
3FE022222203
4FE020000002
4FE0207FFFB0
4FE020233330
4FE032222030
4FE0206CCA20
4FE020498322
4FE020000003
4FE022222203
4FE000000002
4FFEDDDDDDA1
3FFFFFFFFA10
ENDCHAR
STARTCHAR Gcircumflex
ENCODING 284
SWIDTH 808 0
DWIDTH 13 0
BBX 13 18 0 -2
BITMAP
00000012220000
00001023322200
00058010010200
006FB7BFEA6300
00AFA544444200
00970000000200
00800332220200
08C02000001000
3FC0207FFD2000
6FC02056842210
7FC02025A00030
7FC0206FA02030
7FC0206D902030
7FD03000002030
6FF30222222030
3FFD4000000020
0BFFFFEDDDD800
019DFFFFFF8000
ENDCHAR
STARTCHAR gcircumflex
ENCODING 285
SWIDTH 808 0
DWIDTH 13 0
BBX 13 18 0 -2
BITMAP
00000012220000
00001023322200
00058010010200
006FB7BFEA6300
00AFA544444200
00970000000200
00800332220200
08C02000001000
3FC0207FFD2000
6FC02056842210
7FC02025A00030
7FC0206FA02030
7FC0206D902030
7FD03000002030
6FF30222222030
3FFD4000000020
0BFFFFEDDDD800
019DFFFFFF8000
ENDCHAR
STARTCHAR Gbreve
ENCODING 286
SWIDTH 808 0
DWIDTH 13 0
BBX 13 18 0 -2
BITMAP
00003330333200
001A5202611200
00BF7122220100
00DFE610020000
00AF9433333200
00250000000200
01900332220200
0BC02000001000
4FC0207FFD2000
6FC02056842210
7FC02025A00030
7FC0206FA02030
7FC0206D902030
7FD03000002030
6FF30222222030
3FFD4000000020
0BFFFFEDDDD800
019DFFFFFF8000
ENDCHAR
STARTCHAR gbreve
ENCODING 287
SWIDTH 808 0
DWIDTH 13 0
BBX 13 18 0 -2
BITMAP
00003330333200
001A5202611200
00BF7122220100
00DFE610020000
00AF9433333200
00250000000200
01900332220200
0BC02000001000
4FC0207FFD2000
6FC02056842210
7FC02025A00030
7FC0206FA02030
7FC0206D902030
7FD03000002030
6FF30222222030
3FFD4000000020
0BFFFFEDDDD800
019DFFFFFF8000
ENDCHAR
STARTCHAR Gdotaccent
ENCODING 288
SWIDTH 808 0
DWIDTH 13 0
BBX 13 18 0 -2
BITMAP
00000132220000
00002D00020000
0002EF02020000
0003FF10000000
00039433333200
00120000000200
02C00332220200
0CC02000001000
4FC0207FFD2000
6FC02056842210
7FC02025A00030
7FC0206FA02030
7FC0206D902030
7FD03000002030
6FF30222222030
3FFD4000000020
0AFFFFEDDDD800
019DFFFFFF8000
ENDCHAR
STARTCHAR gdotaccent
ENCODING 289
SWIDTH 808 0
DWIDTH 13 0
BBX 13 18 0 -2
BITMAP
00000132220000
00002D00020000
0002EF02020000
0003FF10000000
00039433333200
00120000000200
02C00332220200
0CC02000001000
4FC0207FFD2000
6FC02056842210
7FC02025A00030
7FC0206FA02030
7FC0206D902030
7FD03000002030
6FF30222222030
3FFD4000000020
0AFFFFEDDDD800
019DFFFFFF8000
ENDCHAR
STARTCHAR Gcommaaccent
ENCODING 290
SWIDTH 808 0
DWIDTH 13 0
BBX 13 20 0 -8
BITMAP
00013333333200
00350332220200
04D02000000300
1EC0206EEEA100
5FC0209FF80000
7FC02020222210
7FC02025A00030
7FC0206FA02030
7FC0206D902030
7FD03100002030
6FF30222222030
3FFD4000000020
0BFFFEBAACD800
018DFF02258000
0002DF00220000
0004FFB8220000
0003FF33240000
0000CFB9920000
0001FFFB100000
00006750000000
ENDCHAR
STARTCHAR gcommaaccent
ENCODING 291
SWIDTH 808 0
DWIDTH 13 0
BBX 13 20 0 -8
BITMAP
00013333333200
00350332220200
04D02000000300
1EC0206EEEA100
5FC0209FF80000
7FC02020222210
7FC02025A00030
7FC0206FA02030
7FC0206D902030
7FD03100002030
6FF30222222030
3FFD4000000020
0BFFFEBAACD800
018DFF02258000
0002DF00220000
0004FFB8220000
0003FF33240000
0000CFB9920000
0001FFFB100000
00006750000000
ENDCHAR
STARTCHAR Hcircumflex
ENCODING 292
SWIDTH 859 0
DWIDTH 14 0
BBX 14 18 0 -2
BITMAP
00000022220000
00003122322200
001A8001100200
009FB8CFFB7200
00A3339FF73340
06E00039F40021
3FE0202DF40221
4FE0202FF40221
4FE02028920221
4FE02000000221
4FE03222223221
4FE02000000221
4FE0206FF40221
4FE0206FF40221
4FE0202FF40121
4FE0003FF40020
4FFEDC2FFEDD40
3FFFB10DFFD300
ENDCHAR
STARTCHAR hcircumflex
ENCODING 293
SWIDTH 859 0
DWIDTH 14 0
BBX 14 18 0 -2
BITMAP
00000022220000
00003122322200
001A8001100200
009FB8CFFB7200
00A3339FF73340
06E00039F40021
3FE0202DF40221
4FE0202FF40221
4FE02028920221
4FE02000000221
4FE03222223221
4FE02000000221
4FE0206FF40221
4FE0206FF40221
4FE0202FF40121
4FE0003FF40020
4FFEDC2FFEDD40
3FFFB10DFFD300
ENDCHAR
STARTCHAR Hbar
ENCODING 294
SWIDTH 879 0
DWIDTH 14 0
BBX 14 14 0 -2
BITMAP
00543340163332
07F20021B70002
2FC12025940203
5F514222222412
DF602001100203
EFF2205FF70204
DFF22013310202
3FF22000000202
2FF22333333302
2FF22000000202
2FF2205FF70202
2FF2005FF70002
2FFEDD5CFFDD60
1EFFD30AFFE500
ENDCHAR
STARTCHAR hbar
ENCODING 295
SWIDTH 879 0
DWIDTH 14 0
BBX 14 14 0 -2
BITMAP
00543340163332
07F20021B70002
2FC12025940203
5F514222222412
DF602001100203
EFF2205FF70204
DFF22013310202
3FF22000000202
2FF22333333302
2FF22000000202
2FF2205FF70202
2FF2005FF70002
2FFEDD5CFFDD60
1EFFD30AFFE500
ENDCHAR
STARTCHAR Itilde
ENCODING 296
SWIDTH 705 0
DWIDTH 11 0
BBX 11 18 0 -2
BITMAP
000122333410
003500000020
04E513331020
0DF645311000
0EC333333330
0DA000000020
4EB022322030
8FFDB0206C40
7FFFD0205300
016FD0202000
006FD0202000
006FD0202000
005970202220
04A000200020
4FA022322020
8FB000000020
8FFEDDDDDB10
6FFFFFFFC100
ENDCHAR
STARTCHAR itilde
ENCODING 297
SWIDTH 705 0
DWIDTH 11 0
BBX 11 18 0 -2
BITMAP
000122333410
003500000020
04E513331020
0DF645311000
0EC333333330
0DA000000020
4EB022322030
8FFDB0206C40
7FFFD0205300
016FD0202000
006FD0202000
006FD0202000
005970202220
04A000200020
4FA022322020
8FB000000020
8FFEDDDDDB10
6FFFFFFFC100
ENDCHAR
STARTCHAR Imacron
ENCODING 298
SWIDTH 705 0
DWIDTH 11 0
BBX 11 17 0 -2
BITMAP
000322222310
01A512221020
0BF600000110
0EEAAAAAAA80
0DA000000020
4EB022322020
8FFDB0206C40
7FFFD0205300
016FD0202000
006FD0202000
006FD0202000
005970202220
04A000200020
4FA022322020
8FB000000020
8FFEDDDDDB10
6FFFFFFFC100
ENDCHAR
STARTCHAR imacron
ENCODING 299
SWIDTH 705 0
DWIDTH 11 0
BBX 11 17 0 -2
BITMAP
000322222310
01A512221020
0BF600000110
0EEAAAAAAA80
0DA000000020
4EB022322020
8FFDB0206C40
7FFFD0205300
016FD0202000
006FD0202000
006FD0202000
005970202220
04A000200020
4FA022322020
8FB000000020
8FFEDDDDDB10
6FFFFFFFC100
ENDCHAR
STARTCHAR Ibreve
ENCODING 300
SWIDTH 705 0
DWIDTH 11 0
BBX 11 18 0 -2
BITMAP
000433033310
01C321252020
0DF512222010
0FFD51012000
0DC333333330
08A000000020
6FB022322030
8FFDB0206C40
7FFFD0205300
016FD0202000
006FD0202000
006FD0202000
005970202220
04A000200020
4FA022322020
8FB000000020
8FFEDDDDDB10
6FFFFFFFC100
ENDCHAR
STARTCHAR ibreve
ENCODING 301
SWIDTH 705 0
DWIDTH 11 0
BBX 11 18 0 -2
BITMAP
000433033310
01C321252020
0DF512222010
0FFD51012000
0DC333333330
08A000000020
6FB022322030
8FFDB0206C40
7FFFD0205300
016FD0202000
006FD0202000
006FD0202000
005970202220
04A000200020
4FA022322020
8FB000000020
8FFEDDDDDB10
6FFFFFFFC100
ENDCHAR
STARTCHAR Iogonek
ENCODING 302
SWIDTH 705 0
DWIDTH 11 0
BBX 11 17 0 -5
BITMAP
006333333330
1CA000000020
8FB022322020
8FFDB0206C30
7FFFD0205300
016FD0202000
006FD0202000
006FD0202000
005970202220
04A000200020
4FA022324020
8FB000003010
8FFEDDB02430
6FFFFFB04020
00007FE20020
00007FFFEC20
00002DFFC200
ENDCHAR
STARTCHAR iogonek
ENCODING 303
SWIDTH 705 0
DWIDTH 11 0
BBX 11 17 0 -5
BITMAP
006333333330
1CA000000020
8FB022322020
8FFDB0206C30
7FFFD0205300
016FD0202000
006FD0202000
006FD0202000
005970202220
04A000200020
4FA022324020
8FB000003010
8FFEDDB02430
6FFFFFB04020
00007FE20020
00007FFFEC20
00002DFFC200
ENDCHAR
STARTCHAR Idotaccent
ENCODING 304
SWIDTH 705 0
DWIDTH 11 0
BBX 11 18 0 -2
BITMAP
000023222000
0005C0002000
004FD0202000
006FE0000000
007333333330
1BA000000020
8FB022322030
8FFDB0206C40
7FFFD0205300
016FD0202000
006FD0202000
006FD0202000
005970202220
04A000200020
4FA022322020
8FB000000020
8FFEDDDDDB10
6FFFFFFFC100
ENDCHAR
STARTCHAR dotlessi
ENCODING 305
SWIDTH 705 0
DWIDTH 11 0
BBX 11 14 0 -2
BITMAP
007333333330
1CA000000020
8FB022322030
8FFDB0206C40
7FFFD0205300
016FD0202000
006FD0202000
006FD0202000
005970202220
04A000200020
4FA022322020
8FB000000020
8FFEDDDDDB10
6FFFFFFFC100
ENDCHAR
STARTCHAR IJ
ENCODING 306
SWIDTH 844 0
DWIDTH 14 0
BBX 13 14 0 -2
BITMAP
00633330343330
09E00023E10020
4FE0204EF12020
4FE0206FF12020
4FE0206FF12020
4FE0206FF12020
4FF1118FF12020
4FFFFA9FF12020
19BA7259602020
02C00000003030
2EE01222231020
4FE00000002300
4FFEDDDDDE7000
3FFFFFFEC40000
ENDCHAR
STARTCHAR ij
ENCODING 307
SWIDTH 844 0
DWIDTH 14 0
BBX 13 14 0 -2
BITMAP
00633330343330
09E00023E10020
4FE0204EF12020
4FE0206FF12020
4FE0206FF12020
4FE0206FF12020
4FF1118FF12020
4FFFFA9FF12020
19BA7259602020
02C00000003030
2EE01222231020
4FE00000002300
4FFEDDDDDE7000
3FFFFFFEC40000
ENDCHAR
STARTCHAR Jcircumflex
ENCODING 308
SWIDTH 788 0
DWIDTH 13 0
BBX 14 18 0 -2
BITMAP
00000000232100
00000032233221
00001A80000102
0000AFA7BFEA63
0000BFFF744760
0000677E200200
000001FF211200
000001FF211200
000001FF211200
003334FF211200
088001FF211200
8F8020FF211200
BF8020CD121200
BF903000030200
AFD00223310300
8FFC4100035100
1EFFFFEEF80000
029DFFEB400000
ENDCHAR
STARTCHAR jcircumflex
ENCODING 309
SWIDTH 788 0
DWIDTH 13 0
BBX 14 18 0 -2
BITMAP
00000000232100
00000032233221
00001A80000102
0000AFA7BFEA63
0000BFFF744760
0000677E200200
000001FF211200
000001FF211200
000001FF211200
003334FF211200
088001FF211200
8F8020FF211200
BF8020CD121200
BF903000030200
AFD00223310300
8FFC4100035100
1EFFFFEEF80000
029DFFEB400000
ENDCHAR
STARTCHAR Kcommaaccent
ENCODING 310
SWIDTH 846 0
DWIDTH 14 0
BBX 13 20 0 -8
BITMAP
00633330533340
08E0203B702020
4FE0206E130200
4FE02067030300
4FE02000300220
4FE03333432020
4FE02000002020
4FE0206EE21120
4FE0206FF31120
4FE0204FF31120
4FE0003FF30020
4FE0002FF40020
4FFEDB399BDC20
3FFFFE0225D200
0003FF00230000
0004FFB8230000
0004FF23240000
0000CFB9920000
0001FFFA100000
00007750000000
ENDCHAR
STARTCHAR kcommaaccent
ENCODING 311
SWIDTH 846 0
DWIDTH 14 0
BBX 13 20 0 -8
BITMAP
00633330533340
08E0203B702020
4FE0206E130200
4FE02067030300
4FE02000300220
4FE03333432020
4FE02000002020
4FE0206EE21120
4FE0206FF31120
4FE0204FF31120
4FE0003FF30020
4FE0002FF40020
4FFEDB399BDC20
3FFFFE0225D200
0003FF00230000
0004FFB8230000
0004FF23240000
0000CFB9920000
0001FFFA100000
00007750000000
ENDCHAR
STARTCHAR kgreenlandic
ENCODING 312
SWIDTH 846 0
DWIDTH 14 0
BBX 13 14 0 -2
BITMAP
00633330333340
08E00024800030
4FE0205E312210
4FE0206C030300
4FE02066030300
4FE02000300120
4FE03333432020
4FE02001102020
4FE0206FF21120
4FE0206FF31120
4FE0203FF31120
4FE0003FF30030
4FFEDC3FFEDD40
3FFFB10DFFD300
ENDCHAR
STARTCHAR Lacute
ENCODING 313
SWIDTH 795 0
DWIDTH 13 0
BBX 13 18 0 -2
BITMAP
00000011110000
00321100020000
05E01223030000
3FF23468A40000
4FF888CE400000
3FE00031000000
2EE02020000000
4FE02020000000
4FE02020000000
4FE02020233310
4FE02024B00030
4FE0205FC02030
4FE0206EA02030
4FE02000002030
4FE02222222030
4FE00000000030
4FFEDDDDDDD800
3FFFFFFFFF7000
ENDCHAR
STARTCHAR lacute
ENCODING 314
SWIDTH 795 0
DWIDTH 13 0
BBX 13 18 0 -2
BITMAP
00000011110000
00321100020000
05E01223030000
3FF23468A40000
4FF888CE400000
3FE00031000000
2EE02020000000
4FE02020000000
4FE02020000000
4FE02020233310
4FE02024B00030
4FE0205FC02030
4FE0206EA02030
4FE02000002030
4FE02222222030
4FE00000000030
4FFEDDDDDDD800
3FFFFFFFFF7000
ENDCHAR
STARTCHAR Lcommaaccent
ENCODING 315
SWIDTH 795 0
DWIDTH 13 0
BBX 13 20 0 -8
BITMAP
00633330000000
08E01020000000
4FE02020000000
4FE02020000000
4FE02020000000
4FE02020233310
4FE02024B00030
4FE0205FC02030
4FE0206EA02030
4FE02000002030
4FE02222222030
4FE00000000020
4FFDDDAAACD700
3FFFFC12177000
0003EC00230000
0006FFA6230000
0006FF13140000
0001EFA9910000
0003FFF9000000
00017740000000
ENDCHAR
STARTCHAR lcommaaccent
ENCODING 316
SWIDTH 795 0
DWIDTH 13 0
BBX 13 20 0 -8
BITMAP
00633330000000
08E01020000000
4FE02020000000
4FE02020000000
4FE02020000000
4FE02020233310
4FE02024B00030
4FE0205FC02030
4FE0206EA02030
4FE02000002030
4FE02222222030
4FE00000000020
4FFDDDAAACD700
3FFFFC12177000
0003EC00230000
0006FFA6230000
0006FF13140000
0001EFA9910000
0003FFF9000000
00017740000000
ENDCHAR
STARTCHAR Lcaron
ENCODING 317
SWIDTH 795 0
DWIDTH 13 0
BBX 13 14 0 -2
BITMAP
00633330633320
08E0103AA01110
4FE0206F702200
4FE0206F500200
4FE0206FA77200
4FE0206FE96310
4FE0204BC00030
4FE0205FC02030
4FE0206EA02030
4FE02000002030
4FE02222222030
4FE00000000030
4FFEDDDDDDD800
3FFFFFFFFF7000
ENDCHAR
STARTCHAR lcaron
ENCODING 318
SWIDTH 795 0
DWIDTH 13 0
BBX 13 14 0 -2
BITMAP
00633330633320
08E0103AA01110
4FE0206F702200
4FE0206F500200
4FE0206FA77200
4FE0206FE96310
4FE0204BC00030
4FE0205FC02030
4FE0206EA02030
4FE02000002030
4FE02222222030
4FE00000000030
4FFEDDDDDDD800
3FFFFFFFFF7000
ENDCHAR
STARTCHAR Ldot
ENCODING 319
SWIDTH 795 0
DWIDTH 13 0
BBX 13 14 0 -2
BITMAP
00633330000000
08E01020000000
4FE02020222210
4FE02024900020
4FE0205F902020
4FE0206F900020
4FE0206FD77510
4FE0206FE99410
4FE0204CC00030
4FE02013202030
4FE02222222030
4FE00000000030
4FFEDDDDDDDA10
3FFFFFFFFF8000
ENDCHAR
STARTCHAR ldot
ENCODING 320
SWIDTH 795 0
DWIDTH 13 0
BBX 13 14 0 -2
BITMAP
00633330000000
08E01020000000
4FE02020222210
4FE02024900020
4FE0205F902020
4FE0206F900020
4FE0206FD77510
4FE0206FE99410
4FE0204CC00030
4FE02013202030
4FE02222222030
4FE00000000030
4FFEDDDDDDDA10
3FFFFFFFFF8000
ENDCHAR
STARTCHAR Lslash
ENCODING 321
SWIDTH 805 0
DWIDTH 13 0
BBX 14 14 -1 -2
BITMAP
00044333000000
006F2102000000
01FF2202000000
02FF2202310000
02F80200030000
04F21532043332
0EF202028D0002
1FFC1204FE0202
1FFF2204ED0202
05FF2200000202
02FF2122222302
02FF2000000002
02FFEDDDDDDD91
01EFFFFFFFF900
ENDCHAR
STARTCHAR lslash
ENCODING 322
SWIDTH 805 0
DWIDTH 13 0
BBX 14 14 -1 -2
BITMAP
00044333000000
006F2102000000
01FF2202000000
02FF2202310000
02F80200030000
04F21532043332
0EF202028D0002
1FFC1204FE0202
1FFF2204ED0202
05FF2200000202
02FF2122222302
02FF2000000002
02FFEDDDDDDD91
01EFFFFFFFF900
ENDCHAR
STARTCHAR Nacute
ENCODING 323
SWIDTH 853 0
DWIDTH 14 0
BBX 13 18 0 -2
BITMAP
00000356777400
00019421220200
002DA022000200
008FB135795000
009334EFF73340
07E00036E40020
3FE03306F41220
4FE02120941220
4FE02022011220
4FE02002101220
4FE02030211220
4FE02088031220
4FE0208F504220
4FE0208FE21220
4FE0208FF41120
4FE0004FF40020
4FFEDB2FFEDC30
3FFFB10DFFD200
ENDCHAR
STARTCHAR nacute
ENCODING 324
SWIDTH 853 0
DWIDTH 14 0
BBX 13 18 0 -2
BITMAP
00000356777400
00019421220200
002DA022000200
008FB135795000
009334EFF73340
07E00036E40020
3FE03306F41220
4FE02120941220
4FE02022011220
4FE02002101220
4FE02030211220
4FE02088031220
4FE0208F504220
4FE0208FE21220
4FE0208FF41120
4FE0004FF40020
4FFEDB2FFEDC30
3FFFB10DFFD200
ENDCHAR
STARTCHAR Ncommaaccent
ENCODING 325
SWIDTH 853 0
DWIDTH 14 0
BBX 13 20 0 -8
BITMAP
00633330553340
08E0222AF41120
4FE02212E41220
4FE02021331220
4FE02003001220
4FE02010301220
4FE02074031220
4FE0208E204220
4FE0208FD12220
4FE0208FF41220
4FE0006FF40020
4FE0001FF40020
4FFEDA399BDC30
3FFFDE0224D200
0002FF00220000
0003FFB8230000
0003FF33240000
0000CFB9920000
0001FFFB100000
00006750000000
ENDCHAR
STARTCHAR ncommaaccent
ENCODING 326
SWIDTH 853 0
DWIDTH 14 0
BBX 13 20 0 -8
BITMAP
00633330553340
08E0222AF41120
4FE02212E41220
4FE02021331220
4FE02003001220
4FE02010301220
4FE02074031220
4FE0208E204220
4FE0208FD12220
4FE0208FF41220
4FE0006FF40020
4FE0001FF40020
4FFEDA399BDC30
3FFFDE0224D200
0002FF00220000
0003FFB8230000
0003FF33240000
0000CFB9920000
0001FFFB100000
00006750000000
ENDCHAR
STARTCHAR Ncaron
ENCODING 327
SWIDTH 853 0
DWIDTH 14 0
BBX 13 19 0 -2
BITMAP
00001000000000
0005DA20013100
007F5143320200
00DF5022210200
00DFE940375000
00A334EFF93340
07E00036E40020
3FE03306F41220
4FE02120941220
4FE02022011220
4FE02002101220
4FE02030211220
4FE02088031220
4FE0208F504220
4FE0208FE21220
4FE0208FF41120
4FE0004FF40020
4FFEDB2FFEDC30
3FFFB10DFFD200
ENDCHAR
STARTCHAR ncaron
ENCODING 328
SWIDTH 853 0
DWIDTH 14 0
BBX 13 19 0 -2
BITMAP
00001000000000
0005DA20013100
007F5143320200
00DF5022210200
00DFE940375000
00A334EFF93340
07E00036E40020
3FE03306F41220
4FE02120941220
4FE02022011220
4FE02002101220
4FE02030211220
4FE02088031220
4FE0208F504220
4FE0208FE21220
4FE0208FF41120
4FE0004FF40020
4FFEDB2FFEDC30
3FFFB10DFFD200
ENDCHAR
STARTCHAR napostrophe
ENCODING 329
SWIDTH 853 0
DWIDTH 14 0
BBX 13 20 0 -2
BITMAP
00222220000000
04A00020000000
4FB13220000000
7FC00220000000
7FFA6210000000
5EE13100000000
3FF98830298880
3FE00042D40020
2EE03308F41220
4FE02120A41220
4FE02022121220
4FE02002101220
4FE02030211220
4FE02088031220
4FE0208F504220
4FE0208FE21220
4FE0208FF41120
4FE0004FF40020
4FFEDB2FFEDC30
3FFFB10DFFD200
ENDCHAR
STARTCHAR Eng
ENCODING 330
SWIDTH 846 0
DWIDTH 14 0
BBX 13 16 0 -4
BITMAP
00013333333200
00250122230130
03D01200003020
1ED0206FD03020
4FD0208FF12020
5FD0205FF12020
5FD0204FF12020
5FD0204FF12020
5FD0204FF12020
5FD0204FF12020
5FD0104A102020
5FD00088001030
5FFEDDF8051230
4FFFABFC789300
00000AFFFC2000
00000377400000
ENDCHAR
STARTCHAR eng
ENCODING 331
SWIDTH 846 0
DWIDTH 14 0
BBX 13 16 0 -4
BITMAP
00013333333200
00250122230130
03D01200003020
1ED0206FD03020
4FD0208FF12020
5FD0205FF12020
5FD0204FF12020
5FD0204FF12020
5FD0204FF12020
5FD0204FF12020
5FD0104A102020
5FD00088001030
5FFEDDF8051230
4FFFABFC789300
00000AFFFC2000
00000377400000
ENDCHAR
STARTCHAR Omacron
ENCODING 332
SWIDTH 837 0
DWIDTH 13 0
BBX 13 18 0 -2
BITMAP
00003222222000
00096000000200
009F6022210200
00DF7000001200
00DFD976788100
00990222220220
07E02100003030
3FC0205CB02020
6FC0209FF12020
7FC0206FF12020
7FC0204FF12020
7FC0204FF12020
7FC0204FD02020
7FD02100003030
6FF30222230030
3FFE6200014500
0AFFFFFEEF7000
006BEFFDA30000
ENDCHAR
STARTCHAR omacron
ENCODING 333
SWIDTH 837 0
DWIDTH 13 0
BBX 13 18 0 -2
BITMAP
00003222222000
00096000000200
009F6022210200
00DF7000001200
00DFD976788100
00990222220220
07E02100003030
3FC0205CB02020
6FC0209FF12020
7FC0206FF12020
7FC0204FF12020
7FC0204FF12020
7FC0204FD02020
7FD02100003030
6FF30222230030
3FFE6200014500
0AFFFFFEEF7000
006BEFFDA30000
ENDCHAR
STARTCHAR Obreve
ENCODING 334
SWIDTH 837 0
DWIDTH 13 0
BBX 13 18 0 -2
BITMAP
00004330333100
002C4212510200
00DF6122220200
00EFE510134000
009FC865563200
00470222220220
06E02100003030
2FC0205CB02020
6FC0209FF12020
7FC0206FF12020
7FC0204FF12020
7FC0204FF12020
7FC0204FD02020
7FD02100003030
6FF30222230030
3FFE6200014500
0AFFFFFEEF7000
006BEFFDA30000
ENDCHAR
STARTCHAR obreve
ENCODING 335
SWIDTH 837 0
DWIDTH 13 0
BBX 13 18 0 -2
BITMAP
00004330333100
002C4212510200
00DF6122220200
00EFE510134000
009FC865563200
00470222220220
06E02100003030
2FC0205CB02020
6FC0209FF12020
7FC0206FF12020
7FC0204FF12020
7FC0204FF12020
7FC0204FD02020
7FD02100003030
6FF30222230030
3FFE6200014500
0AFFFFFEEF7000
006BEFFDA30000
ENDCHAR
STARTCHAR Ohungarumlaut
ENCODING 336
SWIDTH 837 0
DWIDTH 13 0
BBX 13 19 0 -2
BITMAP
00001323032210
0003C003B20110
002EB027D03200
006F710B901200
00AF401F700200
00EFD976788100
00A90222220220
07E02100003030
3FC0205CB02020
6FC0209FF12020
7FC0206FF12020
7FC0204FF12020
7FC0204FF12020
7FC0204FD02020
7FD02100003030
6FF30222230030
3FFE6200014500
0AFFFFFEEF7000
006BEFFDA30000
ENDCHAR
STARTCHAR ohungarumlaut
ENCODING 337
SWIDTH 837 0
DWIDTH 13 0
BBX 13 19 0 -2
BITMAP
00001323032210
0003C003B20110
002EB027D03200
006F710B901200
00AF401F700200
00EFD976788100
00A90222220220
07E02100003030
3FC0205CB02020
6FC0209FF12020
7FC0206FF12020
7FC0204FF12020
7FC0204FF12020
7FC0204FD02020
7FD02100003030
6FF30222230030
3FFE6200014500
0AFFFFFEEF7000
006BEFFDA30000
ENDCHAR
STARTCHAR OE
ENCODING 338
SWIDTH 1115 0
DWIDTH 18 0
BBX 18 14 0 -2
BITMAP
000133333333333332
003500000000000002
05D002222232222202
2FC0217EC020000012
5FC0209FD0207FFF70
7FC0209FD020233420
7FC0209FD032221020
7FC0209FD0206CC910
7FC020498020497221
7FD030000020000002
6FF302222232222202
3FFD40000000000002
0BFFFFEDDDDDDDDD80
019DFFFFFFFFFFF800
ENDCHAR
STARTCHAR oe
ENCODING 339
SWIDTH 1115 0
DWIDTH 18 0
BBX 18 14 0 -2
BITMAP
000133333333333332
003500000000000002
05D002222232222202
2FC0217EC020000012
5FC0209FD0207FFF70
7FC0209FD020233420
7FC0209FD032221020
7FC0209FD0206CC910
7FC020498020497221
7FD030000020000002
6FF302222232222202
3FFD40000000000002
0BFFFFEDDDDDDDDD80
019DFFFFFFFFFFF800
ENDCHAR
STARTCHAR Racute
ENCODING 340
SWIDTH 843 0
DWIDTH 13 0
BBX 14 18 0 -2
BITMAP
00000012223000
00014220001200
003D4122311200
00EF5246896000
00F88888872000
01E00000000300
2DE02222220110
4FE0207F521020
4FE0207F602210
4FE02001021320
4FE03222242030
4FE02000001202
4FE0206EE40202
4FE0207FF60202
4FE0103DF60102
4FE0002CF70002
4FFEDB1CFFDD50
3FFFB10AFFE500
ENDCHAR
STARTCHAR racute
ENCODING 341
SWIDTH 843 0
DWIDTH 13 0
BBX 14 18 0 -2
BITMAP
00000012223000
00014220001200
003D4122311200
00EF5246896000
00F88888872000
01E00000000300
2DE02222220110
4FE0207F521020
4FE0207F602210
4FE02001021320
4FE03222242030
4FE02000001202
4FE0206EE40202
4FE0207FF60202
4FE0103DF60102
4FE0002CF70002
4FFEDB1CFFDD50
3FFFB10AFFE500
ENDCHAR
STARTCHAR Rcommaaccent
ENCODING 342
SWIDTH 843 0
DWIDTH 13 0
BBX 14 20 0 -8
BITMAP
00633333333200
08E02222220300
4FE02000020120
4FE0207F502020
4FE0207F602200
4FE02001021320
4FE03222342030
4FE02000001202
4FE0207FF50202
4FE0206FF60202
4FE0102DF60102
4FE0002CF70002
4FFEDB479BDD50
3FFFEE1223E500
0001EF10220000
0002FFB9330000
0002FF43240000
0000BFB9930000
0000EFFC200000
00006750000000
ENDCHAR
STARTCHAR rcommaaccent
ENCODING 343
SWIDTH 843 0
DWIDTH 13 0
BBX 14 20 0 -8
BITMAP
00633333333200
08E02222220300
4FE02000020120
4FE0207F502020
4FE0207F602200
4FE02001021320
4FE03222342030
4FE02000001202
4FE0207FF50202
4FE0206FF60202
4FE0102DF60102
4FE0002CF70002
4FFEDB479BDD50
3FFFEE1223E500
0001EF10220000
0002FFB9330000
0002FF43240000
0000BFB9930000
0000EFFC200000
00006750000000
ENDCHAR
STARTCHAR Rcaron
ENCODING 344
SWIDTH 843 0
DWIDTH 13 0
BBX 14 18 0 -2
BITMAP
0002B920013100
003E6043320200
00CF7022210200
00CFE951276000
00BBAAAAA83000
02B00000000400
2EE02222220210
4FE0207F521020
4FE0207F602210
4FE02001021320
4FE03222242030
4FE02000001202
4FE0206EE40202
4FE0207FF60202
4FE0103DF60102
4FE0002CF70002
4FFEDB1CFFDD50
3FFFB10AFFE500
ENDCHAR
STARTCHAR rcaron
ENCODING 345
SWIDTH 843 0
DWIDTH 13 0
BBX 14 18 0 -2
BITMAP
0002B920013100
003E6043320200
00CF7022210200
00CFE951276000
00BBAAAAA83000
02B00000000400
2EE02222220210
4FE0207F521020
4FE0207F602210
4FE02001021320
4FE03222242030
4FE02000001202
4FE0206EE40202
4FE0207FF60202
4FE0103DF60102
4FE0002CF70002
4FFEDB1CFFDD50
3FFFB10AFFE500
ENDCHAR
STARTCHAR Sacute
ENCODING 346
SWIDTH 750 0
DWIDTH 12 0
BBX 12 18 0 -2
BITMAP
000024677750
000953123020
01CD02200020
06FD13568600
06FE74333331
05F200000002
01A012222102
1CA020477751
6FA02059BC10
8FB030000031
8FF202222003
7FFE95310303
2EFFFFFD0203
03A000000302
2DA022222103
8FA000000140
8FFEDDDDE900
7FFFFFEC5000
ENDCHAR
STARTCHAR sacute
ENCODING 347
SWIDTH 750 0
DWIDTH 12 0
BBX 12 18 0 -2
BITMAP
000024677750
000953123020
01CD02200020
06FD13568600
06FE74333331
05F200000002
01A012222102
1CA020477751
6FA02059BC10
8FB030000031
8FF202222003
7FFE95310303
2EFFFFFD0203
03A000000302
2DA022222103
8FA000000140
8FFEDDDDE900
7FFFFFEC5000
ENDCHAR
STARTCHAR Scircumflex
ENCODING 348
SWIDTH 750 0
DWIDTH 12 0
BBX 12 18 0 -2
BITMAP
000001232000
000102322220
005A00110020
05FC7CFFC830
08FE74333331
08F200000002
039012222102
1DA020477751
6FA02059BC10
8FB030000031
8FF202222003
7FFE95310303
2EFFFFFD0203
03A000000302
2DA022222103
8FA000000140
8FFEDDDDE900
7FFFFFEC5000
ENDCHAR
STARTCHAR scircumflex
ENCODING 349
SWIDTH 750 0
DWIDTH 12 0
BBX 12 18 0 -2
BITMAP
000001232000
000102322220
005A00110020
05FC7CFFC830
08FE74333331
08F200000002
039012222102
1DA020477751
6FA02059BC10
8FB030000031
8FF202222003
7FFE95310303
2EFFFFFD0203
03A000000302
2DA022222103
8FA000000140
8FFEDDDDE900
7FFFFFEC5000
ENDCHAR
STARTCHAR Scedilla
ENCODING 350
SWIDTH 750 0
DWIDTH 12 0
BBX 12 16 0 -4
BITMAP
000222333331
006200000002
07B012222102
3FA020477751
7FA02059BC10
8FB030000031
8FF202222003
7FFE95310303
1EFFFFFD0203
03A000000302
2DA022232102
8FB000020140
8FFEE2109900
7FFFC0015000
003FFEE50000
006FFE400000
ENDCHAR
STARTCHAR scedilla
ENCODING 351
SWIDTH 750 0
DWIDTH 12 0
BBX 12 16 0 -4
BITMAP
000222333331
006200000002
07B012222102
3FA020477751
7FA02059BC10
8FB030000031
8FF202222003
7FFE95310303
1EFFFFFD0203
03A000000302
2DA022232102
8FB000020140
8FFEE2109900
7FFFC0015000
003FFEE50000
006FFE400000
ENDCHAR
STARTCHAR Scaron
ENCODING 352
SWIDTH 750 0
DWIDTH 12 0
BBX 12 18 0 -2
BITMAP
0009B5000220
00AD02433020
05FD01222020
06FFC7215300
04FE74333331
003200000002
03A012222102
2EA020477751
7FA02059BC10
8FB030000031
8FF202222003
7FFE95310303
2EFFFFFD0203
03A000000302
2DA022222103
8FA000000140
8FFEDDDDE900
7FFFFFEC5000
ENDCHAR
STARTCHAR scaron
ENCODING 353
SWIDTH 750 0
DWIDTH 12 0
BBX 12 18 0 -2
BITMAP
0009B5000220
00AD02433020
05FD01222020
06FFC7215300
04FE74333331
003200000002
03A012222102
2EA020477751
7FA02059BC10
8FB030000031
8FF202222003
7FFE95310303
2EFFFFFD0203
03A000000302
2DA022222103
8FA000000140
8FFEDDDDE900
7FFFFFEC5000
ENDCHAR
STARTCHAR Tcommaaccent
ENCODING 354
SWIDTH 756 0
DWIDTH 12 0
BBX 13 20 0 -8
BITMAP
03533333333400
5E412223221210
EF500002000200
EFFEE3021EE600
CFFFF3021E4000
000FF302120000
000FF302120000
000FF302120000
000FF302120000
000FF302120000
000FF301120000
000FF400110000
000FFDAA700000
000DF422110000
000BF402120000
000FFC94120000
000EF622400000
0008FC9A400000
000CFFD3000000
00047610000000
ENDCHAR
STARTCHAR tcommaaccent
ENCODING 355
SWIDTH 756 0
DWIDTH 12 0
BBX 13 20 0 -8
BITMAP
03533333333400
5E412223221210
EF500002000200
EFFEE3021EE600
CFFFF3021E4000
000FF302120000
000FF302120000
000FF302120000
000FF302120000
000FF302120000
000FF301120000
000FF400110000
000FFDAA700000
000DF422110000
000BF402120000
000FFC94120000
000EF622400000
0008FC9A400000
000CFFD3000000
00047610000000
ENDCHAR
STARTCHAR Tcaron
ENCODING 356
SWIDTH 756 0
DWIDTH 12 0
BBX 13 18 0 -2
BITMAP
001AB500022000
01CB0343302000
07FB0222202000
07FFB621530000
05833333333400
1C400000000210
CF412223221210
EF600002000200
EFFFF3021FD200
BEEFF3021C2000
000FF302120000
000FF302120000
000FF302120000
000FF302120000
000FF302120000
000FF400120000
000FFEDD700000
000DFFE5000000
ENDCHAR
STARTCHAR tcaron
ENCODING 357
SWIDTH 756 0
DWIDTH 12 0
BBX 13 18 0 -2
BITMAP
001AB500022000
01CB0343302000
07FB0222202000
07FFB621530000
05833333333400
1C400000000210
CF412223221210
EF600002000200
EFFFF3021FD200
BEEFF3021C2000
000FF302120000
000FF302120000
000FF302120000
000FF302120000
000FF302120000
000FF400120000
000FFEDD700000
000DFFE5000000
ENDCHAR
STARTCHAR Tbar
ENCODING 358
SWIDTH 756 0
DWIDTH 12 0
BBX 13 14 0 -2
BITMAP
02533333333400
3E400000000210
DF412223221210
EFA77102077400
EFFFF3021F9000
577C9202082000
00760002002000
08F60335312000
0CF93102033000
0CFFF3021A1000
059FF302120000
000FF400120000
000FFEDD600000
000DFFE5000000
ENDCHAR
STARTCHAR tbar
ENCODING 359
SWIDTH 756 0
DWIDTH 12 0
BBX 13 14 0 -2
BITMAP
02533333333400
3E400000000210
DF412223221210
EFA77102077400
EFFFF3021F9000
577C9202082000
00760002002000
08F60335312000
0CF93102033000
0CFFF3021A1000
059FF302120000
000FF400120000
000FFEDD600000
000DFFE5000000
ENDCHAR
STARTCHAR Utilde
ENCODING 360
SWIDTH 846 0
DWIDTH 14 0
BBX 13 18 0 -2
BITMAP
00001223334100
00036000000200
005F7033320200
00CF8454100000
00B333AFF63330
09D0105DF31020
5FD0203FF32120
5FD0203FF32120
5FD0203FF32120
5FD0203FF32120
5FD0203FF32120
5FD0203FF32120
5FD0202DC12020
5FF01200003020
4FF40122230030
2FFE7200014400
09FFFFFEEF7000
005BEFFDA30000
ENDCHAR
STARTCHAR utilde
ENCODING 361
SWIDTH 846 0
DWIDTH 14 0
BBX 13 18 0 -2
BITMAP
00001223334100
00036000000200
005F7033320200
00CF8454100000
00B333AFF63330
09D0105DF31020
5FD0203FF32120
5FD0203FF32120
5FD0203FF32120
5FD0203FF32120
5FD0203FF32120
5FD0203FF32120
5FD0202DC12020
5FF01200003020
4FF40122230030
2FFE7200014400
09FFFFFEEF7000
005BEFFDA30000
ENDCHAR
STARTCHAR Umacron
ENCODING 362
SWIDTH 846 0
DWIDTH 14 0
BBX 13 18 0 -2
BITMAP
00003222222100
00067000000200
005F7022220200
00CF8000001000
00CAAADFFCAA90
03C0006EF30020
3FD0203DF32120
5FD0203FF32120
5FD0203FF32120
5FD0203FF32120
5FD0203FF32120
5FD0203FF32120
5FD0203ED12020
5FE01200003020
5FF40122231030
2FFE7200014400
09FFFFFEEF7000
006BEFFDA30000
ENDCHAR
STARTCHAR umacron
ENCODING 363
SWIDTH 846 0
DWIDTH 14 0
BBX 13 18 0 -2
BITMAP
00003222222100
00067000000200
005F7022220200
00CF8000001000
00CAAADFFCAA90
03C0006EF30020
3FD0203DF32120
5FD0203FF32120
5FD0203FF32120
5FD0203FF32120
5FD0203FF32120
5FD0203FF32120
5FD0203ED12020
5FE01200003020
5FF40122231030
2FFE7200014400
09FFFFFEEF7000
006BEFFDA30000
ENDCHAR
STARTCHAR Ubreve
ENCODING 364
SWIDTH 846 0
DWIDTH 14 0
BBX 13 18 0 -2
BITMAP
00004330333200
001B5202611200
00CF7122220100
00DFE610020000
009333AFF63330
08D0006DF30020
5FD0203DF32120
5FD0203FF32120
5FD0203FF32120
5FD0203FF32120
5FD0203FF32120
5FD0203FF32120
5FD0202ED12020
5FF01200003020
4FF40122231030
2FFE7200014400
09FFFFFEEF7000
005BEFFDA30000
ENDCHAR
STARTCHAR ubreve
ENCODING 365
SWIDTH 846 0
DWIDTH 14 0
BBX 13 18 0 -2
BITMAP
00004330333200
001B5202611200
00CF7122220100
00DFE610020000
009333AFF63330
08D0006DF30020
5FD0203DF32120
5FD0203FF32120
5FD0203FF32120
5FD0203FF32120
5FD0203FF32120
5FD0203FF32120
5FD0202ED12020
5FF01200003020
4FF40122231030
2FFE7200014400
09FFFFFEEF7000
005BEFFDA30000
ENDCHAR
STARTCHAR Uring
ENCODING 366
SWIDTH 846 0
DWIDTH 14 0
BBX 13 21 0 -2
BITMAP
00000233331000
00006122223200
001B6300020300
009F531EA11200
00DF531D920200
00DF8032220100
00DFF620021000
009333AFF63330
09D0105BF31020
5FD0203FF32120
5FD0203FF32120
5FD0203FF32120
5FD0203FF32120
5FD0203FF32120
5FD0203FF32120
5FD0203FF22020
5FF01203203020
4FF40122231030
2FFE7200014400
09FFFFFEEF7000
005BEFFDA30000
ENDCHAR
STARTCHAR uring
ENCODING 367
SWIDTH 846 0
DWIDTH 14 0
BBX 13 21 0 -2
BITMAP
00000233331000
00006122223200
001B6300020300
009F531EA11200
00DF531D920200
00DF8032220100
00DFF620021000
009333AFF63330
09D0105BF31020
5FD0203FF32120
5FD0203FF32120
5FD0203FF32120
5FD0203FF32120
5FD0203FF32120
5FD0203FF32120
5FD0203FF22020
5FF01203203020
4FF40122231030
2FFE7200014400
09FFFFFEEF7000
005BEFFDA30000
ENDCHAR
STARTCHAR Uhungarumlaut
ENCODING 368
SWIDTH 846 0
DWIDTH 14 0
BBX 13 19 0 -2
BITMAP
00000323132210
0001B201B40020
000DD035F13200
003F9019B01100
007F700D900000
00BAAADFFCAA90
03C0006EF30020
3FD0203DF32120
5FD0203FF32120
5FD0203FF32120
5FD0203FF32120
5FD0203FF32120
5FD0203FF32120
5FD0203ED12020
5FE01200003020
5FF40122231030
2FFE7200014400
09FFFFFEEF7000
006BEFFDA30000
ENDCHAR
STARTCHAR uhungarumlaut
ENCODING 369
SWIDTH 846 0
DWIDTH 14 0
BBX 13 19 0 -2
BITMAP
00000323132210
0001B201B40020
000DD035F13200
003F9019B01100
007F700D900000
00BAAADFFCAA90
03C0006EF30020
3FD0203DF32120
5FD0203FF32120
5FD0203FF32120
5FD0203FF32120
5FD0203FF32120
5FD0203FF32120
5FD0203ED12020
5FE01200003020
5FF40122231030
2FFE7200014400
09FFFFFEEF7000
006BEFFDA30000
ENDCHAR
STARTCHAR Uogonek
ENCODING 370
SWIDTH 846 0
DWIDTH 14 0
BBX 13 17 0 -5
BITMAP
00633330343330
09D01025F31020
5FD0203FF32120
5FD0203FF32120
5FD0203FF32120
5FD0203FF32120
5FD0203FF32120
5FD0203FF32120
5FD0202DC12020
5FE01200003020
5FF40123330020
2FFE6102002400
0AFFFF530C8000
018EFF43203000
0000EF80002000
0000FFFFE90000
00008EFF800000
ENDCHAR
STARTCHAR uogonek
ENCODING 371
SWIDTH 846 0
DWIDTH 14 0
BBX 13 17 0 -5
BITMAP
00633330343330
09D01025F31020
5FD0203FF32120
5FD0203FF32120
5FD0203FF32120
5FD0203FF32120
5FD0203FF32120
5FD0203FF32120
5FD0202DC12020
5FE01200003020
5FF40123330020
2FFE6102002400
0AFFFF530C8000
018EFF43203000
0000EF80002000
0000FFFFE90000
00008EFF800000
ENDCHAR
STARTCHAR Wcircumflex
ENCODING 372
SWIDTH 931 0
DWIDTH 15 0
BBX 15 18 0 -2
BITMAP
0000001332100000
0000232323230000
0006E20010020000
001FF79EFE960000
008333AFFFC33320
1BC000227FA01030
6FC020207FA03030
6FC020209FA03030
6FC020236CA03030
6FC0208201903030
6FC0203121303030
6FC0200202003030
6FE0201131103020
6FF32131E1312200
4FF80315F4130200
0EFD0009F9000200
09FFED9DFFED5000
03EFF808FFE40000
ENDCHAR
STARTCHAR wcircumflex
ENCODING 373
SWIDTH 931 0
DWIDTH 15 0
BBX 15 18 0 -2
BITMAP
0000001332100000
0000232323230000
0006E20010020000
001FF79EFE960000
008333AFFFC33320
1BC000227FA01030
6FC020207FA03030
6FC020209FA03030
6FC020236CA03030
6FC0208201903030
6FC0203121303030
6FC0200202003030
6FE0201131103020
6FF32131E1312200
4FF80315F4130200
0EFD0009F9000200
09FFED9DFFED5000
03EFF808FFE40000
ENDCHAR
STARTCHAR Ycircumflex
ENCODING 374
SWIDTH 805 0
DWIDTH 13 0
BBX 13 18 0 -2
BITMAP
00000133310000
00015332335000
004E2100012000
01FF2279621000
02B323EFE32330
1C80104CD01020
9F80307FD02020
AF80308FD02020
AF90308FA03020
AFD1122E221120
9FF90210120300
4FFF5024202000
09FFE202011000
01DFF902020000
003FF901020000
0009FA00020000
0009FFDD910000
0007FFF9000000
ENDCHAR
STARTCHAR ycircumflex
ENCODING 375
SWIDTH 805 0
DWIDTH 13 0
BBX 13 18 0 -2
BITMAP
00000133310000
00015332335000
004E2100012000
01FF2279621000
02B323EFE32330
1C80104CD01020
9F80307FD02020
AF80308FD02020
AF90308FA03020
AFD1122E221120
9FF90210120300
4FFF5024202000
09FFE202011000
01DFF902020000
003FF901020000
0009FA00020000
0009FFDD910000
0007FFF9000000
ENDCHAR
STARTCHAR Ydieresis
ENCODING 376
SWIDTH 805 0
DWIDTH 13 0
BBX 13 18 0 -2
BITMAP
00022232222100
005B000C000200
05FB020D020200
08FC001E001100
07EAAAFFFAAA50
1B9000BED00020
9F80306FD02020
AF80308FD02020
AF90307F803020
AFC01208121010
9FF70210120100
4FFF4024201000
09FFE202011000
01DFF902020000
003FF901020000
0009FA00020000
0009FFDD910000
0007FFF9000000
ENDCHAR
STARTCHAR Zacute
ENCODING 377
SWIDTH 760 0
DWIDTH 12 0
BBX 12 18 0 -2
BITMAP
000024677760
000853123020
01BE01200020
04FE13468700
04E333333333
08D000000002
4FD022222202
5FE100000302
5FFFFF603031
3DEEF9021210
000290111200
001A11212000
00A203032222
099030000003
6F9022222203
AF9000000002
AFFDDDDDDDB1
8FFFFFFFFC10
ENDCHAR
STARTCHAR zacute
ENCODING 378
SWIDTH 760 0
DWIDTH 12 0
BBX 12 18 0 -2
BITMAP
000024677760
000853123020
01BE01200020
04FE13468700
04E333333333
08D000000002
4FD022222202
5FE100000302
5FFFFF603031
3DEEF9021210
000290111200
001A11212000
00A203032222
099030000003
6F9022222203
AF9000000002
AFFDDDDDDDB1
8FFFFFFFFC10
ENDCHAR
STARTCHAR Zdotaccent
ENCODING 379
SWIDTH 760 0
DWIDTH 12 0
BBX 12 18 0 -2
BITMAP
000003223000
0001B5001200
000CF4020200
000EF6001100
005333333333
07D000000002
4FD022222202
5FE100000302
5FFFFF603031
3DEEF9021210
000290111200
001A11212000
00A203032222
099030000003
6F9022222203
AF9000000002
AFFDDDDDDDB1
8FFFFFFFFC10
ENDCHAR
STARTCHAR zdotaccent
ENCODING 380
SWIDTH 760 0
DWIDTH 12 0
BBX 12 18 0 -2
BITMAP
000003223000
0001B5001200
000CF4020200
000EF6001100
005333333333
07D000000002
4FD022222202
5FE100000302
5FFFFF603031
3DEEF9021210
000290111200
001A11212000
00A203032222
099030000003
6F9022222203
AF9000000002
AFFDDDDDDDB1
8FFFFFFFFC10
ENDCHAR
STARTCHAR Zcaron
ENCODING 381
SWIDTH 760 0
DWIDTH 12 0
BBX 12 18 0 -2
BITMAP
001AB5000220
01CC03433020
07FC01222020
07FFB6215300
04E333333333
05C000000002
3FD022222202
5FE100000302
5FFFFF603031
3EEEF9021210
000290111200
001A11212000
00A203032222
099030000003
6F9022222203
AF9000000002
AFFDDDDDDDB1
8FFFFFFFFC10
ENDCHAR
STARTCHAR zcaron
ENCODING 382
SWIDTH 760 0
DWIDTH 12 0
BBX 12 18 0 -2
BITMAP
001AB5000220
01CC03433020
07FC01222020
07FFB6215300
04E333333333
05C000000002
3FD022222202
5FE100000302
5FFFFF603031
3EEEF9021210
000290111200
001A11212000
00A203032222
099030000003
6F9022222203
AF9000000002
AFFDDDDDDDB1
8FFFFFFFFC10
ENDCHAR
STARTCHAR Schwa
ENCODING 399
SWIDTH 815 0
DWIDTH 13 0
BBX 13 14 0 -2
BITMAP
00063333332200
009E0222330220
04FE2222103030
04FFFFFFE03020
04D44444402020
05A00000002020
5FA03333334020
8FA02012202020
8FA020AFE02020
8FC03014202020
8FF30322220120
6FFE6200014300
1EFFFFFEEE4000
028CEFED920000
ENDCHAR
STARTCHAR florin
ENCODING 402
SWIDTH 674 0
DWIDTH 11 0
BBX 11 14 0 -2
BITMAP
000002233320
000043000030
0006B0032030
003F90306920
006950206410
058000200030
5F8033532030
AFA000200010
AFFF9020A400
5CB310303000
3D8023011000
AF9000310000
AFFDED300000
8FFD91000000
ENDCHAR
STARTCHAR Ohorn
ENCODING 416
SWIDTH 847 0
DWIDTH 14 0
BBX 14 16 0 -2
BITMAP
00000000002222
0000000001A003
00012222221123
00230100144222
04D01100005020
2FC0205CB03020
5FC0209FF12020
7FC0206FF12020
7FC0204FF12020
7FC0204FF12020
7FC0204FD02020
7FD02100003020
7FF30222220030
5FFE7200014400
1DFFFFFEEF6000
018CEFFDA30000
ENDCHAR
STARTCHAR ohorn
ENCODING 417
SWIDTH 847 0
DWIDTH 14 0
BBX 14 16 0 -2
BITMAP
00000000002222
0000000001A003
00012222221123
00230100144222
04D01100005020
2FC0205CB03020
5FC0209FF12020
7FC0206FF12020
7FC0204FF12020
7FC0204FF12020
7FC0204FD02020
7FD02100003020
7FF30222220030
5FFE7200014400
1DFFFFFEEF6000
018CEFFDA30000
ENDCHAR
STARTCHAR Uhorn
ENCODING 431
SWIDTH 856 0
DWIDTH 14 0
BBX 14 16 0 -2
BITMAP
00000000002322
0000000003C002
00633330552033
0AD01025F31413
5FD0203FF32130
5FD0203FF32120
5FD0203FF32120
5FD0203FF32120
5FD0203FF32120
5FD0203FF32120
5FD0202DC12020
5FF01200003030
5FF40122231030
3FFE7200014500
0BFFFFFEEF7000
007CEFFDA30000
ENDCHAR
STARTCHAR uhorn
ENCODING 432
SWIDTH 856 0
DWIDTH 14 0
BBX 14 16 0 -2
BITMAP
00000000002322
0000000003C002
00633330552033
0AD01025F31413
5FD0203FF32130
5FD0203FF32120
5FD0203FF32120
5FD0203FF32120
5FD0203FF32120
5FD0203FF32120
5FD0202DC12020
5FF01200003030
5FF40122231030
3FFE7200014500
0BFFFFFEEF7000
007CEFFDA30000
ENDCHAR
STARTCHAR Acaron
ENCODING 461
SWIDTH 830 0
DWIDTH 13 0
BBX 13 18 0 -2
BITMAP
0003C920013000
004E5143320200
00DF5022210200
00EFE940351000
00CFD333333000
00186000001100
002D1032310300
00AA020A120300
01F5023F611020
07F1107FB01030
0CC02000002020
3FB03333334020
6FB02000002020
8FB020BEE12020
8FB010CFF11020
8FB0005FF10020
8FFED73FFEDC20
6FFF701EFFC100
ENDCHAR
STARTCHAR acaron
ENCODING 462
SWIDTH 830 0
DWIDTH 13 0
BBX 13 18 0 -2
BITMAP
0003C920013000
004E5143320200
00DF5022210200
00EFE940351000
00CFD333333000
00186000001100
002D1032310300
00AA020A120300
01F5023F611020
07F1107FB01030
0CC02000002020
3FB03333334020
6FB02000002020
8FB020BEE12020
8FB010CFF11020
8FB0005FF10020
8FFED73FFEDC20
6FFF701EFFC100
ENDCHAR
STARTCHAR Icaron
ENCODING 463
SWIDTH 705 0
DWIDTH 11 0
BBX 11 18 0 -2
BITMAP
003C92001300
05E514332020
0DF502221020
0DFE94035100
0BC333333330
08A000000020
7FB022322030
8FFDB0206C40
7FFFD0205300
016FD0202000
006FD0202000
006FD0202000
005970202220
04A000200020
4FA022322020
8FB000000020
8FFEDDDDDB10
6FFFFFFFC100
ENDCHAR
STARTCHAR icaron
ENCODING 464
SWIDTH 705 0
DWIDTH 11 0
BBX 11 18 0 -2
BITMAP
003C92001300
05E514332020
0DF502221020
0DFE94035100
0BC333333330
08A000000020
7FB022322030
8FFDB0206C40
7FFFD0205300
016FD0202000
006FD0202000
006FD0202000
005970202220
04A000200020
4FA022322020
8FB000000020
8FFEDDDDDB10
6FFFFFFFC100
ENDCHAR
STARTCHAR Ocaron
ENCODING 465
SWIDTH 837 0
DWIDTH 13 0
BBX 13 19 0 -2
BITMAP
00001000013100
00034112320200
005F6110020200
00DF9023302100
00DFFD61394000
008EB643442200
00450222220120
05E02100003030
2FC0205CB02020
6FC0209FF12020
7FC0206FF12020
7FC0204FF12020
7FC0204FF12020
7FC0204FD02020
7FD02100003030
6FF30222230030
3FFE6200014500
0AFFFFFEEF7000
006BEFFDA30000
ENDCHAR
STARTCHAR ocaron
ENCODING 466
SWIDTH 837 0
DWIDTH 13 0
BBX 13 19 0 -2
BITMAP
00001000013100
00034112320200
005F6110020200
00DF9023302100
00DFFD61394000
008EB643442200
00450222220120
05E02100003030
2FC0205CB02020
6FC0209FF12020
7FC0206FF12020
7FC0204FF12020
7FC0204FF12020
7FC0204FD02020
7FD02100003030
6FF30222230030
3FFE6200014500
0AFFFFFEEF7000
006BEFFDA30000
ENDCHAR
STARTCHAR Ucaron
ENCODING 467
SWIDTH 846 0
DWIDTH 14 0
BBX 13 19 0 -2
BITMAP
00000000013100
00046012320200
005F7010020200
00CFA023311100
00CFFD71372000
00A333AFD63330
09D01046F31020
5FD0203FF32120
5FD0203FF32120
5FD0203FF32120
5FD0203FF32120
5FD0203FF32120
5FD0203FF32120
5FD0202DC12020
5FF01200003020
4FF40122230030
2FFE7200014400
09FFFFFEEF7000
005BEFFDA30000
ENDCHAR
STARTCHAR ucaron
ENCODING 468
SWIDTH 846 0
DWIDTH 14 0
BBX 13 19 0 -2
BITMAP
00000000013100
00046012320200
005F7010020200
00CFA023311100
00CFFD71372000
00A333AFD63330
09D01046F31020
5FD0203FF32120
5FD0203FF32120
5FD0203FF32120
5FD0203FF32120
5FD0203FF32120
5FD0203FF32120
5FD0202DC12020
5FF01200003020
4FF40122230030
2FFE7200014400
09FFFFFEEF7000
005BEFFDA30000
ENDCHAR
STARTCHAR Udieresismacron
ENCODING 469
SWIDTH 846 0
DWIDTH 14 0
BBX 13 21 0 -2
BITMAP
00003333333100
00096033320200
009F6000000200
00CFB88BA88200
00CF100A300200
00CF120A320200
02FF200B400000
02FAAADFFCAA90
05D0006EF30020
3FD0203DF32120
5FD0203FF32120
5FD0203FF32120
5FD0203FF32120
5FD0203FF32120
5FD0203FF32120
5FD0203ED12020
5FE01200003020
5FF40122231030
2FFE7200014400
09FFFFFEEF7000
006BEFFDA30000
ENDCHAR
STARTCHAR udieresismacron
ENCODING 470
SWIDTH 846 0
DWIDTH 14 0
BBX 13 21 0 -2
BITMAP
00003333333100
00096033320200
009F6000000200
00CFB88BA88200
00CF100A300200
00CF120A320200
02FF200B400000
02FAAADFFCAA90
05D0006EF30020
3FD0203DF32120
5FD0203FF32120
5FD0203FF32120
5FD0203FF32120
5FD0203FF32120
5FD0203FF32120
5FD0203ED12020
5FE01200003020
5FF40122231030
2FFE7200014400
09FFFFFEEF7000
006BEFFDA30000
ENDCHAR
STARTCHAR Udieresisacute
ENCODING 471
SWIDTH 846 0
DWIDTH 14 0
BBX 13 22 0 -2
BITMAP
00000000350000
00000076331000
00001B91211000
00009F90020000
0001798AA32200
002D100A300200
01EF120A320200
02FF200B400000
02FAAADFFCAA90
09D0006EF30020
5FD0203DF32120
5FD0203FF32120
5FD0203FF32120
5FD0203FF32120
5FD0203FF32120
5FD0203FF32120
5FD0203ED12020
5FE01200003020
4FF40122231030
2FFE7200014400
09FFFFFEEF7000
005BEFFDA30000
ENDCHAR
STARTCHAR udieresisacute
ENCODING 472
SWIDTH 846 0
DWIDTH 14 0
BBX 13 22 0 -2
BITMAP
00000000350000
00000076331000
00001B91211000
00009F90020000
0001798AA32200
002D100A300200
01EF120A320200
02FF200B400000
02FAAADFFCAA90
09D0006EF30020
5FD0203DF32120
5FD0203FF32120
5FD0203FF32120
5FD0203FF32120
5FD0203FF32120
5FD0203FF32120
5FD0203ED12020
5FE01200003020
4FF40122231030
2FFE7200014400
09FFFFFEEF7000
005BEFFDA30000
ENDCHAR
STARTCHAR Udieresiscaron
ENCODING 473
SWIDTH 846 0
DWIDTH 14 0
BBX 13 22 0 -2
BITMAP
00006510013100
000A7033220200
00AF7023210200
00CFE830156100
00CFA99CB82200
003E100A300200
01CF120A320200
02FF200B400000
02FAAADFFCAA90
06D0006EF30020
4FD0203DF32120
5FD0203FF32120
5FD0203FF32120
5FD0203FF32120
5FD0203FF32120
5FD0203FF32120
5FD0203ED12020
5FE01200003020
5FF40122231030
2FFE7200014400
09FFFFFEEF7000
006BEFFDA30000
ENDCHAR
STARTCHAR udieresiscaron
ENCODING 474
SWIDTH 846 0
DWIDTH 14 0
BBX 13 22 0 -2
BITMAP
00006510013100
000A7033220200
00AF7023210200
00CFE830156100
00CFA99CB82200
003E100A300200
01CF120A320200
02FF200B400000
02FAAADFFCAA90
06D0006EF30020
4FD0203DF32120
5FD0203FF32120
5FD0203FF32120
5FD0203FF32120
5FD0203FF32120
5FD0203FF32120
5FD0203ED12020
5FE01200003020
5FF40122231030
2FFE7200014400
09FFFFFEEF7000
006BEFFDA30000
ENDCHAR
STARTCHAR Udieresisgrave
ENCODING 475
SWIDTH 846 0
DWIDTH 14 0
BBX 13 22 0 -2
BITMAP
00000163000000
00002C14630000
0002EE02120000
0004FF30020000
0004A99D722200
002D100A300200
01EF120A320200
02FF200B400000
02FAAADFFCAA90
09D0006EF30020
5FD0203DF32120
5FD0203FF32120
5FD0203FF32120
5FD0203FF32120
5FD0203FF32120
5FD0203FF32120
5FD0203ED12020
5FE01200003020
4FF40122231030
2FFE7200014400
09FFFFFEEF7000
005BEFFDA30000
ENDCHAR
STARTCHAR udieresisgrave
ENCODING 476
SWIDTH 846 0
DWIDTH 14 0
BBX 13 22 0 -2
BITMAP
00000163000000
00002C14630000
0002EE02120000
0004FF30020000
0004A99D722200
002D100A300200
01EF120A320200
02FF200B400000
02FAAADFFCAA90
09D0006EF30020
5FD0203DF32120
5FD0203FF32120
5FD0203FF32120
5FD0203FF32120
5FD0203FF32120
5FD0203FF32120
5FD0203ED12020
5FE01200003020
4FF40122231030
2FFE7200014400
09FFFFFEEF7000
005BEFFDA30000
ENDCHAR
STARTCHAR Gcaron
ENCODING 486
SWIDTH 808 0
DWIDTH 13 0
BBX 13 18 0 -2
BITMAP
0005C810013000
006F2143312000
01FF3122212000
01FFD830350000
00EF9433333200
00140000000200
01A00332220200
0CC02000001000
5FC0207FFD2000
7FC02056842210
7FC02025A00030
7FC0206FA02030
7FC0206D902030
7FD03000002030
6FF30222222030
3FFD4000000020
0BFFFFEDDDD800
019DFFFFFF8000
ENDCHAR
STARTCHAR gcaron
ENCODING 487
SWIDTH 808 0
DWIDTH 13 0
BBX 13 18 0 -2
BITMAP
0005C810013000
006F2143312000
01FF3122212000
01FFD830350000
00EF9433333200
00140000000200
01A00332220200
0CC02000001000
5FC0207FFD2000
7FC02056842210
7FC02025A00030
7FC0206FA02030
7FC0206D902030
7FD03000002030
6FF30222222030
3FFD4000000020
0BFFFFEDDDD800
019DFFFFFF8000
ENDCHAR
STARTCHAR Scommaaccent
ENCODING 536
SWIDTH 750 0
DWIDTH 12 0
BBX 12 20 0 -8
BITMAP
000233333331
006202222102
09B020000012
4FA0209FFF70
8FA020035640
8FC023310014
8FF700023203
5FFFECA70203
09D777760202
059000000201
5FA022222101
8FA000000020
8FFDDCAAB400
6FFFF5220300
0009F5002200
000DFD932200
000DF8232100
0007FD993000
000AFFD30000
000476100000
ENDCHAR
STARTCHAR scommaaccent
ENCODING 537
SWIDTH 750 0
DWIDTH 12 0
BBX 12 20 0 -8
BITMAP
000233333331
006202222102
09B020000012
4FA0209FFF70
8FA020035640
8FC023310014
8FF700023203
5FFFECA70203
09D777760202
059000000201
5FA022222101
8FA000000020
8FFDDCAAB400
6FFFF5220300
0009F5002200
000DFD932200
000DF8232100
0007FD993000
000AFFD30000
000476100000
ENDCHAR
STARTCHAR uni021A
ENCODING 538
SWIDTH 756 0
DWIDTH 12 0
BBX 13 20 0 -8
BITMAP
03533333333400
5E412223221210
EF500002000200
EFFEE3021EE600
CFFFF3021E4000
000FF302120000
000FF302120000
000FF302120000
000FF302120000
000FF302120000
000FF301120000
000FF400110000
000FFDAA700000
000DF422110000
000BF402120000
000FFC94120000
000EF622400000
0008FC9A400000
000CFFD3000000
00047610000000
ENDCHAR
STARTCHAR uni021B
ENCODING 539
SWIDTH 756 0
DWIDTH 12 0
BBX 13 20 0 -8
BITMAP
03533333333400
5E412223221210
EF500002000200
EFFEE3021EE600
CFFFF3021E4000
000FF302120000
000FF302120000
000FF302120000
000FF302120000
000FF302120000
000FF301120000
000FF400110000
000FFDAA700000
000DF422110000
000BF402120000
000FFC94120000
000EF622400000
0008FC9A400000
000CFFD3000000
00047610000000
ENDCHAR
STARTCHAR dotlessj
ENCODING 567
SWIDTH 788 0
DWIDTH 13 0
BBX 12 14 0 -2
BITMAP
000000045334
0000006F2102
000001FF2112
000001FF2112
000001FF2112
003334FF2112
088001FF2112
8F8020FF2112
BF8020CD1212
BF9030000302
AFD002233103
8FFC41000340
1EFFFFEEF800
029DFFEB4000
ENDCHAR
STARTCHAR ascript
ENCODING 593
SWIDTH 846 0
DWIDTH 14 0
BBX 13 14 0 -2
BITMAP
00013333333200
00240222220120
04D01100003030
1EC02039702020
5FC0209FF12020
7FC0207FF12020
7FC0205FF12020
7FC0205FF12020
7FC0205FF12020
7FD02100002020
7FF30222223020
4FFD4000000020
1DFFFFEDDDDC30
02AEFFFFFFC200
ENDCHAR
STARTCHAR schwa
ENCODING 601
SWIDTH 815 0
DWIDTH 13 0
BBX 13 14 0 -2
BITMAP
00063333332200
009E0222330220
04FE2222103030
04FFFFFFE03020
04D44444402020
05A00000002020
5FA03333334020
8FA02012202020
8FA020AFE02020
8FC03014202020
8FF30322220120
6FFE6200014300
1EFFFFFEEE4000
028CEFED920000
ENDCHAR
STARTCHAR gscript
ENCODING 609
SWIDTH 815 0
DWIDTH 13 0
BBX 13 15 0 -3
BITMAP
00013333333200
00330222230220
05C02100003020
3FA0209FB02020
7FA020BFD02020
9FA02014302020
9FC03000002020
8FF30322224020
6FFD6211102020
1DFFFFFFC02020
017E4444202020
009E0222221130
04FE1000014300
04FFFFFFFE5000
02DEEEEDA20000
ENDCHAR
STARTCHAR commaturnedmod
ENCODING 699
SWIDTH 600 0
DWIDTH 10 0
BBX 7 7 1 5
BITMAP
00045430
01B24950
0CF21030
3FF13220
4FF00020
4FFEEC20
3FFFC200
ENDCHAR
STARTCHAR apostrophemod
ENCODING 700
SWIDTH 600 0
DWIDTH 10 0
BBX 7 8 1 4
BITMAP
00232220
04D02220
2FF00220
4FFB8220
3FF33240
0CFB9910
1FFFA100
06750000
ENDCHAR
STARTCHAR ringhalfright
ENCODING 702
SWIDTH 412 0
DWIDTH 7 0
BBX 7 8 0 4
BITMAP
03633310
5F613030
DFFE0230
BEB70230
0A613020
AF600210
DFFFD200
BEEA1000
ENDCHAR
STARTCHAR ringhalfleft
ENCODING 703
SWIDTH 412 0
DWIDTH 7 0
BBX 7 8 0 4
BITMAP
00333330
07612020
7F632700
CF632320
DF612030
DFC20020
CFFFF900
4CEE8000
ENDCHAR
STARTCHAR circumflex
ENCODING 710
SWIDTH 600 0
DWIDTH 10 0
BBX 10 6 0 10
BITMAP
0000232100
0032223221
1B70010002
AFA8CFEB63
BFFDEFFF60
6620047300
ENDCHAR
STARTCHAR caron
ENCODING 711
SWIDTH 600 0
DWIDTH 10 0
BBX 10 6 0 10
BITMAP
02BA300131
3E70433202
BF80222102
BFEA512771
9FFFFFF700
039EC71000
ENDCHAR
STARTCHAR verticallinemod
ENCODING 712
SWIDTH 456 0
DWIDTH 7 0
BBX 7 8 0 4
BITMAP
00733330
1BC00020
6FC02020
6FC02020
6FC02020
6FD00020
6FFEEC20
5FFFC100
ENDCHAR
STARTCHAR firsttonechinese
ENCODING 713
SWIDTH 600 0
DWIDTH 10 0
BBX 10 5 0 10
BITMAP
0032222221
0970222202
9F80000003
BFFFFFFF90
9EEEEEE600
ENDCHAR
STARTCHAR secondtonechinese
ENCODING 714
SWIDTH 600 0
DWIDTH 10 0
BBX 10 6 0 10
BITMAP
0000022221
0052200002
1B70222202
AF92357971
BFFFFFF900
8CA8652000
ENDCHAR
STARTCHAR fourthtonechinese
ENCODING 715
SWIDTH 600 0
DWIDTH 10 0
BBX 10 6 0 10
BITMAP
0032222000
0870001222
9F70222202
BFEA865313
AFFFFFFF80
14579BC500
ENDCHAR
STARTCHAR verticallinelowmod
ENCODING 716
SWIDTH 456 0
DWIDTH 7 0
BBX 7 8 0 -4
BITMAP
00733330
1BC00020
6FC02020
6FC02020
6FC02020
6FD00020
6FFEEC20
5FFFC100
ENDCHAR
STARTCHAR breve
ENCODING 728
SWIDTH 600 0
DWIDTH 10 0
BBX 10 6 0 10
BITMAP
0033303331
1A62026112
BF81222203
DFE6100251
AFFFFFF900
1ADFEC6000
ENDCHAR
STARTCHAR dotaccent
ENCODING 729
SWIDTH 600 0
DWIDTH 10 0
BBX 7 6 1 10
BITMAP
00132220
02D00020
1EF02020
3FF10030
3FFFFD20
1DEEB100
ENDCHAR
STARTCHAR ring
ENCODING 730
SWIDTH 600 0
DWIDTH 10 0
BBX 10 9 0 10
BITMAP
0002333310
0051222221
0973000212
8F630EA022
CF630D9212
DF80322202
DFF6200340
9FFFFFF800
19DFEC5000
ENDCHAR
STARTCHAR ogonek
ENCODING 731
SWIDTH 600 0
DWIDTH 10 0
BBX 8 7 1 -5
BITMAP
00043220
01B43110
0BF23131
0EF13102
2FF60002
2FFFEE60
0AFFE500
ENDCHAR
STARTCHAR tilde
ENCODING 732
SWIDTH 600 0
DWIDTH 10 0
BBX 10 6 0 10
BITMAP
0012232341
0260000002
3E70333202
BF94541031
BFFFFFFE30
9BABDEB200
ENDCHAR
STARTCHAR hungarumlaut
ENCODING 733
SWIDTH 600 0
DWIDTH 10 0
BBX 11 7 -1 10
BITMAP
000222223220
0068006A0030
06F530E72030
0BF112F32020
0ED007F10300
4FFFDFFFE300
5EEA3DEB2000
ENDCHAR
STARTCHAR gravecmb
ENCODING 768
SWIDTH 100 0
DWIDTH 2 0
BBX 10 6 -4 10
BITMAP
0032222000
0870001222
9F70222202
BFEA865313
AFFFFFFF80
14579BC500
ENDCHAR
STARTCHAR acutecmb
ENCODING 769
SWIDTH 100 0
DWIDTH 2 0
BBX 10 6 -4 10
BITMAP
0000022221
0052200002
1B70222202
AF92357971
BFFFFFF900
8CA8652000
ENDCHAR
STARTCHAR circumflexcmb
ENCODING 770
SWIDTH 100 0
DWIDTH 2 0
BBX 10 6 -4 10
BITMAP
0000232100
0032223221
1B70010002
AFA8CFEB63
BFFDEFFF60
6620047300
ENDCHAR
STARTCHAR tildecmb
ENCODING 771
SWIDTH 100 0
DWIDTH 2 0
BBX 10 6 -4 10
BITMAP
0012232342
0260000002
3E80333202
BF94541031
BFFFFFFE30
9BABDEB200
ENDCHAR
STARTCHAR uni0304
ENCODING 772
SWIDTH 600 0
DWIDTH 10 0
BBX 10 5 0 10
BITMAP
0032222221
0970222202
9F80000003
BFFFFFFF90
9EEEEEE600
ENDCHAR
STARTCHAR brevecmb
ENCODING 774
SWIDTH 100 0
DWIDTH 2 0
BBX 10 6 -4 10
BITMAP
0033303331
1A62026112
BF81222203
DFE6100251
AFFFFFF900
1ADFEC6000
ENDCHAR
STARTCHAR dotaccentcmb
ENCODING 775
SWIDTH 100 0
DWIDTH 2 0
BBX 7 6 -3 10
BITMAP
00132220
02D00020
1EF02020
3FF10030
3FFFFD20
2DEEB100
ENDCHAR
STARTCHAR dieresiscmb
ENCODING 776
SWIDTH 100 0
DWIDTH 2 0
BBX 11 6 -5 10
BITMAP
000322132220
01B200740020
0CF220942020
1FF300A50020
1FFFFFFFFB10
0DEE9BEEA000
ENDCHAR
STARTCHAR hookcmb
ENCODING 777
SWIDTH 100 0
DWIDTH 2 0
BBX 8 7 -3 10
BITMAP
00233331
05E02223
3FFB9532
3FFB1222
05FD2462
07FFFC20
03975000
ENDCHAR
STARTCHAR ringcmb
ENCODING 778
SWIDTH 100 0
DWIDTH 2 0
BBX 10 9 -4 10
BITMAP
0002333310
0051222221
0973000212
8F630EA022
CF630D9212
DF80322202
DFF6200340
9FFFFFF800
19DFEC5000
ENDCHAR
STARTCHAR hungarumlautcmb
ENCODING 779
SWIDTH 100 0
DWIDTH 2 0
BBX 11 7 -4 10
BITMAP
000322132220
01A300A50030
0BE034F23110
1FA018D02300
5F800CA00300
9FFFDFFFB100
9EE67EE80000
ENDCHAR
STARTCHAR caroncmb
ENCODING 780
SWIDTH 100 0
DWIDTH 2 0
BBX 10 6 -4 10
BITMAP
02BA300131
3E70433202
BF80222102
BFEA512771
9FFFFFF700
039EC71000
ENDCHAR
STARTCHAR horncmb
ENCODING 795
SWIDTH 100 0
DWIDTH 2 0
BBX 7 7 -3 7
BITMAP
00032210
00770020
07D13020
2DD22110
6FE89200
6FFC2000
37400000
ENDCHAR
STARTCHAR dotbelowcmb
ENCODING 803
SWIDTH 100 0
DWIDTH 2 0
BBX 7 6 -3 -6
BITMAP
00132220
02D00020
1EF02020
3FF10030
3FFFFD20
2DEEB100
ENDCHAR
STARTCHAR dieresisbelowcmb
ENCODING 804
SWIDTH 100 0
DWIDTH 2 0
BBX 11 6 -5 -6
BITMAP
000322132220
01B200740020
0CF220942020
1FF300A50020
1FFFFFFFFB10
0DEE9BEEA000
ENDCHAR
STARTCHAR commaaccent
ENCODING 806
SWIDTH 600 0
DWIDTH 10 0
BBX 7 8 1 -8
BITMAP
00232220
04D02220
2FF00220
4FFB8220
3FF33240
0CFB9910
1FFFA100
06750000
ENDCHAR
STARTCHAR cedillacmb
ENCODING 807
SWIDTH 100 0
DWIDTH 2 0
BBX 7 7 -3 -4
BITMAP
00033210
005A0230
03F52130
09E01030
1EA00210
5FFED400
8FFD3000
ENDCHAR
STARTCHAR ogonekcmb
ENCODING 808
SWIDTH 100 0
DWIDTH 2 0
BBX 7 7 -2 -5
BITMAP
00433200
07920300
6F730320
AF622020
CFB00020
CFFFEA10
6EFF9000
ENDCHAR
STARTCHAR brevebelowcmb
ENCODING 814
SWIDTH 100 0
DWIDTH 2 0
BBX 10 6 -4 -6
BITMAP
0033303331
1A62026112
BF81222203
DFE6100251
AFFFFFF900
1ADFEC6000
ENDCHAR
STARTCHAR macronbelowcmb
ENCODING 817
SWIDTH 100 0
DWIDTH 2 0
BBX 10 5 -4 -5
BITMAP
0032222221
0980222202
9F90000003
BFFFFFFF90
8EEEEEE600
ENDCHAR
STARTCHAR uni0394
ENCODING 916
SWIDTH 830 0
DWIDTH 13 0
BBX 13 14 0 -2
BITMAP
00003333332000
00067000002100
006F3132220300
00DE0304030300
01FB030E320300
05F7022F602110
09F3206F903030
0DE0209FD02020
2FC020CFE02020
5FB02000002020
7FB02222223020
8FB00000000030
8FFFFFFFFFFD20
5EEEEEEEEEB100
ENDCHAR
STARTCHAR uni03A9
ENCODING 937
SWIDTH 877 0
DWIDTH 14 0
BBX 14 14 0 -2
BITMAP
00002322222300
00040012220030
01B40310013021
0BF21119920202
0FF1204FF60202
2FF1203EF60202
2FF1202CF60202
2FF2202CF60202
2FF6212DF50231
1F700317903003
5F602226812212
CF700007900003
CFFFFFFFFFFFD3
9EEEEA9EEEEB10
ENDCHAR
STARTCHAR uni03BC
ENCODING 956
SWIDTH 813 0
DWIDTH 13 0
BBX 13 14 0 -4
BITMAP
00232220222210
04B00025B00020
4FC0207FC02020
6FC0208FC02020
6FC0208FC02020
6FC0208FC02020
6FC0307FA02020
6FC04101012020
6FC02122220220
6FC02010126300
6FC0008FFE3000
6FFBBBED920000
5FFFC200000000
03331000000000
ENDCHAR
STARTCHAR pi
ENCODING 960
SWIDTH 821 0
DWIDTH 13 0
BBX 13 12 0 -2
BITMAP
00022222222210
01A00000000020
2DC02333333020
6FC02011102020
6FC0208FC02020
6FC0208FC02020
6FC0208FC02020
6FC0208FC02020
6FC0108FC01020
6FD0009FC00030
6FFFFB8FFFFB10
4DEE904DEE8000
ENDCHAR
STARTCHAR Ddotbelow
ENCODING 7692
SWIDTH 846 0
DWIDTH 14 0
BBX 13 18 0 -6
BITMAP
00633333333300
08E00000000030
4FE02222221030
4FE02013203020
4FE0206FF31220
4FE0205FF41220
4FE0202FF41220
4FE0202FF31220
4FE02029811220
4FE02000003030
4FE02222221030
4FE00000001410
4FFDCCAAACB100
3FFFFF00040000
0001DF02030000
0004FF10030000
0004FFFFD20000
0002DEEB100000
ENDCHAR
STARTCHAR ddotbelow
ENCODING 7693
SWIDTH 846 0
DWIDTH 14 0
BBX 13 18 0 -6
BITMAP
00633333333300
08E00000000030
4FE02222221030
4FE02013203020
4FE0206FF31220
4FE0205FF41220
4FE0202FF41220
4FE0202FF31220
4FE02029811220
4FE02000003030
4FE02222221030
4FE00000001410
4FFDCCAAACB100
3FFFFF00040000
0001DF02030000
0004FF10030000
0004FFFFD20000
0002DEEB100000
ENDCHAR
STARTCHAR Dlinebelow
ENCODING 7694
SWIDTH 846 0
DWIDTH 14 0
BBX 13 18 0 -6
BITMAP
00633333333300
08E00000000030
4FE02222221030
4FE02013203020
4FE0206FF31220
4FE0205FF41220
4FE0202FF41220
4FE0202FF31220
4FE02029811220
4FE02000003030
4FE02222221030
4FF00000002400
4FFFEDDDDEA000
3FFF6000000200
005F6022210200
00DF7000001200
00DFFFFFFF5000
00AEEEEED40000
ENDCHAR
STARTCHAR dlinebelow
ENCODING 7695
SWIDTH 846 0
DWIDTH 14 0
BBX 13 18 0 -6
BITMAP
00633333333300
08E00000000030
4FE02222221030
4FE02013203020
4FE0206FF31220
4FE0205FF41220
4FE0202FF41220
4FE0202FF31220
4FE02029811220
4FE02000003030
4FE02222221030
4FF00000002400
4FFFEDDDDEA000
3FFF6000000200
005F6022210200
00DF7000001200
00DFFFFFFF5000
00AEEEEED40000
ENDCHAR
STARTCHAR Gmacron
ENCODING 7712
SWIDTH 808 0
DWIDTH 13 0
BBX 13 17 0 -2
BITMAP
00003222222200
00079022220200
007FA000000100
00AFFBAAAAA400
009B1000000300
00710332220200
08D02000001100
3FC0207FFD2000
6FC02056842210
7FC02025A00030
7FC0206FA02030
7FC0206D902030
7FD03000002030
6FF30222222030
3FFD4000000020
0BFFFFEDDDD800
019DFFFFFF8000
ENDCHAR
STARTCHAR gmacron
ENCODING 7713
SWIDTH 808 0
DWIDTH 13 0
BBX 13 17 0 -2
BITMAP
00003222222200
00079022220200
007FA000000100
00AFFBAAAAA400
009B1000000300
00710332220200
08D02000001100
3FC0207FFD2000
6FC02056842210
7FC02025A00030
7FC0206FA02030
7FC0206D902030
7FD03000002030
6FF30222222030
3FFD4000000020
0BFFFFEDDDD800
019DFFFFFF8000
ENDCHAR
STARTCHAR Hdotbelow
ENCODING 7716
SWIDTH 859 0
DWIDTH 14 0
BBX 14 18 0 -6
BITMAP
00633330253340
08E00023E40021
4FE0202EF40221
4FE0202FF40221
4FE02028920221
4FE02000000221
4FE03222223221
4FE02000000221
4FE0206FF40221
4FE0206FF40221
4FE0202FF40121
4FE0003FF40020
4FFEDC689BDD40
3FFFDD1004D300
0001DF12020000
0002FF20030000
0002FFFFE30000
0001DEEC200000
ENDCHAR
STARTCHAR hdotbelow
ENCODING 7717
SWIDTH 859 0
DWIDTH 14 0
BBX 14 18 0 -6
BITMAP
00633330253340
08E00023E40021
4FE0202EF40221
4FE0202FF40221
4FE02028920221
4FE02000000221
4FE03222223221
4FE02000000221
4FE0206FF40221
4FE0206FF40221
4FE0202FF40121
4FE0003FF40020
4FFEDC689BDD40
3FFFDD1004D300
0001DF12020000
0002FF20030000
0002FFFFE30000
0001DEEC200000
ENDCHAR
STARTCHAR Hbrevebelow
ENCODING 7722
SWIDTH 859 0
DWIDTH 14 0
BBX 14 18 0 -6
BITMAP
00633330253340
08E00023E40021
4FE0202EF40221
4FE0202FF40221
4FE02028920221
4FE02000000221
4FE03222223221
4FE02000000221
4FE0206FF40221
4FE0206FF40221
4FE0202FF40121
4FF2114FF61130
4FFFD94FF99B20
3FFF700DC00200
007F8300012200
00CFE223320000
009FFEB9960000
0019DFEC600000
ENDCHAR
STARTCHAR hbrevebelow
ENCODING 7723
SWIDTH 859 0
DWIDTH 14 0
BBX 14 18 0 -6
BITMAP
00633330253340
08E00023E40021
4FE0202EF40221
4FE0202FF40221
4FE02028920221
4FE02000000221
4FE03222223221
4FE02000000221
4FE0206FF40221
4FE0206FF40221
4FE0202FF40121
4FF2114FF61130
4FFFD94FF99B20
3FFF700DC00200
007F8300012200
00CFE223320000
009FFEB9960000
0019DFEC600000
ENDCHAR
STARTCHAR Ldotbelow
ENCODING 7734
SWIDTH 795 0
DWIDTH 13 0
BBX 13 18 0 -6
BITMAP
00633330000000
08E01020000000
4FE02020000000
4FE02020000000
4FE02020000000
4FE02020233310
4FE02024B00030
4FE0205FC02030
4FE0206EA02030
4FE02000002030
4FE02222222030
4FE00000000020
4FFDCCAAACC700
3FFFFD00087000
0003EC02020000
0006FD00030000
0006FFFFB10000
0004EEE9000000
ENDCHAR
STARTCHAR ldotbelow
ENCODING 7735
SWIDTH 795 0
DWIDTH 13 0
BBX 13 18 0 -6
BITMAP
00633330000000
08E01020000000
4FE02020000000
4FE02020000000
4FE02020000000
4FE02020233310
4FE02024B00030
4FE0205FC02030
4FE0206EA02030
4FE02000002030
4FE02222222030
4FE00000000020
4FFDCCAAACC700
3FFFFD00087000
0003EC02020000
0006FD00030000
0006FFFFB10000
0004EEE9000000
ENDCHAR
STARTCHAR Ldotbelowmacron
ENCODING 7736
SWIDTH 795 0
DWIDTH 13 0
BBX 13 21 0 -6
BITMAP
00013222222000
002D1122212000
01EF2000003000
02FBAADFFD3000
03E0006CA10000
2DE02020000000
4FE02020000000
4FE02020000000
4FE02020233310
4FE02024B00030
4FE0205FC02030
4FE0206EA02030
4FE02000002030
4FE02222222030
4FE00000000020
4FFDCCAAACC700
3FFFFD00087000
0003EC02020000
0006FD00030000
0006FFFFB10000
0004EEE9000000
ENDCHAR
STARTCHAR ldotbelowmacron
ENCODING 7737
SWIDTH 795 0
DWIDTH 13 0
BBX 13 21 0 -6
BITMAP
00013222222000
002D1122212000
01EF2000003000
02FBAADFFD3000
03E0006CA10000
2DE02020000000
4FE02020000000
4FE02020000000
4FE02020233310
4FE02024B00030
4FE0205FC02030
4FE0206EA02030
4FE02000002030
4FE02222222030
4FE00000000020
4FFDCCAAACC700
3FFFFD00087000
0003EC02020000
0006FD00030000
0006FFFFB10000
0004EEE9000000
ENDCHAR
STARTCHAR Llinebelow
ENCODING 7738
SWIDTH 795 0
DWIDTH 13 0
BBX 13 17 0 -5
BITMAP
00633330000000
08E01020000000
4FE02020000000
4FE02020000000
4FE02020000000
4FE02020233310
4FE02024B00030
4FE0205FC02030
4FE0206EA02030
4FE02000002030
4FE02222222030
4FE00000000020
4FFDA99999B700
3FFF1133313000
01DF1000003000
03FFEEEEED5000
01EFFFFFD30000
ENDCHAR
STARTCHAR llinebelow
ENCODING 7739
SWIDTH 795 0
DWIDTH 13 0
BBX 13 17 0 -5
BITMAP
00633330000000
08E01020000000
4FE02020000000
4FE02020000000
4FE02020000000
4FE02020233310
4FE02024B00030
4FE0205FC02030
4FE0206EA02030
4FE02000002030
4FE02222222030
4FE00000000020
4FFDA99999B700
3FFF1133313000
01DF1000003000
03FFEEEEED5000
01EFFFFFD30000
ENDCHAR
STARTCHAR Mdotbelow
ENCODING 7746
SWIDTH 949 0
DWIDTH 15 0
BBX 15 18 0 -6
BITMAP
0063333000433320
08E0000109100030
4FE0130188032030
4FE02030A1312030
4FE0200302102030
4FE0201121102030
4FE0207100802030
4FE0208A37B02030
4FE0208FFFB02030
4FE020798FB02030
4FE010208FB01030
4FE000208FB00030
4FFEDA3369DED910
3FFFA4B0008F8000
00004FC020200000
00007FD000300000
00007FFFFB100000
00004EEE90000000
ENDCHAR
STARTCHAR mdotbelow
ENCODING 7747
SWIDTH 949 0
DWIDTH 15 0
BBX 15 18 0 -6
BITMAP
0063333000433320
08E0000109100030
4FE0130188032030
4FE02030A1312030
4FE0200302102030
4FE0201121102030
4FE0207100802030
4FE0208A37B02030
4FE0208FFFB02030
4FE020798FB02030
4FE010208FB01030
4FE000208FB00030
4FFEDA3369DED910
3FFFA4B0008F8000
00004FC020200000
00007FD000300000
00007FFFFB100000
00004EEE90000000
ENDCHAR
STARTCHAR Ndotaccent
ENCODING 7748
SWIDTH 853 0
DWIDTH 14 0
BBX 13 18 0 -2
BITMAP
00000132220000
00003D10020000
0002FF02020000
0003FF20030000
006334EFF73340
08E0003DE40020
4FE03306F41220
4FE02120941220
4FE02022011220
4FE02002101220
4FE02030211220
4FE02088031220
4FE0208F504220
4FE0208FE21220
4FE0208FF41120
4FE0004FF40020
4FFEDB2FFEDC30
3FFFB10DFFD200
ENDCHAR
STARTCHAR ndotaccent
ENCODING 7749
SWIDTH 853 0
DWIDTH 14 0
BBX 13 18 0 -2
BITMAP
00000132220000
00003D10020000
0002FF02020000
0003FF20030000
006334EFF73340
08E0003DE40020
4FE03306F41220
4FE02120941220
4FE02022011220
4FE02002101220
4FE02030211220
4FE02088031220
4FE0208F504220
4FE0208FE21220
4FE0208FF41120
4FE0004FF40020
4FFEDB2FFEDC30
3FFFB10DFFD200
ENDCHAR
STARTCHAR Ndotbelow
ENCODING 7750
SWIDTH 853 0
DWIDTH 14 0
BBX 13 18 0 -6
BITMAP
00633310253340
08E00012D40020
4FE03306F41220
4FE02120941220
4FE02022011220
4FE02002101220
4FE02030211220
4FE02088031220
4FE0208F504220
4FE0208FE21220
4FE0208FF41120
4FE0004FF40020
4FFEDC599BDC30
3FFFCD1004D200
0001DF02020000
0003FF20030000
0003FFFFD30000
0001DEEB100000
ENDCHAR
STARTCHAR ndotbelow
ENCODING 7751
SWIDTH 853 0
DWIDTH 14 0
BBX 13 18 0 -6
BITMAP
00633310253340
08E00012D40020
4FE03306F41220
4FE02120941220
4FE02022011220
4FE02002101220
4FE02030211220
4FE02088031220
4FE0208F504220
4FE0208FE21220
4FE0208FF41120
4FE0004FF40020
4FFEDC599BDC30
3FFFCD1004D200
0001DF02020000
0003FF20030000
0003FFFFD30000
0001DEEB100000
ENDCHAR
STARTCHAR Nlinebelow
ENCODING 7752
SWIDTH 853 0
DWIDTH 14 0
BBX 13 17 0 -5
BITMAP
00633310253340
08E00012D40020
4FE03306F41220
4FE02120941220
4FE02022011220
4FE02002101220
4FE02030211220
4FE02088031220
4FE0208F504220
4FE0208FE21220
4FE0207FF41120
4FF1114FF51130
4FFFD949999D30
3FFF8033320200
007F8000000300
00BFFEEEEEA100
009FFFFFF80000
ENDCHAR
STARTCHAR nlinebelow
ENCODING 7753
SWIDTH 853 0
DWIDTH 14 0
BBX 13 17 0 -5
BITMAP
00633310253340
08E00012D40020
4FE03306F41220
4FE02120941220
4FE02022011220
4FE02002101220
4FE02030211220
4FE02088031220
4FE0208F504220
4FE0208FE21220
4FE0207FF41120
4FF1114FF51130
4FFFD949999D30
3FFF8033320200
007F8000000300
00BFFEEEEEA100
009FFFFFF80000
ENDCHAR
STARTCHAR Rdotbelow
ENCODING 7770
SWIDTH 843 0
DWIDTH 13 0
BBX 14 18 0 -6
BITMAP
00633333333200
08E00000000300
4FE02222220120
4FE0207F521020
4FE0207F602200
4FE02001021320
4FE03222242030
4FE02000001202
4FE0206EE40202
4FE0207FF60202
4FE0103DF60102
4FE0002CF70002
4FFEDB579ADD50
3FFFCC3002E500
0000CF31220000
0000FF40030000
0000FFFFE40000
0000CEEC300000
ENDCHAR
STARTCHAR rdotbelow
ENCODING 7771
SWIDTH 843 0
DWIDTH 13 0
BBX 14 18 0 -6
BITMAP
00633333333200
08E00000000300
4FE02222220120
4FE0207F521020
4FE0207F602200
4FE02001021320
4FE03222242030
4FE02000001202
4FE0206EE40202
4FE0207FF60202
4FE0103DF60102
4FE0002CF70002
4FFEDB579ADD50
3FFFCC3002E500
0000CF31220000
0000FF40030000
0000FFFFE40000
0000CEEC300000
ENDCHAR
STARTCHAR Rdotbelowmacron
ENCODING 7772
SWIDTH 843 0
DWIDTH 13 0
BBX 14 21 0 -6
BITMAP
00022222222000
005B0222202000
04FC0000003000
07FBAAAAAA3000
07E00000000300
1CE02222220210
4FE0207F521020
4FE0207F602210
4FE02001021320
4FE03222242030
4FE02000001202
4FE0206EE40202
4FE0207FF60202
4FE0103DF60102
4FE0002CF70002
4FFEDB579ADD50
3FFFCC3002E500
0000CF31220000
0000FF40030000
0000FFFFE40000
0000CEEC300000
ENDCHAR
STARTCHAR rdotbelowmacron
ENCODING 7773
SWIDTH 843 0
DWIDTH 13 0
BBX 14 21 0 -6
BITMAP
00022222222000
005B0222202000
04FC0000003000
07FBAAAAAA3000
07E00000000300
1CE02222220210
4FE0207F521020
4FE0207F602210
4FE02001021320
4FE03222242030
4FE02000001202
4FE0206EE40202
4FE0207FF60202
4FE0103DF60102
4FE0002CF70002
4FFEDB579ADD50
3FFFCC3002E500
0000CF31220000
0000FF40030000
0000FFFFE40000
0000CEEC300000
ENDCHAR
STARTCHAR Rlinebelow
ENCODING 7774
SWIDTH 843 0
DWIDTH 13 0
BBX 14 17 0 -5
BITMAP
00633333333200
08E02222220300
4FE02000020120
4FE0207F502020
4FE0207F602200
4FE02001021320
4FE03222342030
4FE02000001202
4FE0206EE40202
4FE0207FF60202
4FE0103DF60102
4FF1113CF81112
4FFFC947999E50
3FFF7033320400
008F7000000300
00CFFEEEEE9000
00AFFFFFF70000
ENDCHAR
STARTCHAR rlinebelow
ENCODING 7775
SWIDTH 843 0
DWIDTH 13 0
BBX 14 17 0 -5
BITMAP
00633333333200
08E02222220300
4FE02000020120
4FE0207F502020
4FE0207F602200
4FE02001021320
4FE03222342030
4FE02000001202
4FE0206EE40202
4FE0207FF60202
4FE0103DF60102
4FF1113CF81112
4FFFC947999E50
3FFF7033320400
008F7000000300
00CFFEEEEE9000
00AFFFFFF70000
ENDCHAR
STARTCHAR Sdotaccent
ENCODING 7776
SWIDTH 750 0
DWIDTH 12 0
BBX 12 18 0 -2
BITMAP
000003223000
0001A5001200
000BF4020200
000EF6001100
000C74333331
003200000002
05B012222102
2FA020477751
7FA02059BC10
8FB030000031
8FF202222003
7FFE95310303
2EFFFFFD0203
03A000000302
2DA022222103
8FA000000140
8FFEDDDDE900
7FFFFFEC5000
ENDCHAR
STARTCHAR sdotaccent
ENCODING 7777
SWIDTH 750 0
DWIDTH 12 0
BBX 12 18 0 -2
BITMAP
000003223000
0001A5001200
000BF4020200
000EF6001100
000C74333331
003200000002
05B012222102
2FA020477751
7FA02059BC10
8FB030000031
8FF202222003
7FFE95310303
2EFFFFFD0203
03A000000302
2DA022222103
8FA000000140
8FFEDDDDE900
7FFFFFEC5000
ENDCHAR
STARTCHAR Sdotbelow
ENCODING 7778
SWIDTH 750 0
DWIDTH 12 0
BBX 12 18 0 -6
BITMAP
000232333331
006200000002
07B012222102
3FA020477751
7FA0205ACC10
8FB030000031
8FF202222003
7FFE95310303
1EFFFFFD0203
03A000000302
2DA022222102
8FA000000030
8FFDCBAAB900
7FFFF5000200
0009F5020200
000DF6001200
000DFFFF6000
000AEED40000
ENDCHAR
STARTCHAR sdotbelow
ENCODING 7779
SWIDTH 750 0
DWIDTH 12 0
BBX 12 18 0 -6
BITMAP
000232333331
006200000002
07B012222102
3FA020477751
7FA0205ACC10
8FB030000031
8FF202222003
7FFE95310303
1EFFFFFD0203
03A000000302
2DA022222102
8FA000000030
8FFDCBAAB900
7FFFF5000200
0009F5020200
000DF6001200
000DFFFF6000
000AEED40000
ENDCHAR
STARTCHAR Tdotbelow
ENCODING 7788
SWIDTH 756 0
DWIDTH 12 0
BBX 13 18 0 -6
BITMAP
02533333333400
2D400000000210
DF412223221210
EF600002000200
EFFFF3021FD200
BEEFF3021C2000
000FF302120000
000FF302120000
000FF302120000
000FF302120000
000FF302120000
000FF400120000
000FFCAA800000
000DF400110000
000AF402110000
000FF500210000
000FFFFE500000
000BEED3000000
ENDCHAR
STARTCHAR tdotbelow
ENCODING 7789
SWIDTH 756 0
DWIDTH 12 0
BBX 13 18 0 -6
BITMAP
02533333333400
2D400000000210
DF412223221210
EF600002000200
EFFFF3021FD200
BEEFF3021C2000
000FF302120000
000FF302120000
000FF302120000
000FF302120000
000FF302120000
000FF400120000
000FFCAA800000
000DF400110000
000AF402110000
000FF500210000
000FFFFE500000
000BEED3000000
ENDCHAR
STARTCHAR Tlinebelow
ENCODING 7790
SWIDTH 756 0
DWIDTH 12 0
BBX 13 17 0 -5
BITMAP
03533333333400
5E412223221210
EF500002000200
EFFEE3021EE600
CFFFF3021E4000
000FF302120000
000FF302120000
000FF302120000
000FF302120000
000FF302120000
000FF301120000
000FF511210000
000E9999622000
005B0233302000
05FC0000003000
07FFEEEEEB2000
06FFFFFFA10000
ENDCHAR
STARTCHAR tlinebelow
ENCODING 7791
SWIDTH 756 0
DWIDTH 12 0
BBX 13 17 0 -5
BITMAP
03533333333400
5E412223221210
EF500002000200
EFFEE3021EE600
CFFFF3021E4000
000FF302120000
000FF302120000
000FF302120000
000FF302120000
000FF302120000
000FF301120000
000FF511210000
000E9999622000
005B0233302000
05FC0000003000
07FFEEEEEB2000
06FFFFFFA10000
ENDCHAR
STARTCHAR Wgrave
ENCODING 7808
SWIDTH 931 0
DWIDTH 15 0
BBX 15 18 0 -2
BITMAP
0000577775310000
0007E02322460000
003FE00012030000
004FFC9764210000
007333BFFFC33320
0AC00057AFA01030
6FC020207FA03030
6FC020209FA03030
6FC020236CA03030
6FC0208201903030
6FC0203121303030
6FC0200202003030
6FE0201131103020
6FF32131E1312200
4FF80315F4130200
0EFD0009F9000200
09FFED9DFFED5000
03EFF808FFE40000
ENDCHAR
STARTCHAR wgrave
ENCODING 7809
SWIDTH 931 0
DWIDTH 15 0
BBX 15 18 0 -2
BITMAP
0000577775310000
0007E02322460000
003FE00012030000
004FFC9764210000
007333BFFFC33320
0AC00057AFA01030
6FC020207FA03030
6FC020209FA03030
6FC020236CA03030
6FC0208201903030
6FC0203121303030
6FC0200202003030
6FE0201131103020
6FF32131E1312200
4FF80315F4130200
0EFD0009F9000200
09FFED9DFFED5000
03EFF808FFE40000
ENDCHAR
STARTCHAR Wacute
ENCODING 7810
SWIDTH 931 0
DWIDTH 15 0
BBX 15 18 0 -2
BITMAP
0000014577771000
0000484223102000
0006F41210001000
000EF62467920000
006333BFFD933320
0AC000431AA01030
6FC020207FA03030
6FC020209FA03030
6FC020236CA03030
6FC0208201903030
6FC0203121303030
6FC0200202003030
6FE0201131103020
6FF32131E1312200
4FF80315F4130200
0EFD0009F9000200
09FFED9DFFED5000
03EFF808FFE40000
ENDCHAR
STARTCHAR wacute
ENCODING 7811
SWIDTH 931 0
DWIDTH 15 0
BBX 15 18 0 -2
BITMAP
0000014577771000
0000484223102000
0006F41210001000
000EF62467920000
006333BFFD933320
0AC000431AA01030
6FC020207FA03030
6FC020209FA03030
6FC020236CA03030
6FC0208201903030
6FC0203121303030
6FC0200202003030
6FE0201131103020
6FF32131E1312200
4FF80315F4130200
0EFD0009F9000200
09FFED9DFFED5000
03EFF808FFE40000
ENDCHAR
STARTCHAR Wdieresis
ENCODING 7812
SWIDTH 931 0
DWIDTH 15 0
BBX 15 18 0 -2
BITMAP
0000222322221000
0004A000C0002000
004FB020D0202000
007FC001E0011000
007AAAEFFFEAAA30
04B0006DDFA00030
4FC020206FA02030
6FC020209FA03030
6FC020236CA03030
6FC0208201903030
6FC0203121303030
6FC0200202003020
6FD0201131103020
6FF22131E1312100
4FF80315F4130200
1EFD0009F9000200
09FFED9DFFED5000
03EFF808FFE40000
ENDCHAR
STARTCHAR wdieresis
ENCODING 7813
SWIDTH 931 0
DWIDTH 15 0
BBX 15 18 0 -2
BITMAP
0000222322221000
0004A000C0002000
004FB020D0202000
007FC001E0011000
007AAAEFFFEAAA30
04B0006DDFA00030
4FC020206FA02030
6FC020209FA03030
6FC020236CA03030
6FC0208201903030
6FC0203121303030
6FC0200202003020
6FD0201131103020
6FF22131E1312100
4FF80315F4130200
1EFD0009F9000200
09FFED9DFFED5000
03EFF808FFE40000
ENDCHAR
STARTCHAR Ydotaccent
ENCODING 7822
SWIDTH 805 0
DWIDTH 13 0
BBX 13 18 0 -2
BITMAP
00000322210000
00007A00020000
0007FA02020000
0009FB00030000
016333EFF33330
2C8000CFD00020
9F80207FD02020
AF80308FD02020
AF90306F803020
AFD11208121120
9FF90210120300
4FFF5024202000
09FFE202011000
01CFF902020000
003FF901020000
0009FA00020000
0009FFDD910000
0007FFF9000000
ENDCHAR
STARTCHAR ydotaccent
ENCODING 7823
SWIDTH 805 0
DWIDTH 13 0
BBX 13 18 0 -2
BITMAP
00000322210000
00007A00020000
0007FA02020000
0009FB00030000
016333EFF33330
2C8000CFD00020
9F80207FD02020
AF80308FD02020
AF90306F803020
AFD11208121120
9FF90210120300
4FFF5024202000
09FFE202011000
01CFF902020000
003FF901020000
0009FA00020000
0009FFDD910000
0007FFF9000000
ENDCHAR
STARTCHAR Zdotbelow
ENCODING 7826
SWIDTH 760 0
DWIDTH 12 0
BBX 12 18 0 -6
BITMAP
005333333333
07D000000002
4FD022222202
5FE100000302
5FFFFF703031
3DEEF9021210
000290111200
001A11212000
00A203032222
099030000003
6F9022222203
AF9000000002
AFFCCCAAACA1
8FFFF7000B10
0007F7020200
000CF8000200
000CFFFF7000
0009EED50000
ENDCHAR
STARTCHAR zdotbelow
ENCODING 7827
SWIDTH 760 0
DWIDTH 12 0
BBX 12 18 0 -6
BITMAP
005333333333
07D000000002
4FD022222202
5FE100000302
5FFFFF703031
3DEEF9021210
000290111200
001A11212000
00A203032222
099030000003
6F9022222203
AF9000000002
AFFCCCAAACA1
8FFFF7000B10
0007F7020200
000CF8000200
000CFFFF7000
0009EED50000
ENDCHAR
STARTCHAR tdieresis
ENCODING 7831
SWIDTH 756 0
DWIDTH 12 0
BBX 13 18 0 -2
BITMAP
00032222223000
00860048002000
09F61158022000
0CF70069000000
0C833333333400
1D400000000210
BF412223221210
EF600002000200
EFFFF3021FD200
BEEFF3021C2000
000FF302120000
000FF302120000
000FF302120000
000FF302120000
000FF302120000
000FF400120000
000FFEDD700000
000DFFE5000000
ENDCHAR
STARTCHAR Germandbls
ENCODING 7838
SWIDTH 859 0
DWIDTH 14 0
BBX 14 14 0 -2
BITMAP
00633333333200
08E00000000300
4FE02222220200
4FE02001020300
4FE0206F120300
4FE0206D030220
4FE0206A033102
4FE0206D860302
4FE0206FFB0302
4FE02069000302
4FE01068022103
4FE00079000150
4FFEDDFFDDE900
3FFFBAFFEC5000
ENDCHAR
STARTCHAR Adotbelow
ENCODING 7840
SWIDTH 830 0
DWIDTH 13 0
BBX 13 18 0 -6
BITMAP
00003333333000
00046000001100
002E1032310300
00AA020A120300
01F5023F611020
07F1107FB01030
0CC02000002020
3FB03333334020
6FB02000002020
8FB020BEE12020
8FB010CFF11020
8FB0005FF10020
8FFED9499CDC20
6FFFAC0007C100
0003ED02030000
0006FD00030000
0006FFFFC10000
0004EEE9000000
ENDCHAR
STARTCHAR adotbelow
ENCODING 7841
SWIDTH 830 0
DWIDTH 13 0
BBX 13 18 0 -6
BITMAP
00003333333000
00046000001100
002E1032310300
00AA020A120300
01F5023F611020
07F1107FB01030
0CC02000002020
3FB03333334020
6FB02000002020
8FB020BEE12020
8FB010CFF11020
8FB0005FF10020
8FFED9499CDC20
6FFFAC0007C100
0003ED02030000
0006FD00030000
0006FFFFC10000
0004EEE9000000
ENDCHAR
STARTCHAR Ahookabove
ENCODING 7842
SWIDTH 830 0
DWIDTH 13 0
BBX 13 19 0 -2
BITMAP
00000433320000
0001B722322000
000BFDA8022000
000BFF32212000
0001CF53530000
0001D333333000
00036000001100
002D1032310300
00AA020A120300
01F5023F611020
07F1107FB01030
0CC02000002020
3FB03333334020
6FB02000002020
8FB020BEE12020
8FB010CFF11020
8FB0005FF10020
8FFED73FFEDC20
6FFF701EFFC100
ENDCHAR
STARTCHAR ahookabove
ENCODING 7843
SWIDTH 830 0
DWIDTH 13 0
BBX 13 19 0 -2
BITMAP
00000433320000
0001B722322000
000BFDA8022000
000BFF32212000
0001CF53530000
0001D333333000
00036000001100
002D1032310300
00AA020A120300
01F5023F611020
07F1107FB01030
0CC02000002020
3FB03333334020
6FB02000002020
8FB020BEE12020
8FB010CFF11020
8FB0005FF10020
8FFED73FFEDC20
6FFF701EFFC100
ENDCHAR
STARTCHAR Acircumflexacute
ENCODING 7844
SWIDTH 830 0
DWIDTH 13 0
BBX 13 22 0 -2
BITMAP
00000000002100
00000001420200
0000002C522300
000000CF614400
000001A8AE7000
00003132323100
001B5000010200
00BF98CFD95200
00EFD444445000
00DF7000001100
004D1032310200
00AB020A120200
01F5023F611120
07F1107FB01020
0CC02000002020
3FB03333334020
6FB02000002020
8FB020BEE12020
8FB010CFF11020
8FB0005FF10020
8FFED73FFEDC20
6FFF701EFFC200
ENDCHAR
STARTCHAR acircumflexacute
ENCODING 7845
SWIDTH 830 0
DWIDTH 13 0
BBX 13 22 0 -2
BITMAP
00000000002100
00000001420200
0000002C522300
000000CF614400
000001A8AE7000
00003132323100
001B5000010200
00BF98CFD95200
00EFD444445000
00DF7000001100
004D1032310200
00AB020A120200
01F5023F611120
07F1107FB01020
0CC02000002020
3FB03333334020
6FB02000002020
8FB020BEE12020
8FB010CFF11020
8FB0005FF10020
8FFED73FFEDC20
6FFF701EFFC200
ENDCHAR
STARTCHAR Acircumflexgrave
ENCODING 7846
SWIDTH 830 0
DWIDTH 13 0
BBX 13 21 0 -2
BITMAP
00000006333100
0000008F120200
000003FF201200
000004C8AC8200
00004232324100
001B5000010200
00BF98CFD95200
00EFD444445000
00DF7000001100
004E1032310200
00AB020A120200
01F5023F611120
07F1107FB01020
0CC02000002020
3FB03333334020
6FB02000002020
8FB020BEE12020
8FB010CFF11020
8FB0005FF10020
8FFED73FFEDC20
6FFF701EFFC200
ENDCHAR
STARTCHAR acircumflexgrave
ENCODING 7847
SWIDTH 830 0
DWIDTH 13 0
BBX 13 21 0 -2
BITMAP
00000006333100
0000008F120200
000003FF201200
000004C8AC8200
00004232324100
001B5000010200
00BF98CFD95200
00EFD444445000
00DF7000001100
004E1032310200
00AB020A120200
01F5023F611120
07F1107FB01020
0CC02000002020
3FB03333334020
6FB02000002020
8FB020BEE12020
8FB010CFF11020
8FB0005FF10020
8FFED73FFEDC20
6FFF701EFFC200
ENDCHAR
STARTCHAR Acircumflexhookabove
ENCODING 7848
SWIDTH 830 0
DWIDTH 13 0
BBX 14 23 0 -2
BITMAP
00000000322220
0000001B423321
000000CFB87112
000000EFF22412
0000005DF23460
0000012149EA00
00014032311200
002D5000010200
00CF98CFD95200
00EFD444445000
00DF7000001100
004E1032310200
00AB020A120200
01F5023F611120
07F1107FB01020
0CC02000002020
3FB03333334020
6FB02000002020
8FB020BEE12020
8FB010CFF11020
8FB0005FF10020
8FFED73FFEDC20
6FFF701EFFC200
ENDCHAR
STARTCHAR acircumflexhookabove
ENCODING 7849
SWIDTH 830 0
DWIDTH 13 0
BBX 14 23 0 -2
BITMAP
00000000322220
0000001B423321
000000CFB87112
000000EFF22412
0000005DF23460
0000012149EA00
00014032311200
002D5000010200
00CF98CFD95200
00EFD444445000
00DF7000001100
004E1032310200
00AB020A120200
01F5023F611120
07F1107FB01020
0CC02000002020
3FB03333334020
6FB02000002020
8FB020BEE12020
8FB010CFF11020
8FB0005FF10020
8FFED73FFEDC20
6FFF701EFFC200
ENDCHAR
STARTCHAR Acircumflextilde
ENCODING 7850
SWIDTH 830 0
DWIDTH 13 0
BBX 13 22 0 -2
BITMAP
00001222234100
00055010000200
007F5022210200
00EFA9A8665000
00EFFC62482000
00676032311200
003E5000010200
00DF98CFD95200
00EFD444445000
00DF7000001100
004D1032310200
00AB020A120200
01F5023F611120
07F1107FB01020
0CC02000002020
3FB03333334020
6FB02000002020
8FB020BEE12020
8FB010CFF11020
8FB0005FF10020
8FFED73FFEDC20
6FFF701EFFC200
ENDCHAR
STARTCHAR acircumflextilde
ENCODING 7851
SWIDTH 830 0
DWIDTH 13 0
BBX 13 22 0 -2
BITMAP
00001222234100
00055010000200
007F5022210200
00EFA9A8665000
00EFFC62482000
00676032311200
003E5000010200
00DF98CFD95200
00EFD444445000
00DF7000001100
004D1032310200
00AB020A120200
01F5023F611120
07F1107FB01020
0CC02000002020
3FB03333334020
6FB02000002020
8FB020BEE12020
8FB010CFF11020
8FB0005FF10020
8FFED73FFEDC20
6FFF701EFFC200
ENDCHAR
STARTCHAR Acircumflexdotbelow
ENCODING 7852
SWIDTH 830 0
DWIDTH 13 0
BBX 13 22 0 -6
BITMAP
00000022210000
00001132322100
00095000010200
00AF98CFD95200
00EFD444445000
00DF7000001100
004D1032310200
00AB020A120200
01F5023F611120
07F1107FB01020
0CC02000002020
3FB03333334020
6FB02000002020
8FB020BEE12020
8FB010CFF11020
8FB0005FF10020
8FFED9499CDC20
6FFFAC0007C200
0003ED02030000
0006FD00030000
0006FFFFC10000
0004EEE9000000
ENDCHAR
STARTCHAR acircumflexdotbelow
ENCODING 7853
SWIDTH 830 0
DWIDTH 13 0
BBX 13 22 0 -6
BITMAP
00000022210000
00001132322100
00095000010200
00AF98CFD95200
00EFD444445000
00DF7000001100
004D1032310200
00AB020A120200
01F5023F611120
07F1107FB01020
0CC02000002020
3FB03333334020
6FB02000002020
8FB020BEE12020
8FB010CFF11020
8FB0005FF10020
8FFED9499CDC20
6FFFAC0007C200
0003ED02030000
0006FD00030000
0006FFFFC10000
0004EEE9000000
ENDCHAR
STARTCHAR Abreveacute
ENCODING 7854
SWIDTH 830 0
DWIDTH 13 0
BBX 13 22 0 -2
BITMAP
00000000010000
00000020002000
000004C0203000
00004FD0363000
000069BED63100
001B3219520200
00CF5122220100
00FFE510120000
00DFF988887000
005E8000003200
002D3032310400
00AC020A120400
01F6023F611130
07F1107FB01040
0CC02000002030
3FB03333334020
6FB02000002020
8FB020BEE12020
8FB010CFF11020
8FB0005FF10020
8FFED73FFEDC20
6FFF701EFFC100
ENDCHAR
STARTCHAR abreveacute
ENCODING 7855
SWIDTH 830 0
DWIDTH 13 0
BBX 13 22 0 -2
BITMAP
00000000010000
00000020002000
000004C0203000
00004FD0363000
000069BED63100
001B3219520200
00CF5122220100
00FFE510120000
00DFF988887000
005E8000003200
002D3032310400
00AC020A120400
01F6023F611130
07F1107FB01040
0CC02000002030
3FB03333334020
6FB02000002020
8FB020BEE12020
8FB010CFF11020
8FB0005FF10020
8FFED73FFEDC20
6FFF701EFFC100
ENDCHAR
STARTCHAR Abrevegrave
ENCODING 7856
SWIDTH 830 0
DWIDTH 13 0
BBX 13 21 0 -2
BITMAP
00006401000000
0008F421200000
000FFA41300000
000FB9BE833100
003E3216520200
00EF5122220100
00FFE510120000
00DFF988887000
005E8000003200
002D3032310400
00AC020A120400
01F6023F611130
07F1107FB01040
0CC02000002030
3FB03333334020
6FB02000002020
8FB020BEE12020
8FB010CFF11020
8FB0005FF10020
8FFED73FFEDC20
6FFF701EFFC100
ENDCHAR
STARTCHAR abrevegrave
ENCODING 7857
SWIDTH 830 0
DWIDTH 13 0
BBX 13 21 0 -2
BITMAP
00006401000000
0008F421200000
000FFA41300000
000FB9BE833100
003E3216520200
00EF5122220100
00FFE510120000
00DFF988887000
005E8000003200
002D3032310400
00AC020A120400
01F6023F611130
07F1107FB01040
0CC02000002030
3FB03333334020
6FB02000002020
8FB020BEE12020
8FB010CFF11020
8FB0005FF10020
8FFED73FFEDC20
6FFF701EFFC100
ENDCHAR
STARTCHAR Abrevehookabove
ENCODING 7858
SWIDTH 830 0
DWIDTH 13 0
BBX 13 23 0 -2
BITMAP
00000233331000
00004D12223000
0003FF66332000
0004FFB4132000
00029FB1233000
000079ADD73100
001B3219520200
00CF5122220100
00FFE510120000
00DFF988887000
005E8000003200
002D3032310400
00AC020A120400
01F6023F611130
07F1107FB01040
0CC02000002030
3FB03333334020
6FB02000002020
8FB020BEE12020
8FB010CFF11020
8FB0005FF10020
8FFED73FFEDC20
6FFF701EFFC100
ENDCHAR
STARTCHAR abrevehookabove
ENCODING 7859
SWIDTH 830 0
DWIDTH 13 0
BBX 13 23 0 -2
BITMAP
00000233331000
00004D12223000
0003FF66332000
0004FFB4132000
00029FB1233000
000079ADD73100
001B3219520200
00CF5122220100
00FFE510120000
00DFF988887000
005E8000003200
002D3032310400
00AC020A120400
01F6023F611130
07F1107FB01040
0CC02000002030
3FB03333334020
6FB02000002020
8FB020BEE12020
8FB010CFF11020
8FB0005FF10020
8FFED73FFEDC20
6FFF701EFFC100
ENDCHAR
STARTCHAR Abrevetilde
ENCODING 7860
SWIDTH 830 0
DWIDTH 13 0
BBX 13 22 0 -2
BITMAP
00002222234100
00055000000200
007F5133310200
00EF7464114100
00EFB9BFD94100
00AF3219520200
00EF5122220100
00FFE510120000
00DFF988887000
004E8000003200
002D3032310400
00AC020A120400
01F6023F611130
07F1107FB01040
0CC02000002030
3FB03333334020
6FB02000002020
8FB020BEE12020
8FB010CFF11020
8FB0005FF10020
8FFED73FFEDC20
6FFF701EFFC100
ENDCHAR
STARTCHAR abrevetilde
ENCODING 7861
SWIDTH 830 0
DWIDTH 13 0
BBX 13 22 0 -2
BITMAP
00002222234100
00055000000200
007F5133310200
00EF7464114100
00EFB9BFD94100
00AF3219520200
00EF5122220100
00FFE510120000
00DFF988887000
004E8000003200
002D3032310400
00AC020A120400
01F6023F611130
07F1107FB01040
0CC02000002030
3FB03333334020
6FB02000002020
8FB020BEE12020
8FB010CFF11020
8FB0005FF10020
8FFED73FFEDC20
6FFF701EFFC100
ENDCHAR
STARTCHAR Abrevedotbelow
ENCODING 7862
SWIDTH 830 0
DWIDTH 13 0
BBX 13 22 0 -6
BITMAP
00003330333100
001B3212520200
00CF5122220100
00FFE510120000
00DFF988887000
005E8000003200
002D3032310400
00AC020A120400
01F6023F611130
07F1107FB01040
0CC02000002030
3FB03333334020
6FB02000002020
8FB020BEE12020
8FB010CFF11020
8FB0005FF10020
8FFED9499CDC20
6FFFAC0007C100
0003ED02030000
0006FD00030000
0006FFFFC10000
0004EEE9000000
ENDCHAR
STARTCHAR abrevedotbelow
ENCODING 7863
SWIDTH 830 0
DWIDTH 13 0
BBX 13 22 0 -6
BITMAP
00003330333100
001B3212520200
00CF5122220100
00FFE510120000
00DFF988887000
005E8000003200
002D3032310400
00AC020A120400
01F6023F611130
07F1107FB01040
0CC02000002030
3FB03333334020
6FB02000002020
8FB020BEE12020
8FB010CFF11020
8FB0005FF10020
8FFED9499CDC20
6FFFAC0007C100
0003ED02030000
0006FD00030000
0006FFFFC10000
0004EEE9000000
ENDCHAR
STARTCHAR Edotbelow
ENCODING 7864
SWIDTH 754 0
DWIDTH 12 0
BBX 12 18 0 -6
BITMAP
006333333333
08E000000003
4FE022222203
4FE020000002
4FE0207FFFB0
4FE020233330
4FE032222030
4FE0206CCA20
4FE020498322
4FE020000003
4FE022222203
4FE000000002
4FFDCCAAACA1
3FFFF7000A10
0007F7020200
000CF8000300
000CFFFF8000
0009EED50000
ENDCHAR
STARTCHAR edotbelow
ENCODING 7865
SWIDTH 754 0
DWIDTH 12 0
BBX 12 18 0 -6
BITMAP
006333333333
08E000000003
4FE022222203
4FE020000002
4FE0207FFFB0
4FE020233330
4FE032222030
4FE0206CCA20
4FE020498322
4FE020000003
4FE022222203
4FE000000002
4FFDCCAAACA1
3FFFF7000A10
0007F7020200
000CF8000300
000CFFFF8000
0009EED50000
ENDCHAR
STARTCHAR Ehookabove
ENCODING 7866
SWIDTH 754 0
DWIDTH 12 0
BBX 12 19 0 -2
BITMAP
000033333100
0005E1222300
003FFA942200
004FFA122200
0006FC245100
006333333333
08E000000003
4FE022222203
4FE020000002
4FE0207FFFB0
4FE020233330
4FE032222030
4FE0206CCA20
4FE020498322
4FE020000003
4FE022222203
4FE000000002
4FFEDDDDDDA1
3FFFFFFFFA10
ENDCHAR
STARTCHAR ehookabove
ENCODING 7867
SWIDTH 754 0
DWIDTH 12 0
BBX 12 19 0 -2
BITMAP
000033333100
0005E1222300
003FFA942200
004FFA122200
0006FC245100
006333333333
08E000000003
4FE022222203
4FE020000002
4FE0207FFFB0
4FE020233330
4FE032222030
4FE0206CCA20
4FE020498322
4FE020000003
4FE022222203
4FE000000002
4FFEDDDDDDA1
3FFFFFFFFA10
ENDCHAR
STARTCHAR Etilde
ENCODING 7868
SWIDTH 754 0
DWIDTH 12 0
BBX 12 18 0 -2
BITMAP
000022333430
001900000020
01CD02333020
05FE25520100
05F333333333
08E000000003
4FE022222203
4FE020000002
4FE0207FFFB0
4FE020233330
4FE032222030
4FE0206CCA20
4FE020498322
4FE020000003
4FE022222203
4FE000000002
4FFEDDDDDDA1
3FFFFFFFFA10
ENDCHAR
STARTCHAR etilde
ENCODING 7869
SWIDTH 754 0
DWIDTH 12 0
BBX 12 18 0 -2
BITMAP
000022333430
001900000020
01CD02333020
05FE25520100
05F333333333
08E000000003
4FE022222203
4FE020000002
4FE0207FFFB0
4FE020233330
4FE032222030
4FE0206CCA20
4FE020498322
4FE020000003
4FE022222203
4FE000000002
4FFEDDDDDDA1
3FFFFFFFFA10
ENDCHAR
STARTCHAR Ecircumflexacute
ENCODING 7870
SWIDTH 754 0
DWIDTH 12 0
BBX 12 22 0 -2
BITMAP
000000000121
000000032102
0000006D0212
000004FE0252
000005A8CD20
000322322230
006D00110020
04FE7BFFD840
05F333333333
06E000000003
2FE022222203
4FE020000002
4FE0207FFFB0
4FE020233330
4FE032222030
4FE0206CCA20
4FE020498322
4FE020000003
4FE022222203
4FE000000002
4FFEDDDDDDA1
3FFFFFFFFA10
ENDCHAR
STARTCHAR ecircumflexacute
ENCODING 7871
SWIDTH 754 0
DWIDTH 12 0
BBX 12 22 0 -2
BITMAP
000000000121
000000032102
0000006D0212
000004FE0252
000005A8CD20
000322322230
006D00110020
04FE7BFFD840
05F333333333
06E000000003
2FE022222203
4FE020000002
4FE0207FFFB0
4FE020233330
4FE032222030
4FE0206CCA20
4FE020498322
4FE020000003
4FE022222203
4FE000000002
4FFEDDDDDDA1
3FFFFFFFFA10
ENDCHAR
STARTCHAR Ecircumflexgrave
ENCODING 7872
SWIDTH 754 0
DWIDTH 12 0
BBX 12 21 0 -2
BITMAP
000000172330
000002D91121
00000AFA0121
00000AA8BB60
000322322240
006D00110020
04FE7BFFD840
05F333333333
06E000000003
3FE022222203
4FE020000002
4FE0207FFFB0
4FE020233330
4FE032222030
4FE0206CCA20
4FE020498322
4FE020000003
4FE022222203
4FE000000002
4FFEDDDDDDA1
3FFFFFFFFA10
ENDCHAR
STARTCHAR ecircumflexgrave
ENCODING 7873
SWIDTH 754 0
DWIDTH 12 0
BBX 12 21 0 -2
BITMAP
000000172330
000002D91121
00000AFA0121
00000AA8BB60
000322322240
006D00110020
04FE7BFFD840
05F333333333
06E000000003
3FE022222203
4FE020000002
4FE0207FFFB0
4FE020233330
4FE032222030
4FE0206CCA20
4FE020498322
4FE020000003
4FE022222203
4FE000000002
4FFEDDDDDDA1
3FFFFFFFFA10
ENDCHAR
STARTCHAR Ecircumflexhookabove
ENCODING 7874
SWIDTH 754 0
DWIDTH 12 0
BBX 13 23 0 -2
BITMAP
00000003222310
0000005C133230
000004FE983220
000006FFA12320
0000029FA23630
000023316CE400
00071132203000
01AD0011002000
05FE7BFFD84000
05F33333333300
08E00000000300
4FE02222220300
4FE02000000200
4FE0207FFFB000
4FE02023333000
4FE03222203000
4FE0206CCA2000
4FE02049832200
4FE02000000300
4FE02222220300
4FE00000000200
4FFEDDDDDDA100
3FFFFFFFFA1000
ENDCHAR
STARTCHAR ecircumflexhookabove
ENCODING 7875
SWIDTH 754 0
DWIDTH 12 0
BBX 13 23 0 -2
BITMAP
00000003222310
0000005C133230
000004FE983220
000006FFA12320
0000029FA23630
000023316CE400
00071132203000
01AD0011002000
05FE7BFFD84000
05F33333333300
08E00000000300
4FE02222220300
4FE02000000200
4FE0207FFFB000
4FE02023333000
4FE03222203000
4FE0206CCA2000
4FE02049832200
4FE02000000300
4FE02222220300
4FE00000000200
4FFEDDDDDDA100
3FFFFFFFFA1000
ENDCHAR
STARTCHAR Ecircumflextilde
ENCODING 7876
SWIDTH 754 0
DWIDTH 12 0
BBX 12 22 0 -2
BITMAP
000022222330
001901000020
01CD01222020
05FE7A975630
05FFE9427600
027A11322030
00AD00110020
05FE7BFFD840
05F333333333
08E000000003
3FE022222203
4FE020000002
4FE0207FFFB0
4FE020233330
4FE032222030
4FE0206CCA20
4FE020498322
4FE020000003
4FE022222203
4FE000000002
4FFEDDDDDDA1
3FFFFFFFFA10
ENDCHAR
STARTCHAR ecircumflextilde
ENCODING 7877
SWIDTH 754 0
DWIDTH 12 0
BBX 12 22 0 -2
BITMAP
000022222330
001901000020
01CD01222020
05FE7A975630
05FFE9427600
027A11322030
00AD00110020
05FE7BFFD840
05F333333333
08E000000003
3FE022222203
4FE020000002
4FE0207FFFB0
4FE020233330
4FE032222030
4FE0206CCA20
4FE020498322
4FE020000003
4FE022222203
4FE000000002
4FFEDDDDDDA1
3FFFFFFFFA10
ENDCHAR
STARTCHAR Ecircumflexdotbelow
ENCODING 7878
SWIDTH 754 0
DWIDTH 12 0
BBX 12 22 0 -6
BITMAP
000001232000
000102322220
004C00110020
03FE7BFFD840
05F333333333
06E000000003
2EE022222203
4FE020000002
4FE0207FFFB0
4FE020233330
4FE032222030
4FE0206CCA20
4FE020498322
4FE020000003
4FE022222203
4FE000000002
4FFDCBAABC91
3FFFF4002B10
000AF4021100
000FF5002100
000FFFFE5000
000CEED30000
ENDCHAR
STARTCHAR ecircumflexdotbelow
ENCODING 7879
SWIDTH 754 0
DWIDTH 12 0
BBX 12 22 0 -6
BITMAP
000001232000
000102322220
004C00110020
03FE7BFFD840
05F333333333
06E000000003
2EE022222203
4FE020000002
4FE0207FFFB0
4FE020233330
4FE032222030
4FE0206CCA20
4FE020498322
4FE020000003
4FE022222203
4FE000000002
4FFDCBAABC91
3FFFF4002B10
000AF4021100
000FF5002100
000FFFFE5000
000CEED30000
ENDCHAR
STARTCHAR Ihookabove
ENCODING 7880
SWIDTH 705 0
DWIDTH 11 0
BBX 11 19 0 -2
BITMAP
000143332000
002C52232100
00DFCA711200
00DFF1231100
002EF4452000
018333333330
2DA000000020
8FB022322030
8FFDB0206C40
7FFFD0205300
016FD0202000
006FD0202000
006FD0202000
005970202220
04A000200020
4FA022322020
8FB000000020
8FFEDDDDDB10
6FFFFFFFC100
ENDCHAR
STARTCHAR ihookabove
ENCODING 7881
SWIDTH 705 0
DWIDTH 11 0
BBX 11 19 0 -2
BITMAP
000143332000
002C52232100
00DFCA711200
00DFF1231100
002EF4452000
018333333330
2DA000000020
8FB022322030
8FFDB0206C40
7FFFD0205300
016FD0202000
006FD0202000
006FD0202000
005970202220
04A000200020
4FA022322020
8FB000000020
8FFEDDDDDB10
6FFFFFFFC100
ENDCHAR
STARTCHAR Idotbelow
ENCODING 7882
SWIDTH 705 0
DWIDTH 11 0
BBX 11 18 0 -6
BITMAP
007333333330
1CA000000020
8FB022322030
8FFDB0206C40
7FFFD0205300
016FD0202000
006FD0202000
006FD0202000
005970202220
04A000200020
4FA022322020
8FB000000020
8FFDCAAACB20
6FFFD0006200
002ED0202000
006FD0003000
006FFFFC2000
004EEEA10000
ENDCHAR
STARTCHAR idotbelow
ENCODING 7883
SWIDTH 705 0
DWIDTH 11 0
BBX 11 18 0 -6
BITMAP
007333333330
1CA000000020
8FB022322030
8FFDB0206C40
7FFFD0205300
016FD0202000
006FD0202000
006FD0202000
005970202220
04A000200020
4FA022322020
8FB000000020
8FFDCAAACB20
6FFFD0006200
002ED0202000
006FD0003000
006FFFFC2000
004EEEA10000
ENDCHAR
STARTCHAR Odotbelow
ENCODING 7884
SWIDTH 837 0
DWIDTH 13 0
BBX 13 18 0 -6
BITMAP
00013333333200
00240222220130
03D02100003030
1EC0205CB02020
5FC0209FF12020
7FC0206FF12020
7FC0204FF12020
7FC0204FF12020
7FC0204FD02020
7FD02100003030
7FF20222230030
6FFC3000001510
2FFFFE877BB100
05EFFE00040000
0005FE02030000
0005FE10030000
0005FFFFC20000
0003DEEA100000
ENDCHAR
STARTCHAR odotbelow
ENCODING 7885
SWIDTH 837 0
DWIDTH 13 0
BBX 13 18 0 -6
BITMAP
00013333333200
00240222220130
03D02100003030
1EC0205CB02020
5FC0209FF12020
7FC0206FF12020
7FC0204FF12020
7FC0204FF12020
7FC0204FD02020
7FD02100003030
7FF20222230030
6FFC3000001510
2FFFFE877BB100
05EFFE00040000
0005FE02030000
0005FE10030000
0005FFFFC20000
0003DEEA100000
ENDCHAR
STARTCHAR Ohookabove
ENCODING 7886
SWIDTH 837 0
DWIDTH 13 0
BBX 13 19 0 -2
BITMAP
00000433320000
0001B722312000
000BFEB8022000
000BFF22212000
0001DF75760000
00028310123300
00430222220030
06D02100003030
2FC0205CB02020
6FC0209FF12020
7FC0206FF12020
7FC0204FF12020
7FC0204FF12020
7FC0204FD02020
7FD02100003030
6FF30222230030
3FFE7200014500
0AFFFFFEEF7000
006BEFFDA30000
ENDCHAR
STARTCHAR ohookabove
ENCODING 7887
SWIDTH 837 0
DWIDTH 13 0
BBX 13 19 0 -2
BITMAP
00000433320000
0001B722312000
000BFEB8022000
000BFF22212000
0001DF75760000
00028310123300
00430222220030
06D02100003030
2FC0205CB02020
6FC0209FF12020
7FC0206FF12020
7FC0204FF12020
7FC0204FF12020
7FC0204FD02020
7FD02100003030
6FF30222230030
3FFE7200014500
0AFFFFFEEF7000
006BEFFDA30000
ENDCHAR
STARTCHAR Ocircumflexacute
ENCODING 7888
SWIDTH 837 0
DWIDTH 13 0
BBX 13 22 0 -2
BITMAP
00000000158600
00000003931300
0000005F620200
000000CF714000
00001351395000
00036023311200
005E6000010200
00DF86ADC74200
00DFA532246200
00B50222220120
07E02100003030
3FC0205CB02020
6FC0209FF12020
7FC0206FF12020
7FC0204FF12020
7FC0204FF12020
7FC0204FD02020
7FD02100003030
6FF30222230030
3FFE7200014500
0AFFFFFEEF7000
006BEFFDA30000
ENDCHAR
STARTCHAR ocircumflexacute
ENCODING 7889
SWIDTH 837 0
DWIDTH 13 0
BBX 13 22 0 -2
BITMAP
00000000158600
00000003931300
0000005F620200
000000CF714000
00001351395000
00036023311200
005E6000010200
00DF86ADC74200
00DFA532246200
00B50222220120
07E02100003030
3FC0205CB02020
6FC0209FF12020
7FC0206FF12020
7FC0204FF12020
7FC0204FF12020
7FC0204FD02020
7FD02100003030
6FF30222230030
3FFE7200014500
0AFFFFFEEF7000
006BEFFDA30000
ENDCHAR
STARTCHAR Ocircumflexgrave
ENCODING 7890
SWIDTH 837 0
DWIDTH 13 0
BBX 13 22 0 -2
BITMAP
00000000420000
0000001A568400
000001CF121200
000002FF300200
00001461366000
00036023311200
005E6000010200
00DF86ADC74200
00DFA532246200
00B50222220120
07E02100003030
3FC0205CB02020
6FC0209FF12020
7FC0206FF12020
7FC0204FF12020
7FC0204FF12020
7FC0204FD02020
7FD02100003030
6FF30222230030
3FFE7200014500
0AFFFFFEEF7000
006BEFFDA30000
ENDCHAR
STARTCHAR ocircumflexgrave
ENCODING 7891
SWIDTH 837 0
DWIDTH 13 0
BBX 13 22 0 -2
BITMAP
00000000420000
0000001A568400
000001CF121200
000002FF300200
00001461366000
00036023311200
005E6000010200
00DF86ADC74200
00DFA532246200
00B50222220120
07E02100003030
3FC0205CB02020
6FC0209FF12020
7FC0206FF12020
7FC0204FF12020
7FC0204FF12020
7FC0204FD02020
7FD02100003030
6FF30222230030
3FFE7200014500
0AFFFFFEEF7000
006BEFFDA30000
ENDCHAR
STARTCHAR Ocircumflexhookabove
ENCODING 7892
SWIDTH 837 0
DWIDTH 13 0
BBX 14 23 0 -2
BITMAP
00000000322220
0000001B523321
000000BFB88122
000000DFF32312
0000005DF33460
0000144149EA10
00036023311200
005E6000010200
00DF86ADC74200
00DFA532246200
00B50222220120
07E02100003030
3FC0205CB02020
6FC0209FF12020
7FC0206FF12020
7FC0204FF12020
7FC0204FF12020
7FC0204FD02020
7FD02100003030
6FF30222230030
3FFE7200014500
0AFFFFFEEF7000
006BEFFDA30000
ENDCHAR
STARTCHAR ocircumflexhookabove
ENCODING 7893
SWIDTH 837 0
DWIDTH 13 0
BBX 14 23 0 -2
BITMAP
00000000322220
0000001B523321
000000BFB88122
000000DFF32312
0000005DF33460
0000144149EA10
00036023311200
005E6000010200
00DF86ADC74200
00DFA532246200
00B50222220120
07E02100003030
3FC0205CB02020
6FC0209FF12020
7FC0206FF12020
7FC0204FF12020
7FC0204FF12020
7FC0204FD02020
7FD02100003030
6FF30222230030
3FFE7200014500
0AFFFFFEEF7000
006BEFFDA30000
ENDCHAR
STARTCHAR Ocircumflextilde
ENCODING 7894
SWIDTH 837 0
DWIDTH 13 0
BBX 13 22 0 -2
BITMAP
00001222233100
00045010000200
006F6022210200
00DFA9A8665000
00DFFD72492000
00588023312200
004E6000010200
00DF86ADC74200
00DFA532246200
00B50222220120
07E02100003030
3FC0205CB02020
6FC0209FF12020
7FC0206FF12020
7FC0204FF12020
7FC0204FF12020
7FC0204FD02020
7FD02100003030
6FF30222230030
3FFE7200014500
0AFFFFFEEF7000
006BEFFDA30000
ENDCHAR
STARTCHAR ocircumflextilde
ENCODING 7895
SWIDTH 837 0
DWIDTH 13 0
BBX 13 22 0 -2
BITMAP
00001222233100
00045010000200
006F6022210200
00DFA9A8665000
00DFFD72492000
00588023312200
004E6000010200
00DF86ADC74200
00DFA532246200
00B50222220120
07E02100003030
3FC0205CB02020
6FC0209FF12020
7FC0206FF12020
7FC0204FF12020
7FC0204FF12020
7FC0204FD02020
7FD02100003030
6FF30222230030
3FFE7200014500
0AFFFFFEEF7000
006BEFFDA30000
ENDCHAR
STARTCHAR Ocircumflexdotbelow
ENCODING 7896
SWIDTH 837 0
DWIDTH 13 0
BBX 13 22 0 -6
BITMAP
00000023310000
00004233322100
002C6000010200
00CF86ADC74200
00DFA532246200
00A50222220120
06E02100003030
2FC0205CB02020
6FC0209FF12020
7FC0206FF12020
7FC0204FF12020
7FC0204FF12020
7FC0204FD02020
7FD02100003030
7FF20222230030
6FFC3000001510
2FFFFE877BB100
05EFFE00040000
0004FE02030000
0005FE00030000
0005FFEEC20000
0003FFFB100000
ENDCHAR
STARTCHAR ocircumflexdotbelow
ENCODING 7897
SWIDTH 837 0
DWIDTH 13 0
BBX 13 22 0 -6
BITMAP
00000023310000
00004233322100
002C6000010200
00CF86ADC74200
00DFA532246200
00A50222220120
06E02100003030
2FC0205CB02020
6FC0209FF12020
7FC0206FF12020
7FC0204FF12020
7FC0204FF12020
7FC0204FD02020
7FD02100003030
7FF20222230030
6FFC3000001510
2FFFFE877BB100
05EFFE00040000
0004FE02030000
0005FE00030000
0005FFEEC20000
0003FFFB100000
ENDCHAR
STARTCHAR Ohornacute
ENCODING 7898
SWIDTH 847 0
DWIDTH 14 0
BBX 14 18 0 -2
BITMAP
00001245553000
00075432302000
01BC0000004222
07FC135789B003
07FE8310121123
02C40100144222
08D01100005020
3FC0205CB03020
6FC0209FF12020
7FC0206FF12020
7FC0204FF12020
7FC0204FF12020
7FC0204FD02020
7FD02100003020
7FF30222220030
5FFE7200014400
1DFFFFFEEF6000
018CEFFDA30000
ENDCHAR
STARTCHAR ohornacute
ENCODING 7899
SWIDTH 847 0
DWIDTH 14 0
BBX 14 18 0 -2
BITMAP
00001245553000
00075432302000
01BC0000004222
07FC135789B003
07FE8310121123
02C40100144222
08D01100005020
3FC0205CB03020
6FC0209FF12020
7FC0206FF12020
7FC0204FF12020
7FC0204FF12020
7FC0204FD02020
7FD02100003020
7FF30222220030
5FFE7200014400
1DFFFFFEEF6000
018CEFFDA30000
ENDCHAR
STARTCHAR Ohorngrave
ENCODING 7900
SWIDTH 847 0
DWIDTH 14 0
BBX 14 19 0 -2
BITMAP
00013100000000
003B8AAAA82000
04E90222224000
09FA0000005222
09FFDB97549003
04BD7310011123
00530100144222
06D01100005020
2FC0205CB03020
6FC0209FF12020
7FC0206FF12020
7FC0204FF12020
7FC0204FF12020
7FC0204FD02020
7FD02100003020
7FF30222220030
5FFE7200014400
1DFFFFFEEF6000
018CEFFDA30000
ENDCHAR
STARTCHAR ohorngrave
ENCODING 7901
SWIDTH 847 0
DWIDTH 14 0
BBX 14 19 0 -2
BITMAP
00013100000000
003B8AAAA82000
04E90222224000
09FA0000005222
09FFDB97549003
04BD7310011123
00530100144222
06D01100005020
2FC0205CB03020
6FC0209FF12020
7FC0206FF12020
7FC0204FF12020
7FC0204FF12020
7FC0204FD02020
7FD02100003020
7FF30222220030
5FFE7200014400
1DFFFFFEEF6000
018CEFFDA30000
ENDCHAR
STARTCHAR Ohornhookabove
ENCODING 7902
SWIDTH 847 0
DWIDTH 14 0
BBX 14 19 0 -2
BITMAP
00000433320000
0002C722312000
000BFEB8022000
0009EF22204222
0001EF7578A003
00028310121123
00430100144222
06D01100005020
2FC0205CB03020
6FC0209FF12020
7FC0206FF12020
7FC0204FF12020
7FC0204FF12020
7FC0204FD02020
7FD02100003020
7FF30222220030
5FFE7200014400
1DFFFFFEEF6000
018CEFFDA30000
ENDCHAR
STARTCHAR ohornhookabove
ENCODING 7903
SWIDTH 847 0
DWIDTH 14 0
BBX 14 19 0 -2
BITMAP
00000433320000
0002C722312000
000BFEB8022000
0009EF22204222
0001EF7578A003
00028310121123
00430100144222
06D01100005020
2FC0205CB03020
6FC0209FF12020
7FC0206FF12020
7FC0204FF12020
7FC0204FF12020
7FC0204FD02020
7FD02100003020
7FF30222220030
5FFE7200014400
1DFFFFFEEF6000
018CEFFDA30000
ENDCHAR
STARTCHAR Ohorntilde
ENCODING 7904
SWIDTH 847 0
DWIDTH 14 0
BBX 14 18 0 -2
BITMAP
00003222221000
001A0122102000
02DD0000003222
06FD2542028003
06FE8310121123
01940100144222
07D01100005020
3FC0205CB03020
6FC0209FF12020
7FC0206FF12020
7FC0204FF12020
7FC0204FF12020
7FC0204FD02020
7FD02100003020
7FF30222220030
5FFE7200014400
1DFFFFFEEF6000
018CEFFDA30000
ENDCHAR
STARTCHAR ohorntilde
ENCODING 7905
SWIDTH 847 0
DWIDTH 14 0
BBX 14 18 0 -2
BITMAP
00003222221000
001A0122102000
02DD0000003222
06FD2542028003
06FE8310121123
01940100144222
07D01100005020
3FC0205CB03020
6FC0209FF12020
7FC0206FF12020
7FC0204FF12020
7FC0204FF12020
7FC0204FD02020
7FD02100003020
7FF30222220030
5FFE7200014400
1DFFFFFEEF6000
018CEFFDA30000
ENDCHAR
STARTCHAR Ohorndotbelow
ENCODING 7906
SWIDTH 847 0
DWIDTH 14 0
BBX 14 20 0 -6
BITMAP
00000000002222
0000000001A003
00012222221123
00230100144222
03D01100005020
1EC0205CB03020
5FC0209FF12020
7FC0206FF12020
7FC0204FF12020
7FC0204FF12020
7FC0204FD02020
7FD02100003030
7FF20222220030
6FFC3000001510
2FFFFE877BA100
05EFFE00040000
0005FE02030000
0005FE10030000
0005FFFFC20000
0003DEEA100000
ENDCHAR
STARTCHAR ohorndotbelow
ENCODING 7907
SWIDTH 847 0
DWIDTH 14 0
BBX 14 20 0 -6
BITMAP
00000000002222
0000000001A003
00012222221123
00230100144222
03D01100005020
1EC0205CB03020
5FC0209FF12020
7FC0206FF12020
7FC0204FF12020
7FC0204FF12020
7FC0204FD02020
7FD02100003030
7FF20222220030
6FFC3000001510
2FFFFE877BA100
05EFFE00040000
0005FE02030000
0005FE10030000
0005FFFFC20000
0003DEEA100000
ENDCHAR
STARTCHAR Udotbelow
ENCODING 7908
SWIDTH 846 0
DWIDTH 14 0
BBX 13 18 0 -6
BITMAP
00633330353330
09D01025F31020
5FD0203FF32120
5FD0203FF32120
5FD0203FF32120
5FD0203FF32120
5FD0203FF32120
5FD0203FF32120
5FD0202DC12020
5FE01200003030
5FF30122230030
4FFD4000001510
1DFFFE877BB100
03DFFF00040000
0003EF02030000
0004FF10030000
0004FFFFD20000
0002DEEB100000
ENDCHAR
STARTCHAR udotbelow
ENCODING 7909
SWIDTH 846 0
DWIDTH 14 0
BBX 13 18 0 -6
BITMAP
00633330353330
09D01025F31020
5FD0203FF32120
5FD0203FF32120
5FD0203FF32120
5FD0203FF32120
5FD0203FF32120
5FD0203FF32120
5FD0202DC12020
5FE01200003030
5FF30122230030
4FFD4000001510
1DFFFE877BB100
03DFFF00040000
0003EF02030000
0004FF10030000
0004FFFFD20000
0002DEEB100000
ENDCHAR
STARTCHAR Uhookabove
ENCODING 7910
SWIDTH 846 0
DWIDTH 14 0
BBX 13 19 0 -2
BITMAP
00000333331000
00005D12223000
0004FFA9432000
0004FFA1222000
00007FC2451000
006333AFF63330
0AD0104AF31020
5FD0203FF32120
5FD0203FF32120
5FD0203FF32120
5FD0203FF32120
5FD0203FF32120
5FD0203FF32120
5FD0202DC12020
5FF01200003020
4FF40122230030
2FFE7200014400
09FFFFFEEF7000
005BEFFDA30000
ENDCHAR
STARTCHAR uhookabove
ENCODING 7911
SWIDTH 846 0
DWIDTH 14 0
BBX 13 19 0 -2
BITMAP
00000333331000
00005D12223000
0004FFA9432000
0004FFA1222000
00007FC2451000
006333AFF63330
0AD0104AF31020
5FD0203FF32120
5FD0203FF32120
5FD0203FF32120
5FD0203FF32120
5FD0203FF32120
5FD0203FF32120
5FD0202DC12020
5FF01200003020
4FF40122230030
2FFE7200014400
09FFFFFEEF7000
005BEFFDA30000
ENDCHAR
STARTCHAR Uhornacute
ENCODING 7912
SWIDTH 856 0
DWIDTH 14 0
BBX 14 18 0 -2
BITMAP
00002456664000
00085432302000
01CC0000004322
07FC135789C002
07E444AED62033
0AD01035F31313
5FD0203FF32130
5FD0203FF32120
5FD0203FF32120
5FD0203FF32120
5FD0203FF32120
5FD0203FF32120
5FD0202DC12020
5FE01200003030
5FF40122231030
3FFE7200014500
0BFFFFFEEF7000
007CEFFDA30000
ENDCHAR
STARTCHAR uhornacute
ENCODING 7913
SWIDTH 856 0
DWIDTH 14 0
BBX 14 18 0 -2
BITMAP
00002456664000
00085432302000
01CC0000004322
07FC135789C002
07E444AED62033
0AD01035F31313
5FD0203FF32130
5FD0203FF32120
5FD0203FF32120
5FD0203FF32120
5FD0203FF32120
5FD0203FF32120
5FD0202DC12020
5FE01200003030
5FF40122231030
3FFE7200014500
0BFFFFFEEF7000
007CEFFDA30000
ENDCHAR
STARTCHAR Uhorngrave
ENCODING 7914
SWIDTH 856 0
DWIDTH 14 0
BBX 14 18 0 -2
BITMAP
001AAAA9751000
02D90223445000
09F90000004322
09FEA97531A002
06E444AFF72033
09D0105DF31313
5FD0203FF32130
5FD0203FF32120
5FD0203FF32120
5FD0203FF32120
5FD0203FF32120
5FD0203FF32120
5FD0202DC12020
5FE01200003030
5FF40122231030
3FFE7200014500
0BFFFFFEEF7000
007CEFFDA30000
ENDCHAR
STARTCHAR uhorngrave
ENCODING 7915
SWIDTH 856 0
DWIDTH 14 0
BBX 14 18 0 -2
BITMAP
001AAAA9751000
02D90223445000
09F90000004322
09FEA97531A002
06E444AFF72033
09D0105DF31313
5FD0203FF32130
5FD0203FF32120
5FD0203FF32120
5FD0203FF32120
5FD0203FF32120
5FD0203FF32120
5FD0202DC12020
5FE01200003030
5FF40122231030
3FFE7200014500
0BFFFFFEEF7000
007CEFFDA30000
ENDCHAR
STARTCHAR Uhornhookabove
ENCODING 7916
SWIDTH 856 0
DWIDTH 14 0
BBX 14 19 0 -2
BITMAP
00000433330000
00009B12222000
0007FFC9322000
0005DF71214322
00009FA57AD002
006333AFE62033
0AD01049F31413
5FD0203FF32130
5FD0203FF32120
5FD0203FF32120
5FD0203FF32120
5FD0203FF32120
5FD0203FF32120
5FD0202DC12020
5FF01200003030
5FF40122231030
3FFE7200014500
0BFFFFFEEF7000
007CEFFDA30000
ENDCHAR
STARTCHAR uhornhookabove
ENCODING 7917
SWIDTH 856 0
DWIDTH 14 0
BBX 14 19 0 -2
BITMAP
00000433330000
00009B12222000
0007FFC9322000
0005DF71214322
00009FA57AD002
006333AFE62033
0AD01049F31413
5FD0203FF32130
5FD0203FF32120
5FD0203FF32120
5FD0203FF32120
5FD0203FF32120
5FD0203FF32120
5FD0202DC12020
5FF01200003030
5FF40122231030
3FFE7200014500
0BFFFFFEEF7000
007CEFFDA30000
ENDCHAR
STARTCHAR Uhorntilde
ENCODING 7918
SWIDTH 856 0
DWIDTH 14 0
BBX 14 18 0 -2
BITMAP
00003222222000
00190221002000
02DC0001204322
07FC354203C002
07E444AFF72033
0AD0105CF31313
5FD0203FF32130
5FD0203FF32120
5FD0203FF32120
5FD0203FF32120
5FD0203FF32120
5FD0203FF32120
5FD0202DC12020
5FE01200003030
5FF40122231030
3FFE7200014500
0BFFFFFEEF7000
007CEFFDA30000
ENDCHAR
STARTCHAR uhorntilde
ENCODING 7919
SWIDTH 856 0
DWIDTH 14 0
BBX 14 18 0 -2
BITMAP
00003222222000
00190221002000
02DC0001204322
07FC354203C002
07E444AFF72033
0AD0105CF31313
5FD0203FF32130
5FD0203FF32120
5FD0203FF32120
5FD0203FF32120
5FD0203FF32120
5FD0203FF32120
5FD0202DC12020
5FE01200003030
5FF40122231030
3FFE7200014500
0BFFFFFEEF7000
007CEFFDA30000
ENDCHAR
STARTCHAR Uhorndotbelow
ENCODING 7920
SWIDTH 856 0
DWIDTH 14 0
BBX 14 20 0 -6
BITMAP
00000000002322
0000000003C002
00633330552033
09D01025F31413
5FD0203FF32130
5FD0203FF32120
5FD0203FF32120
5FD0203FF32120
5FD0203FF32120
5FD0203FF32120
5FD0202DC12020
5FE01200003030
5FF30122231030
4FFD4000001510
1DFFFE877BB100
03DFFF00040000
0003EF02030000
0004FF10030000
0004FFFFD20000
0002DEEB100000
ENDCHAR
STARTCHAR uhorndotbelow
ENCODING 7921
SWIDTH 856 0
DWIDTH 14 0
BBX 14 20 0 -6
BITMAP
00000000002322
0000000003C002
00633330552033
09D01025F31413
5FD0203FF32130
5FD0203FF32120
5FD0203FF32120
5FD0203FF32120
5FD0203FF32120
5FD0203FF32120
5FD0202DC12020
5FE01200003030
5FF30122231030
4FFD4000001510
1DFFFE877BB100
03DFFF00040000
0003EF02030000
0004FF10030000
0004FFFFD20000
0002DEEB100000
ENDCHAR
STARTCHAR Ygrave
ENCODING 7922
SWIDTH 805 0
DWIDTH 13 0
BBX 13 18 0 -2
BITMAP
00057777531000
007E0222246000
03FE0001202000
04FFC976421000
03B333EFE33330
2C80105DD01020
9F80308FD02020
AF80308FD02020
AF90306F703020
AFD11206021120
9FF90210120300
4FFF5024202000
09FFE202011000
01CFF902020000
003FF901020000
0009FA00020000
0009FFDD910000
0007FFF9000000
ENDCHAR
STARTCHAR ygrave
ENCODING 7923
SWIDTH 805 0
DWIDTH 13 0
BBX 13 18 0 -2
BITMAP
00057777531000
007E0222246000
03FE0001202000
04FFC976421000
03B333EFE33330
2C80105DD01020
9F80308FD02020
AF80308FD02020
AF90306F703020
AFD11206021120
9FF90210120300
4FFF5024202000
09FFE202011000
01CFF902020000
003FF901020000
0009FA00020000
0009FFDD910000
0007FFF9000000
ENDCHAR
STARTCHAR Ydotbelow
ENCODING 7924
SWIDTH 805 0
DWIDTH 13 0
BBX 13 18 0 -6
BITMAP
01633320633330
1C80103AD01020
9F80308FD02020
AF80308FD02020
AF90306F703020
AFD11206021120
9FF90210120300
4FFF5024202000
09FFE202012000
01DFF902020000
003FF901020000
000AFA00020000
0009FEAA920000
0007FA00020000
0005F902020000
0009FA00030000
0009FFFFA00000
0006EEE7000000
ENDCHAR
STARTCHAR ydotbelow
ENCODING 7925
SWIDTH 805 0
DWIDTH 13 0
BBX 13 18 0 -6
BITMAP
01633320633330
1C80103AD01020
9F80308FD02020
AF80308FD02020
AF90306F703020
AFD11206021120
9FF90210120300
4FFF5024202000
09FFE202012000
01DFF902020000
003FF901020000
000AFA00020000
0009FEAA920000
0007FA00020000
0005F902020000
0009FA00030000
0009FFFFA00000
0006EEE7000000
ENDCHAR
STARTCHAR Yhookabove
ENCODING 7926
SWIDTH 805 0
DWIDTH 13 0
BBX 13 19 0 -2
BITMAP
00001433320000
0002C422321000
000DFCA7212000
000EFF12311000
0003EF34630000
016333EEB33330
2C80106BD01020
9F80308FD02020
AF80308FD02020
AF90306F703020
AFD11206021120
9FF90210120300
4FFF5024202000
09FFE202011000
01CFF902020000
003FF901020000
0009FA00020000
0009FFDD910000
0007FFF9000000
ENDCHAR
STARTCHAR yhookabove
ENCODING 7927
SWIDTH 805 0
DWIDTH 13 0
BBX 13 19 0 -2
BITMAP
00001433320000
0002C422321000
000DFCA7212000
000EFF12311000
0003EF34630000
016333EEB33330
2C80106BD01020
9F80308FD02020
AF80308FD02020
AF90306F703020
AFD11206021120
9FF90210120300
4FFF5024202000
09FFE202011000
01CFF902020000
003FF901020000
0009FA00020000
0009FFDD910000
0007FFF9000000
ENDCHAR
STARTCHAR Ytilde
ENCODING 7928
SWIDTH 805 0
DWIDTH 13 0
BBX 13 18 0 -2
BITMAP
00002223344000
00072000002000
00AF2133312000
02FF4553110000
02B333EFE33330
2C80108ED01020
9F80308FD02020
AF80308FD02020
AF90306F703020
AFD11206021120
9FF90210120300
4FFF5024202000
09FFE202011000
01CFF902020000
003FF901020000
0009FA00020000
0009FFDD910000
0007FFF9000000
ENDCHAR
STARTCHAR ytilde
ENCODING 7929
SWIDTH 805 0
DWIDTH 13 0
BBX 13 18 0 -2
BITMAP
00002223344000
00072000002000
00AF2133312000
02FF4553110000
02B333EFE33330
2C80108ED01020
9F80308FD02020
AF80308FD02020
AF90306F703020
AFD11206021120
9FF90210120300
4FFF5024202000
09FFE202011000
01CFF902020000
003FF901020000
0009FA00020000
0009FFDD910000
0007FFF9000000
ENDCHAR
STARTCHAR enspace
ENCODING 8192
SWIDTH 500 0
DWIDTH 8 0
BBX 1 1 0 0
BITMAP
00
ENDCHAR
STARTCHAR emspace
ENCODING 8193
SWIDTH 1000 0
DWIDTH 16 0
BBX 1 1 0 0
BITMAP
00
ENDCHAR
STARTCHAR uni2002
ENCODING 8194
SWIDTH 500 0
DWIDTH 8 0
BBX 1 1 0 0
BITMAP
00
ENDCHAR
STARTCHAR uni2003
ENCODING 8195
SWIDTH 1000 0
DWIDTH 16 0
BBX 1 1 0 0
BITMAP
00
ENDCHAR
STARTCHAR space.tab_en
ENCODING 8199
SWIDTH 1100 0
DWIDTH 18 0
BBX 1 1 0 0
BITMAP
00
ENDCHAR
STARTCHAR uni2010
ENCODING 8208
SWIDTH 520 0
DWIDTH 8 0
BBX 9 6 0 2
BITMAP
0032222300
0870000110
8F70221110
BF80000210
BFFEEED500
9FFFFE4000
ENDCHAR
STARTCHAR figuredash
ENCODING 8210
SWIDTH 834 0
DWIDTH 13 0
BBX 13 6 0 2
BITMAP
00132222222220
02C00000000020
2EE01222222020
4FF00000000020
4FFEEEEEEEEB10
3FFFFFFFFFA100
ENDCHAR
STARTCHAR endash
ENCODING 8211
SWIDTH 834 0
DWIDTH 13 0
BBX 13 6 0 2
BITMAP
00132222222220
02C00000000020
2EE01222222020
4FF00000000020
4FFEEEEEEEEB10
3FFFFFFFFFA100
ENDCHAR
STARTCHAR emdash
ENCODING 8212
SWIDTH 1234 0
DWIDTH 20 0
BBX 19 6 0 2
BITMAP
00132222222222222230
02C00000000000000020
2EE01222222222222120
4FF00000000000000020
4FFEEEEEEEEEEEEEED40
3FFFFFFFFFFFFFFFE300
ENDCHAR
STARTCHAR horizontalbar
ENCODING 8213
SWIDTH 1234 0
DWIDTH 20 0
BBX 19 6 0 2
BITMAP
00132222222222222230
02C00000000000000020
2EE01222222222222120
4FF00000000000000020
4FFEEEEEEEEEEEEEED40
3FFFFFFFFFFFFFFFE300
ENDCHAR
STARTCHAR quoteleft
ENCODING 8216
SWIDTH 484 0
DWIDTH 8 0
BBX 8 8 0 4
BITMAP
00033340
01A02221
1CB13A70
5FB20002
7FB12202
8FB00003
8FFEEE90
6FFFE600
ENDCHAR
STARTCHAR quoteright
ENCODING 8217
SWIDTH 484 0
DWIDTH 8 0
BBX 8 9 0 3
BITMAP
00633332
1AB02302
7FB00202
8FB00202
8FFBA302
5EE02210
2EF99500
4FFF7000
02210000
ENDCHAR
STARTCHAR quotesinglbase
ENCODING 8218
SWIDTH 484 0
DWIDTH 8 0
BBX 8 9 0 -4
BITMAP
00222221
05A00002
5FB02302
8FB00202
8FFBA302
6FE02221
2DF76730
4FFFD200
18861000
ENDCHAR
STARTCHAR quotedblleft
ENCODING 8220
SWIDTH 784 0
DWIDTH 13 0
BBX 13 8 0 4
BITMAP
00133340333400
02903238022200
2E923ADB22A700
8F82001A200020
AF82221A122020
AF90001B000020
AFFEEEEFEEE800
8FFFEAFFFE6000
ENDCHAR
STARTCHAR quotedblright
ENCODING 8221
SWIDTH 784 0
DWIDTH 13 0
BBX 13 9 0 3
BITMAP
01633348333320
1C81231A023020
9F80031A002020
AF90031B002020
AFFB832FBA2010
7FC1218E022100
4FE99AFF995000
6FFE75FFE70000
02200022100000
ENDCHAR
STARTCHAR quotedblbase
ENCODING 8222
SWIDTH 784 0
DWIDTH 13 0
BBX 13 9 0 -4
BITMAP
00322232222210
0780001A000020
7F81231A023020
AF90031B002020
AFFB832FBA2020
8FC1226E022300
3EE778FF767200
7FFFB6FFFC2000
28850188610000
ENDCHAR
STARTCHAR dagger
ENCODING 8224
SWIDTH 818 0
DWIDTH 13 0
BBX 13 14 0 -2
BITMAP
00000733330000
0001AD00020000
0007FE02021210
02801202021020
3EA02224222020
9FA00002000020
9FEACD120CCA30
9FFFFF020DF500
3545FF02063000
0003FE02020000
0004FD01020000
0005FD00020000
0006FFEDA10000
0005FFFA000000
ENDCHAR
STARTCHAR daggerdbl
ENCODING 8225
SWIDTH 818 0
DWIDTH 13 0
BBX 13 14 0 -2
BITMAP
00000733330000
0013BD00032320
04900202011020
5FA02335333020
9FA00202021020
9FFEFD020BFC20
7DCDFD0209B310
02801202021020
3EA02224222020
9FA00002000020
9FD8AA0108A840
8FFFFD000AE500
1325FFEEB31000
0005FFFA100000
ENDCHAR
STARTCHAR bullet
ENCODING 8226
SWIDTH 543 0
DWIDTH 9 0
BBX 9 8 0 1
BITMAP
0032222210
0880323030
8F80202030
AF80202030
AF80323030
AF90000030
AFFEEEE910
8FFFFF7000
ENDCHAR
STARTCHAR ellipsis
ENCODING 8230
SWIDTH 1210 0
DWIDTH 19 0
BBX 19 7 0 -2
BITMAP
00222221322230322220
05A0000980001B500020
5FB0200D80201F502020
8FB0100D80101F501020
8FB0000E80002F600020
8FFEDDDFFDDDEFFDDC30
6FFFE69FFFE4BFFFC200
ENDCHAR
STARTCHAR perthousand
ENCODING 8240
SWIDTH 1517 0
DWIDTH 24 0
BBX 25 14 0 -2
BITMAP
00222333033340000000000000
038032206C0030000000000000
3E831811C90230000000000000
AF833E02C62030000000000000
BF832D02C22130000000000000
BF930011B02412223102223200
AFE43237A02642331581332210
7FFFFEFF620B12543373272020
19EFE9AF320F129723734C2120
000000DE024F128723733C2120
000001FA027F22003473002020
000005F800BF93333BD3333410
000009FFE9FFFFEEDFFFEEA100
00000AFF706DFFC43BEFD70000
ENDCHAR
STARTCHAR minute
ENCODING 8242
SWIDTH 456 0
DWIDTH 7 0
BBX 7 8 0 4
BITMAP
00733340
0AD01020
4FD03020
5FC03020
6FB02020
7FB00020
7FFEEA10
6FFF9000
ENDCHAR
STARTCHAR second
ENCODING 8243
SWIDTH 766 0
DWIDTH 12 0
BBX 12 8 0 4
BITMAP
007333473334
0AD0104D0102
4FD0305C0302
5FC0307B0302
6FB0208B0202
7FB000AB0002
7FFEEEFFEEA1
6FFF97FFF900
ENDCHAR
STARTCHAR guilsinglleft
ENCODING 8249
SWIDTH 663 0
DWIDTH 11 0
BBX 10 11 0 -1
BITMAP
0000002222
0002320003
0072022213
09D0300133
3FC0209E80
6FD0210013
6FF3022213
5FFE962003
1CFFFFFEB3
0058BEFE40
0000002200
ENDCHAR
STARTCHAR guilsinglright
ENCODING 8250
SWIDTH 663 0
DWIDTH 11 0
BBX 11 11 0 -1
BITMAP
002322100000
03E200123100
1EF212220300
2FF731002200
2FFFFD503210
08D510012200
06F212210300
1FF201377100
2FFBCFF80000
1FFDA7300000
031000000000
ENDCHAR
STARTCHAR fraction
ENCODING 8260
SWIDTH 417 0
DWIDTH 7 0
BBX 8 14 -1 -2
BITMAP
00005334
0007B013
004F9023
007F6203
00AF3203
00DF1202
01FD0220
03FA0230
06F81130
09F53030
0BF22030
0EF00110
2FFED500
2EFE4000
ENDCHAR
STARTCHAR zero.sups
ENCODING 8304
SWIDTH 656 0
DWIDTH 11 0
BBX 10 11 0 1
BITMAP
0012222220
0360222112
1E421E9202
5F422FA112
5F422EA112
5F421EA112
5F42021202
5F70222112
2FF7322430
07FFFFE500
0013430000
ENDCHAR
STARTCHAR foursuperior
ENCODING 8308
SWIDTH 608 0
DWIDTH 10 0
BBX 10 11 0 1
BITMAP
0173357332
2D820D9202
AF820D9202
BF820D9202
BF82022202
BF90322402
AFE4000202
8FFFFF9102
18BBEFB442
0000AFFE50
00005AA300
ENDCHAR
STARTCHAR five.sups
ENCODING 8309
SWIDTH 593 0
DWIDTH 9 0
BBX 10 10 0 2
BITMAP
0073333330
1BC0322120
6FC026BC40
6FC0200040
6FD0322202
6FFFFF6202
6FB0000202
2DB1222240
7FFEEEE900
7FFFFD6000
ENDCHAR
STARTCHAR six.sups
ENCODING 8310
SWIDTH 628 0
DWIDTH 10 0
BBX 10 11 0 1
BITMAP
0003233330
0091222120
0BC027CD40
5FC0210022
7FC0522203
7FC029D023
7FC0246023
7FF2122203
5FFE866750
1DFFFFF600
0179A83000
ENDCHAR
STARTCHAR seven.sups
ENCODING 8311
SWIDTH 577 0
DWIDTH 9 0
BBX 9 10 0 2
BITMAP
0363333330
5E71222220
CFFEEE0220
BFFF940220
0026022120
03E5207500
0CF4206000
0EF5002000
0EFFE70000
0DFE500000
ENDCHAR
STARTCHAR eight.sups
ENCODING 8312
SWIDTH 638 0
DWIDTH 10 0
BBX 10 11 0 1
BITMAP
0003222230
01A4122202
0CF228C112
1FF7223131
0ED1344403
2E920CF222
8F92034022
9FD1222204
8FFD866781
3FFFFFFA00
0279984000
ENDCHAR
STARTCHAR nine.sups
ENCODING 8313
SWIDTH 628 0
DWIDTH 10 0
BBX 10 11 0 1
BITMAP
0003322330
0190222202
1D91055112
8F920BA122
9FA0222322
9FF4001022
5FFFDC9112
05F7122202
0AF8000240
0BFFFFF900
09EEEC6000
ENDCHAR
STARTCHAR parenleft.sups
ENCODING 8317
SWIDTH 434 0
DWIDTH 7 0
BBX 7 13 0 1
BITMAP
00022200
01400110
1C221110
6F123500
8F122000
8F122000
8F122000
8F122000
8F121200
8F420110
6FD64210
1CFFE400
00342000
ENDCHAR
STARTCHAR parenright.sups
ENCODING 8318
SWIDTH 435 0
DWIDTH 7 0
BBX 7 13 0 1
BITMAP
01222000
1C100200
7F212100
8FC32010
4CF52010
04F52010
04F52010
04F52010
04F42110
07202200
6F334100
7FFD3000
14300000
ENDCHAR
STARTCHAR n.sups
ENCODING 8319
SWIDTH 673 0
DWIDTH 11 0
BBX 10 11 0 1
BITMAP
0012222220
0260222102
0D62043112
3F521FC022
4F521DC022
4F521CC022
4F521CC022
4F521CC022
4F723CD222
4FFE4BFFA0
0442024400
ENDCHAR
STARTCHAR zero.sinf
ENCODING 8320
SWIDTH 656 0
DWIDTH 11 0
BBX 10 11 0 -2
BITMAP
0012222220
0360222112
1E421E9202
5F422FA112
5F422EA112
5F421EA112
5F42021202
5F70222112
2FF7322430
07FFFFE500
0013430000
ENDCHAR
STARTCHAR one.sinf
ENCODING 8321
SWIDTH 557 0
DWIDTH 9 0
BBX 9 10 0 -1
BITMAP
0073333200
0AC0230200
5FE5120200
6FFF520200
39FF520200
00EF520200
00C9320320
1A91232120
9FFEEEED50
8FFFFFC300
ENDCHAR
STARTCHAR two.sinf
ENCODING 8322
SWIDTH 585 0
DWIDTH 9 0
BBX 9 10 0 -1
BITMAP
0073333320
09E0222130
4FF6661220
5FFE950220
18A1222030
0882116600
7F72088230
BF72222220
BFFEEEEE80
AFFFFFE500
ENDCHAR
STARTCHAR three.sinf
ENCODING 8323
SWIDTH 584 0
DWIDTH 9 0
BBX 10 10 0 -1
BITMAP
0173333300
1CA1222020
9FFED72020
9FF9002220
38E9123130
09FFEE4211
0AA1110221
1CA1222240
9FFEEEE900
8FFFFD6000
ENDCHAR
STARTCHAR four.sinf
ENCODING 8324
SWIDTH 620 0
DWIDTH 10 0
BBX 10 11 0 -2
BITMAP
0263357332
3E620F7202
CF620F7202
CF620E7202
CF62032202
CF70322402
CFD3000202
AFFFFF7102
29BBEFA442
0000BFFE40
00006AA200
ENDCHAR
STARTCHAR five.sinf
ENCODING 8325
SWIDTH 593 0
DWIDTH 9 0
BBX 10 10 0 -1
BITMAP
0073333330
1BC0322120
6FC026BC40
6FC0200040
6FD0322202
6FFFFF6202
6FB0000202
2DB1222240
7FFEEEE900
7FFFFD6000
ENDCHAR
STARTCHAR six.sinf
ENCODING 8326
SWIDTH 628 0
DWIDTH 10 0
BBX 10 11 0 -2
BITMAP
0003233330
0091222120
0BC027CD40
5FC0210022
7FC0522203
7FC029D023
7FC0246023
7FF2122203
5FFE866750
1DFFFFF600
0179A83000
ENDCHAR
STARTCHAR seven.sinf
ENCODING 8327
SWIDTH 577 0
DWIDTH 9 0
BBX 9 10 0 -1
BITMAP
0363333330
5E71222220
CFFEEE0220
BFFF940220
0026022120
03E5207500
0CF4206000
0EF5002000
0EFFE70000
0DFE500000
ENDCHAR
STARTCHAR eight.sinf
ENCODING 8328
SWIDTH 638 0
DWIDTH 10 0
BBX 10 11 0 -2
BITMAP
0003222230
01A4122202
0CF228C112
1FF7223131
0ED1344403
2E920CF222
8F92034022
9FD1222204
8FFD866781
3FFFFFFA00
0279984000
ENDCHAR
STARTCHAR nine.sinf
ENCODING 8329
SWIDTH 628 0
DWIDTH 10 0
BBX 10 11 0 -2
BITMAP
0003322330
0190222202
1D91055112
8F920BA122
9FA0222322
9FF4001022
5FFFDC9112
05F7122202
0AF8000240
0BFFFFF900
09EEEC6000
ENDCHAR
STARTCHAR parenleft.sinf
ENCODING 8333
SWIDTH 434 0
DWIDTH 7 0
BBX 7 13 0 -2
BITMAP
00022200
01400110
1C221110
6F123500
8F122000
8F122000
8F122000
8F122000
8F121200
8F420110
6FD64210
1CFFE400
00342000
ENDCHAR
STARTCHAR parenright.sinf
ENCODING 8334
SWIDTH 435 0
DWIDTH 7 0
BBX 7 13 0 -2
BITMAP
01222000
1C100200
7F212100
8FC32010
4CF52010
04F52010
04F52010
04F52010
04F42110
07202200
6F334100
7FFD3000
14300000
ENDCHAR
STARTCHAR colonsign
ENCODING 8353
SWIDTH 728 0
DWIDTH 12 0
BBX 12 16 0 -3
BITMAP
000002323300
00003C075200
000395221220
004603322302
06E030000003
2FC0206EEEB1
5FC0209FF800
7FC020200000
7FC020200000
7FC020222221
7FE030000002
5FF503322302
1FFE73211221
06FFFE095230
0039FFEFE500
0003FACD3000
ENDCHAR
STARTCHAR lira
ENCODING 8356
SWIDTH 795 0
DWIDTH 13 0
BBX 13 14 0 -2
BITMAP
00003333333000
00170000002000
01C30222202000
0CF02100002000
2FE0203DD30000
4F314211200000
DF902035222210
CF314212A00030
DFD0205CA02030
FFE02000002030
5FE02222222030
4FE00000000030
4FFEDDDDDDD800
3FFFFFFFFF7000
ENDCHAR
STARTCHAR naira
ENCODING 8358
SWIDTH 853 0
DWIDTH 14 0
BBX 15 14 -1 -2
BITMAP
0005333102533400
007E00012D400200
03FE03306F412200
04FE02120A412200
04FA020221212120
04F3140021014030
0DFC020302112240
0EF3140870314030
0CFB0208F5042230
1FFE0208FE212200
06FE0208FF411200
04FE0004FF400300
04FFEDB2FFEDD400
03FFFB10DFFD3000
ENDCHAR
STARTCHAR peseta
ENCODING 8359
SWIDTH 812 0
DWIDTH 13 0
BBX 15 14 -1 -2
BITMAP
0006333333331000
008E000000003000
04FE022222300200
04FA020373040300
05F20407FB031020
0EF50207F9020220
1FFE020000010500
0CFE032222203100
04FE020000142000
04FE0206FFD20000
04FE0206C8100000
04FE000300000000
04FFEDC300000000
03FFFB1000000000
ENDCHAR
STARTCHAR dong
ENCODING 8363
SWIDTH 782 0
DWIDTH 13 0
BBX 13 17 0 -5
BITMAP
00000005333200
00000148000310
00002C02242030
0001DF10020020
0003FFFF020700
00154322230200
03A03000020200
2E8024FF020200
9F7026FF020200
BF803286030200
BFC01222202100
AFFC5322462000
6FFC9999932000
06E41222203000
09F50000002000
0EFFFFFFF80000
0BEEEEEE700000
ENDCHAR
STARTCHAR Euro
ENCODING 8364
SWIDTH 748 0
DWIDTH 12 0
BBX 12 14 0 -2
BITMAP
000022333333
000500000002
00A402322203
08E112299AC5
0E7020000270
2F7153332200
BFD1204AA800
AF7142222200
9F8020000300
BFF212289632
5FF602322202
0FFE51000003
0AFFFFEDDDC3
018DFFFFFB10
ENDCHAR
STARTCHAR peso
ENCODING 8369
SWIDTH 812 0
DWIDTH 13 0
BBX 15 14 -1 -2
BITMAP
0006333333332000
009E000000003000
04FA010000210300
04F3040373051020
0CFC0207FB020700
1FF30207F9020020
0BF4030000040010
0EFE032222301200
0DFE020000130000
04FE0206FFC10000
04FE0206C8100000
04FE000300000000
04FFEDC300000000
03FFFB1000000000
ENDCHAR
STARTCHAR guarani
ENCODING 8370
SWIDTH 788 0
DWIDTH 13 0
BBX 13 17 0 -4
BITMAP
00000233310000
00003C00020000
00036302025100
00440333220200
05D03000000300
1EC0205AAAA300
5FC020BFFD3100
7FC02032746600
7FC0205D801020
7FC0208E703020
7FE03000003020
5FF50234332020
2FFF8302012310
08FFFE000AE400
005BFFCBA92000
0004FFFC100000
00003330000000
ENDCHAR
STARTCHAR cedi
ENCODING 8373
SWIDTH 728 0
DWIDTH 12 0
BBX 12 16 0 -3
BITMAP
000002333100
00003C000200
000262020250
004403332202
06D020000003
2FC0206EEEB1
5FC0209FF800
7FC020200000
7FC020200000
7FC020222221
7FE020000002
5FF503332202
1EFE84020121
05FFFE000830
0039FFEEA200
0003FFF90000
ENDCHAR
STARTCHAR indianrupee
ENCODING 8377
SWIDTH 713 0
DWIDTH 11 0
BBX 12 14 0 -2
BITMAP
006333333341
1BA033443212
8FC443020141
9FE999020450
3EA022242112
7FA000020011
8FFDCB020930
3EA022332320
8FA000001130
9FFFFFF40212
6EEEEFF50212
00000EF50012
00000DFFDD60
00000CFFE400
ENDCHAR
STARTCHAR turkishlira
ENCODING 8378
SWIDTH 795 0
DWIDTH 13 0
BBX 14 14 -1 -2
BITMAP
00073333000000
01AC0102000000
06FC0203200000
07F51421300000
08F22206600000
2FF80321223332
1DF124058D0002
2EFB0206FD0202
2FFC0204950202
07FC0200001202
07FC0222222020
07FC0000001410
07FFEDDDDE9000
05FFFFFEC50000
ENDCHAR
STARTCHAR ruble
ENCODING 8381
SWIDTH 782 0
DWIDTH 13 0
BBX 14 14 -1 -2
BITMAP
00063333333320
008E0000000040
04FE0222222003
04FE0206E90303
04FE0207F90202
04FE0200000302
04FE0322222010
04FE0200000010
04FD0204ACA100
05F31531170000
0EF80102500000
1FFE0004100000
0AFFEDB2000000
03FFFB10000000
ENDCHAR
STARTCHAR liter
ENCODING 8467
SWIDTH 749 0
DWIDTH 12 0
BBX 12 14 0 -2
BITMAP
000132223310
003302332031
05D021002203
2FC020A80202
5FC020BA0202
7FC020640202
7FC032223112
7FC020001430
7FC0208EE500
7FD021000120
7FF402221020
5FFE51000120
1DFFFFFFF700
029CDEED4000
ENDCHAR
STARTCHAR uni2117
ENCODING 8471
SWIDTH 967 0
DWIDTH 15 0
BBX 15 18 0 -4
BITMAP
0000000122100000
0000224433433200
0014334666543320
01C33DFFFFFF8320
0CD389000029F320
3FC398222230E430
6FC39820B811C430
6FC39820B811C430
6FC398222230E430
6FC39820113AF430
6FC39820CF8FF430
6FC39910941FF430
6FE35EC8101FE320
5FF5369322393330
2FFE532222233400
09FFFEB989AC7000
007EFFFFFFC40000
0000245542000000
ENDCHAR
STARTCHAR uni2120
ENCODING 8480
SWIDTH 1003 0
DWIDTH 16 0
BBX 16 10 0 2
BITMAP
0013333243312332
02722217A1249222
3E72299DA2223232
AF82212AA2033032
BFD51233A2132232
AFC88433A21FF232
2F722226A11FF212
AFC999AFE97FFA93
BFFFFA9FF91FFE40
3555302540045200
ENDCHAR
STARTCHAR trademark
ENCODING 8482
SWIDTH 1003 0
DWIDTH 16 0
BBX 17 10 -1 2
BITMAP
002333333433123320
04E223322A12492220
1FF97117AA22232320
2FFFC11CFA20330320
059FC11CFA21322320
006FC11CFA21FF2320
006FC01CFA11FF2120
006FE97BFE97FFA930
006FFC1AFF91FFE400
001551025400452000
ENDCHAR
STARTCHAR Omega
ENCODING 8486
SWIDTH 877 0
DWIDTH 14 0
BBX 14 14 0 -2
BITMAP
00002322222300
00040012220030
01B40310013021
0BF21119920202
0FF1204FF60202
2FF1203EF60202
2FF1202CF60202
2FF2202CF60202
2FF6212DF50231
1F700317903003
5F602226812212
CF700007900003
CFFFFFFFFFFFD3
9EEEEA9EEEEB10
ENDCHAR
STARTCHAR estimated
ENCODING 8494
SWIDTH 815 0
DWIDTH 13 0
BBX 13 14 0 -2
BITMAP
00013222223100
00230022200210
04C02210132020
2FB0306A602020
6FA0209B902020
8FA02000002020
8FA03222222020
8FA02056666630
8FA020AFFFF600
8FC03000000300
7FF30332220200
4FFD5100000300
0CFFFFFFFF9000
018CDEEED70000
ENDCHAR
STARTCHAR onethird
ENCODING 8531
SWIDTH 1269 0
DWIDTH 20 0
BBX 21 14 0 -2
BITMAP
0073333200633300000000
1BC023020A600300000000
6FE512028F420300000000
6FFF5202CF120633332000
15EF5202ED022912221100
00EF5205FB025900020200
00C93205C8027FED721200
0791232175206F81233200
6FA000008330BF90002200
9FFFFFFFF030DFFFF42210
7EEEEEBFC023A900002200
0000004FA005D912222300
0000007FFDCCFFDDDD7000
0000007FFC19FFFFD50000
ENDCHAR
STARTCHAR twothirds
ENCODING 8532
SWIDTH 1269 0
DWIDTH 20 0
BBX 21 14 0 -2
BITMAP
0073333320633300000000
0AE022213B600300000000
5FF777124F420300000000
4FFFB6034F120633332000
04B33330AD022912221100
09921168FB025900020200
6F720884B8027FED721200
BF71000035206E81233200
BF8000004330BF90002200
BFFFFFFFF030DFFFF42210
9EEEEEDFC023A900002200
0000004FA005D912222300
0000007FFDCCFFDDDD7000
0000007FFC19FFFFD50000
ENDCHAR
STARTCHAR oneeighth
ENCODING 8539
SWIDTH 1283 0
DWIDTH 21 0
BBX 21 14 0 -2
BITMAP
0073333200633300000000
1AC023020A600300000000
6FE512028F420300000000
6FFF5202CF120332222000
27EF5203FD022912221300
00EF5205FB025720102200
00C93205C8027823F22300
049123217520AA24642300
5FA000008330C120202110
9FFFFFFFF030D028F72020
7EEEEEBFC023E022512120
0000004FA006F712221200
0000007FFDDFFFECBC6000
0000007FFC17DEFEB40000
ENDCHAR
STARTCHAR threeeighths
ENCODING 8540
SWIDTH 1293 0
DWIDTH 21 0
BBX 21 14 0 -2
BITMAP
0173333300533400000000
1C91222028900200000000
9FC442208F621200000000
9FFD9522BF320232222000
38E912328F120A12221300
09FFEE422D022920102300
0AB111021A025A21F52300
0A91222238127C24642300
7FA00002B520A320202020
9FFFFFFEF220D125F92030
7EEEEC4EE021F221522030
0000001FD003F912221200
0000004FFEDEFFECBC8000
0000005FFD35CEFEC50000
ENDCHAR
STARTCHAR fiveeighths
ENCODING 8541
SWIDTH 1303 0
DWIDTH 21 0
BBX 21 14 0 -2
BITMAP
0073333330633400000000
1BC032213AB01200000000
6FC026BCBF802200000000
6FC020003F620223222000
6FD032220F320922221300
6FFFFF620E120B20102200
6FC000020C022D20E72300
1DB122221A025D24643300
6FC00002B7118520211130
8FFFFFFDF520A423FC0220
6EEEEC4BF220D420431120
0000000EF001FB12221210
0000002FFEDEFFFCBB9100
0000003FFE44BEFEC70000
ENDCHAR
STARTCHAR seveneighths
ENCODING 8542
SWIDTH 1241 0
DWIDTH 20 0
BBX 20 14 0 -2
BITMAP
02633333353340000000
3D7122225B0030000000
BF800002590230000000
CFFFFE02562132322210
588B4121632092222130
00762100B120B2010220
07F5207DD022D10D7230
0DF4107FA025D2465330
0EF5017F812852021113
0EFFF58F520A423FC022
0CED40BF220D42043112
000000EF001FB1222221
000002FFEDEFFFCBB910
000002EFE44BEFFD7000
ENDCHAR
STARTCHAR arrowleft
ENCODING 8592
SWIDTH 1100 0
DWIDTH 18 0
BBX 14 12 2 -1
BITMAP
00000000220000
00000013020000
00000220020000
00013114032230
00320222000021
06B01402333121
6FFB2034024340
5FFFE60208FD30
04DFFFB206A100
0019FFFE630000
00004DFF900000
00000187000000
ENDCHAR
STARTCHAR arrowup
ENCODING 8593
SWIDTH 1100 0
DWIDTH 18 0
BBX 12 13 3 -2
BITMAP
000002430000
000048003000
0002D1221200
000C41220300
007903003030
03D113433012
0C7000200003
8FFFF8209FC2
AEEFF7208A10
000BF6003000
000CFC993000
000CFFE40000
000244200000
ENDCHAR
STARTCHAR arrowright
ENCODING 8594
SWIDTH 1100 0
DWIDTH 18 0
BBX 14 12 2 -1
BITMAP
00000032000000
00001B31300000
0000CF30031000
0023BC22301300
04B00002031030
4FC02334013012
6FD33412220430
6FFFFF31117300
3BA9FF30471000
0001FF67400000
0001FFA1000000
0000A500000000
ENDCHAR
STARTCHAR arrowdown
ENCODING 8595
SWIDTH 1100 0
DWIDTH 18 0
BBX 12 14 3 -2
BITMAP
000000110000
000035223000
0006F5102000
000EF6202000
004773202332
1C8000200003
CFF314225030
8FFD02111120
1DFF80330300
03FFF3103000
008FFD111000
000DFFB30000
0003FE300000
000021000000
ENDCHAR
STARTCHAR arrowupleft
ENCODING 8598
SWIDTH 1100 0
DWIDTH 18 0
BBX 12 12 3 -1
BITMAP
000100000000
017122222000
1CB021000230
8FE022240030
6FF220120300
4FF522321300
1FF802012030
0DFB00821012
0AFE09FD1120
07FF7DFFC300
03F602EE3000
000000220000
ENDCHAR
STARTCHAR arrowupright
ENCODING 8599
SWIDTH 1100 0
DWIDTH 18 0
BBX 12 12 3 -1
BITMAP
000000000010
000012222222
003320001112
06F502321330
3FFF50302130
0AFF80333030
00A603002020
03A010650120
3EF904FF5300
5FFF9AFFE300
07FC10AD3000
003000000000
ENDCHAR
STARTCHAR arrowdownright
ENCODING 8600
SWIDTH 1100 0
DWIDTH 18 0
BBX 12 12 3 -1
BITMAP
000010000000
000323003400
005200351210
07D112110030
6FFD21214030
3EFFA0322030
02DB12201230
00A100222220
0AFD97410002
3FFFFFFFDA60
0147ADFFF900
000000144000
ENDCHAR
STARTCHAR arrowdownleft
ENCODING 8601
SWIDTH 1100 0
DWIDTH 18 0
BBX 12 11 3 -1
BITMAP
000332023310
006C02560030
04F900203121
07F605131210
0AF311321300
0DF130031220
1FD032220020
4FA000257A30
7FE9BEFFD300
8FFEC9630000
152000000000
ENDCHAR
STARTCHAR uni21AA
ENCODING 8618
SWIDTH 1100 0
DWIDTH 18 0
BBX 14 16 2 -3
BITMAP
00001222222200
00031000000020
01A02222221020
1DB03278888610
6FA129FFFFC100
8FA125B5770000
8FA127F6022000
8FA028FA001310
8FC03011042022
8FF30333332203
6FFE7543031041
1DFFFFF9003710
01699CF5066000
00000BF8820000
00000EE6000000
00000720000000
ENDCHAR
STARTCHAR uni21AB
ENCODING 8619
SWIDTH 1100 0
DWIDTH 18 0
BBX 14 16 2 -3
BITMAP
00003222222100
001B0000000130
01DE0122222202
04FF8888873202
04FFFFFFFFA112
016666775FA112
000002206FA112
00013100AF8212
00220240110302
06702333333122
8FF70130345620
AFFFC3009FD200
07FFFF70450000
003CFFFC500000
00007FFB100000
00000370000000
ENDCHAR
STARTCHAR uni21B0
ENCODING 8624
SWIDTH 1100 0
DWIDTH 18 0
BBX 13 14 2 -2
BITMAP
00000001200000
00000032200000
00001300200000
00032010433100
01400340000220
2C702332223130
DFFB1030880220
8FFFE500AF2220
04DFFFA16F3220
0019FFFECF3220
00004DE6FF3120
00000111FF3030
00000001FFFE40
00000000DEC300
ENDCHAR
STARTCHAR uni21B1
ENCODING 8625
SWIDTH 1100 0
DWIDTH 18 0
BBX 14 14 2 -2
BITMAP
00000002000000
000001B1220000
00001DF5013000
00003CB6010320
00041000042012
01B11222334013
0DD02295030340
4FD027F5017400
6FD027F1381000
6FD027FA500000
6FD017A1000000
6FD00300000000
6FFFC200000000
4DEA1000000000
ENDCHAR
STARTCHAR uni21B2
ENCODING 8626
SWIDTH 1100 0
DWIDTH 18 0
BBX 13 14 2 -2
BITMAP
00000000003220
000000000A3020
00000000CF3220
00000003AF3220
000001307F3220
00003200BF2220
00130140650230
03402333333030
5FB10240000320
EFFE5000CEC200
4DFFFA10881000
019FFFE5300000
0004DFFD300000
000019B2000000
ENDCHAR
STARTCHAR uni21B3
ENCODING 8627
SWIDTH 1100 0
DWIDTH 18 0
BBX 14 14 2 -2
BITMAP
00222100000000
05800200000000
6F810200000000
BF820232100000
BF8209C0220000
BF820CF1013100
BF911362220220
BFC02333413012
9FF81000331041
5FFFFEE3002610
07CEFFE0066000
00001FB2820000
00005FF7000000
00006B20000000
ENDCHAR
STARTCHAR partialdiff
ENCODING 8706
SWIDTH 792 0
DWIDTH 13 0
BBX 13 15 0 -3
BITMAP
00033333332000
006C0111101300
05FC0111230300
07FE7776102110
06FFDA9A502020
02950011002020
04A02211233020
3F90307B303020
8F9030CF602020
9FA03035112110
9FD01222330300
8FFA2000003200
4FFFFDCBCC2000
05CFFFFE910000
00012220000000
ENDCHAR
STARTCHAR Delta
ENCODING 8710
SWIDTH 830 0
DWIDTH 13 0
BBX 13 14 0 -2
BITMAP
00003333332000
00067000002100
006F3132220300
00DE0304030300
01FB030E320300
05F7022F602110
09F3206F903030
0DE0209FD02020
2FC020CFE02020
5FB02000002020
7FB02222223020
8FB00000000030
8FFFFFFFFFFD20
5EEEEEEEEEB100
ENDCHAR
STARTCHAR product
ENCODING 8719
SWIDTH 859 0
DWIDTH 14 0
BBX 14 14 0 -2
BITMAP
00233333333330
04D00111111021
3FE03111112221
4FE02037720221
4FE0206FF40221
4FE0204FF40221
4FE0202FF40221
4FE0202FF40221
4FE0202FF40221
4FE0202FF40221
4FE0102FF40121
4FF1003FF50030
4FFFFC2FFFFE40
2DEEA10BEEC300
ENDCHAR
STARTCHAR summation
ENCODING 8721
SWIDTH 750 0
DWIDTH 12 0
BBX 12 16 0 -4
BITMAP
003333333331
05C002222202
4FD030000002
5FD021047762
5FF40211BD30
5FFF50210300
0BFFF6030200
00AFF5030300
000A50302200
004403021000
049030033332
4F9032222202
9F9000000002
AFD888888883
9FFFFFFFFE40
255555555200
ENDCHAR
STARTCHAR minus
ENCODING 8722
SWIDTH 834 0
DWIDTH 13 0
BBX 13 6 0 2
BITMAP
00032222222210
01B00000000020
1DE01222222020
4FF54444444430
4FFFFFFFFFF800
19999999995000
ENDCHAR
STARTCHAR uni2215
ENCODING 8725
SWIDTH 417 0
DWIDTH 7 0
BBX 8 14 -1 -2
BITMAP
00005334
0007B013
004F9023
007F6203
00AF3203
00DF1202
01FD0220
03FA0230
06F81130
09F53030
0BF22030
0EF00110
2FFED500
2EFE4000
ENDCHAR
STARTCHAR uni2219
ENCODING 8729
SWIDTH 464 0
DWIDTH 7 0
BBX 8 7 0 2
BITMAP
00322230
07800012
7F802012
AF801012
AF900011
AFFDDD50
8FFFE400
ENDCHAR
STARTCHAR radical
ENCODING 8730
SWIDTH 841 0
DWIDTH 13 0
BBX 14 16 0 -2
BITMAP
00000000001220
00000000053113
000000007E0102
00000002FA0302
00000006F70220
00122209F42020
0451113CF13020
6F41312FC03020
EF50030D903200
EFDB1308611200
DFFF6121020200
14FFB030020200
00CFF222221100
006FF900003000
001EFFFFFC1000
0007EEEE900000
ENDCHAR
STARTCHAR infinity
ENCODING 8734
SWIDTH 978 0
DWIDTH 16 0
BBX 16 12 0 -1
BITMAP
0000222200333200
0013000033000140
0390232313223212
3E90228132691302
8F8026F540BF3302
AF8026F7319F3302
AF9023B5225B1302
AFA0321222212202
AFF4011041121040
7FFFDBBDFEBAA810
1BFFFFAEFFFF7000
0013310034310000
ENDCHAR
STARTCHAR integral
ENCODING 8747
SWIDTH 574 0
DWIDTH 9 0
BBX 11 18 -1 -4
BITMAP
000000002100
000002321120
000054021020
0006E0210030
002FC0306800
005FC0304000
006FC0302000
006FC0302000
006FC0302000
006FC0302000
006FC0302000
006FC0302000
007730302000
04E113203000
1FF100041000
2FFA99810000
2FFFF8000000
045410000000
ENDCHAR
STARTCHAR approxequal
ENCODING 8776
SWIDTH 834 0
DWIDTH 13 0
BBX 13 11 0 0
BITMAP
00000210000000
00232122332330
03D01232212020
2EE00000011030
4FFACEDCA88710
4FFFCABDFF9320
04720000122030
08E01223222020
3FF03542000230
4FFFFFFFFDD500
3EB9ACEFFB3000
ENDCHAR
STARTCHAR notequal
ENCODING 8800
SWIDTH 834 0
DWIDTH 13 0
BBX 13 14 0 -2
BITMAP
00000002220000
00000080003000
00333440203320
06E01222422020
3FE00001100020
4FFBAA2206A920
3FFFFF120BD300
03A32202022230
09E01224222020
4FF00002000030
4FFED5006DDB20
3FFFFB77CFB100
000CFFE5000000
00046630000000
ENDCHAR
STARTCHAR lessequal
ENCODING 8804
SWIDTH 814 0
DWIDTH 13 0
BBX 12 14 0 -2
BITMAP
000000001333
000002332002
000220012212
006503210035
07F22026AE90
1FF2204AC600
2FF413100222
1FFB10122202
0EFFFB620012
04E300000002
08F212222212
1FF300000003
2FFFFFFFFFE4
1DEEEEEEEC20
ENDCHAR
STARTCHAR greaterequal
ENCODING 8805
SWIDTH 814 0
DWIDTH 13 0
BBX 12 14 1 -2
BITMAP
025331000000
4E4001332000
EF4122100320
EFA300123120
EFFFEA620312
5BEFFEA50302
003630013221
094022220130
AF410026A810
EF4000000021
EF4122222102
EF5000000012
EFFFFFFFFF60
BEEEEEEED400
ENDCHAR
STARTCHAR block
ENCODING 9608
SWIDTH 1000 0
DWIDTH 16 0
BBX 18 18 -1 -3
BITMAP
355555555555555553
9EEEEEEEEEEEEEEEE9
AFFFFFFFFFFFFFFFFA
AFFFFFFFFFFFFFFFFA
AFFFFFFFFFFFFFFFFA
AFFFFFFFFFFFFFFFFA
AFFFFFFFFFFFFFFFFA
AFFFFFFFFFFFFFFFFA
AFFFFFFFFFFFFFFFFA
AFFFFFFFFFFFFFFFFA
AFFFFFFFFFFFFFFFFA
AFFFFFFFFFFFFFFFFA
AFFFFFFFFFFFFFFFFA
AFFFFFFFFFFFFFFFFA
AFFFFFFFFFFFFFFFFA
AFFFFFFFFFFFFFFFFA
AFFFFFFFFFFFFFFFFA
7BBBBBBBBBBBBBBBB7
ENDCHAR
STARTCHAR blacksquare
ENCODING 9632
SWIDTH 1100 0
DWIDTH 18 0
BBX 10 10 4 0
BITMAP
0022222221
0850000002
AF50122102
EF50200202
EF50200202
EF50222202
EF50000002
EF84444443
EFFFFFFF70
7AAAAAA400
ENDCHAR
STARTCHAR blackuppointingtriangle
ENCODING 9650
SWIDTH 1100 0
DWIDTH 18 0
BBX 12 10 3 0
BITMAP
000000320000
000019112000
0000C5003000
0007B0110300
002E20330210
00A702342030
05D000000012
1DB444444442
8FFFFFFFFF70
6AAAAAAAA400
ENDCHAR
STARTCHAR whiteuppointingtriangle
ENCODING 9651
SWIDTH 1100 0
DWIDTH 18 0
BBX 10 8 5 2
BITMAP
0000530000
0004142000
0015006000
0060002400
0330000500
0500000050
5100000042
5555555554
ENDCHAR
STARTCHAR blackrightpointingtriangle
ENCODING 9654
SWIDTH 1100 0
DWIDTH 18 0
BBX 10 12 4 -1
BITMAP
0021000000
0941300000
BF40022000
FF40101310
FF40430022
FF40332003
FF40300350
FF40018500
FF40592000
FF99500000
FF81000000
6200000000
ENDCHAR
STARTCHAR whiterightpointingtriangle
ENCODING 9655
SWIDTH 1100 0
DWIDTH 18 0
BBX 8 10 6 1
BITMAP
41000000
54500000
50153000
50003510
50000043
50000015
50000550
50036100
51630000
65000000
ENDCHAR
STARTCHAR blackdownpointingtriangle
ENCODING 9660
SWIDTH 1100 0
DWIDTH 18 0
BBX 12 10 3 0
BITMAP
003222222222
09A000000003
9FF303341030
7FFC00330120
0DFF70210300
04FFE2002000
00AFFA012000
001EFF740000
0006FF800000
000085000000
ENDCHAR
STARTCHAR whitedownpointingtriangle
ENCODING 9661
SWIDTH 1100 0
DWIDTH 18 0
BBX 10 8 5 2
BITMAP
4555555552
5000000024
1400000060
0510000420
0060001500
0033005000
0006023000
0001650000
ENDCHAR
STARTCHAR blackleftpointingtriangle
ENCODING 9664
SWIDTH 1100 0
DWIDTH 18 0
BBX 10 12 4 -1
BITMAP
0000000022
0000001312
0000031002
0002300102
0041013302
1B60032202
CFF9101202
AFFFE60002
05EFFFC302
0019FFFF93
00003CFF50
0000005300
ENDCHAR
STARTCHAR whiteleftpointingtriangle
ENCODING 9665
SWIDTH 1100 0
DWIDTH 18 0
BBX 8 10 6 1
BITMAP
00000032
00002625
00054005
03510005
52000005
60000005
15300005
00351005
00005405
00000154
ENDCHAR
STARTCHAR blackdiamond
ENCODING 9670
SWIDTH 1100 0
DWIDTH 18 0
BBX 12 12 3 -1
BITMAP
000000320000
000003012000
000030001200
000400320120
004003122012
0A4003003003
AFE301330031
CFFE30000310
1CFFE3003000
01CFFE330000
001CFFA00000
0001B7000000
ENDCHAR
STARTCHAR lozenge
ENCODING 9674
SWIDTH 831 0
DWIDTH 13 0
BBX 13 14 0 -2
BITMAP
00001333332000
0002A000003000
002E5032221200
008D0302030300
01E7030D412110
07F1205FA03020
0DE0207FC02020
4FF4122F703030
4FFA0308120300
0DFF2210030300
07FF9023312000
01EFE200003000
008FFFFFF80000
001CEEED600000
ENDCHAR
STARTCHAR uni25D6
ENCODING 9686
SWIDTH 546 0
DWIDTH 9 0
BBX 10 18 0 -3
BITMAP
0000002552
00005BDDE5
0029DFFFF6
01AFFFFFF6
08EFFFFFF6
3CFFFFFFF6
6FFFFFFFF6
AFFFFFFFF6
BFFFFFFFF6
CFFFFFFFF6
BFFFFFFFF6
8FFFFFFFF6
5EFFFFFFF6
1BFFFFFFF6
04DFFFFFF6
006DFFFFF6
0004ADFFF6
00000479B4
ENDCHAR
STARTCHAR uni25D7
ENCODING 9687
SWIDTH 546 0
DWIDTH 9 0
BBX 10 18 -1 -3
BITMAP
3541000000
9DDD940000
AFFFFD8000
AFFFFFE800
AFFFFFFD50
AFFFFFFFB1
AFFFFFFFD4
AFFFFFFFF6
AFFFFFFFF7
AFFFFFFFF8
AFFFFFFFF7
AFFFFFFFE5
AFFFFFFFC2
AFFFFFFF80
AFFFFFFB20
AFFFFFB400
AFFFC92000
7A96300000
ENDCHAR
STARTCHAR uni25DC
ENCODING 9692
SWIDTH 1280 0
DWIDTH 20 0
BBX 18 18 1 -3
BITMAP
000000000002345554
0000000057BDDDDEEA
0000005BDFFFFFFFFB
000019DFFFFFFFFFFB
0001AEFFFFFFFFFFFB
0009EFFFFFFFFFFFFB
005DFFFFFFFFFFFFFB
00BFFFFFFFFFFFFFFB
05DFFFFFFFFFFFFFFB
07FFFFFFFFFFFFFFFB
0BFFFFFFFFFFFFFFFB
2DFFFFFFFFFFFFFFFB
3DFFFFFFFFFFFFFFFB
4DFFFFFFFFFFFFFFFB
5DFFFFFFFFFFFFFFFB
5EFFFFFFFFFFFFFFFB
5EFFFFFFFFFFFFFFFB
4ABBBBBBBBBBBBBBB8
ENDCHAR
STARTCHAR uni25DD
ENCODING 9693
SWIDTH 1280 0
DWIDTH 20 0
BBX 18 18 1 -3
BITMAP
155554300000000000
5DEEDDDC9620000000
5EFFFFFFFEC7200000
5EFFFFFFFFFFB40000
5EFFFFFFFFFFFD5000
5EFFFFFFFFFFFFC300
5EFFFFFFFFFFFFFA00
5EFFFFFFFFFFFFFD50
5EFFFFFFFFFFFFFFA0
5EFFFFFFFFFFFFFFD2
5EFFFFFFFFFFFFFFD5
5EFFFFFFFFFFFFFFF6
5EFFFFFFFFFFFFFFF8
5EFFFFFFFFFFFFFFF9
5EFFFFFFFFFFFFFFFA
5EFFFFFFFFFFFFFFFB
5EFFFFFFFFFFFFFFFB
4ABBBBBBBBBBBBBBB8
ENDCHAR
ENDFONT
